M48
; DRILL file {KiCad (5.1.0)-1} date 5/27/2019 5:00:05 PM
; FORMAT={-:-/ absolute / inch / decimal}
; #@! TF.CreationDate,2019-05-27T17:00:05-04:00
; #@! TF.GenerationSoftware,Kicad,Pcbnew,(5.1.0)-1
; #@! TF.FileFunction,Plated,1,2,PTH
FMAT,2
INCH
T1C0.0157
T2C0.0315
T3C0.0374
T4C0.0394
T5C0.0433
T6C0.0472
%
G90
G05
T1
X3.3Y-3.825
X3.3Y-4.175
X3.6Y-2.1
X3.6Y-4.5
X3.675Y-2.5
X3.75Y-3.525
X4.0Y-2.1
X4.0Y-4.5
X4.15Y-3.15
X4.375Y-3.725
X4.4Y-2.1
X4.4Y-4.5
X4.8Y-2.1
X4.8Y-4.5
X4.875Y-3.3
X4.95Y-2.8
X5.2Y-2.1
X5.2Y-4.5
T2
X3.225Y-3.15
X3.225Y-3.25
X3.225Y-3.35
X3.225Y-3.45
X3.525Y-3.15
X3.525Y-3.25
X3.525Y-3.35
X3.525Y-3.45
X4.74Y-2.475
X4.74Y-2.6719
X3.95Y-2.63
X3.95Y-2.73
X3.95Y-2.83
X3.95Y-2.93
X3.95Y-3.03
X3.95Y-3.13
X3.95Y-3.23
X3.95Y-3.33
X3.95Y-3.43
X3.95Y-3.53
X3.95Y-3.63
X3.95Y-3.73
X3.95Y-3.83
X3.95Y-3.93
X3.95Y-4.03
X4.55Y-2.63
X4.55Y-2.73
X4.55Y-2.83
X4.55Y-2.93
X4.55Y-3.03
X4.55Y-3.13
X4.55Y-3.23
X4.55Y-3.33
X4.55Y-3.43
X4.55Y-3.53
X4.55Y-3.63
X4.55Y-3.73
X4.55Y-3.83
X4.55Y-3.93
X4.55Y-4.03
X5.0Y-2.5
X5.0Y-2.6378
T3
X5.25Y-3.5
X5.25Y-3.5984
X5.25Y-3.6969
X5.25Y-3.7953
X5.25Y-3.8937
X5.25Y-3.9921
X5.25Y-4.0906
X5.25Y-4.189
X5.25Y-2.95
X5.25Y-3.0484
X5.25Y-3.1469
X5.25Y-3.2453
T4
X3.675Y-2.625
X3.675Y-2.7234
X3.675Y-2.8219
X3.6Y-3.675
X3.6Y-3.775
X3.6Y-3.875
X3.6Y-4.025
X3.6Y-4.125
X3.6Y-4.225
T5
X5.55Y-2.95
X5.55Y-3.05
X5.55Y-3.15
X5.55Y-3.25
X5.55Y-3.5
X5.55Y-3.6
X5.55Y-3.7
X5.55Y-3.8
X5.55Y-3.9
X5.55Y-4.0
X5.55Y-4.1
X5.55Y-4.2
T6
X5.525Y-2.475
X5.525Y-2.675
T0
M30
