G04 #@! TF.GenerationSoftware,KiCad,Pcbnew,(5.1.0)-1*
G04 #@! TF.CreationDate,2019-05-27T17:00:03-04:00*
G04 #@! TF.ProjectId,pro-mini-adapter-board,70726f2d-6d69-46e6-992d-616461707465,rev?*
G04 #@! TF.SameCoordinates,Original*
G04 #@! TF.FileFunction,Soldermask,Top*
G04 #@! TF.FilePolarity,Negative*
%FSLAX46Y46*%
G04 Gerber Fmt 4.6, Leading zero omitted, Abs format (unit mm)*
G04 Created by KiCad (PCBNEW (5.1.0)-1) date 2019-05-27 17:00:03*
%MOMM*%
%LPD*%
G04 APERTURE LIST*
%ADD10C,0.100000*%
G04 APERTURE END LIST*
D10*
G36*
X84195256Y-112056298D02*
G01*
X84301579Y-112077447D01*
X84602042Y-112201903D01*
X84872451Y-112382585D01*
X85102415Y-112612549D01*
X85283097Y-112882958D01*
X85407553Y-113183421D01*
X85471000Y-113502391D01*
X85471000Y-113827609D01*
X85407553Y-114146579D01*
X85283097Y-114447042D01*
X85102415Y-114717451D01*
X84872451Y-114947415D01*
X84602042Y-115128097D01*
X84301579Y-115252553D01*
X84195256Y-115273702D01*
X83982611Y-115316000D01*
X83657389Y-115316000D01*
X83444744Y-115273702D01*
X83338421Y-115252553D01*
X83037958Y-115128097D01*
X82767549Y-114947415D01*
X82537585Y-114717451D01*
X82356903Y-114447042D01*
X82232447Y-114146579D01*
X82169000Y-113827609D01*
X82169000Y-113502391D01*
X82232447Y-113183421D01*
X82356903Y-112882958D01*
X82537585Y-112612549D01*
X82767549Y-112382585D01*
X83037958Y-112201903D01*
X83338421Y-112077447D01*
X83444744Y-112056298D01*
X83657389Y-112014000D01*
X83982611Y-112014000D01*
X84195256Y-112056298D01*
X84195256Y-112056298D01*
G37*
G36*
X141980256Y-112056298D02*
G01*
X142086579Y-112077447D01*
X142387042Y-112201903D01*
X142657451Y-112382585D01*
X142887415Y-112612549D01*
X143068097Y-112882958D01*
X143192553Y-113183421D01*
X143256000Y-113502391D01*
X143256000Y-113827609D01*
X143192553Y-114146579D01*
X143068097Y-114447042D01*
X142887415Y-114717451D01*
X142657451Y-114947415D01*
X142387042Y-115128097D01*
X142086579Y-115252553D01*
X141980256Y-115273702D01*
X141767611Y-115316000D01*
X141442389Y-115316000D01*
X141229744Y-115273702D01*
X141123421Y-115252553D01*
X140822958Y-115128097D01*
X140552549Y-114947415D01*
X140322585Y-114717451D01*
X140141903Y-114447042D01*
X140017447Y-114146579D01*
X139954000Y-113827609D01*
X139954000Y-113502391D01*
X140017447Y-113183421D01*
X140141903Y-112882958D01*
X140322585Y-112612549D01*
X140552549Y-112382585D01*
X140822958Y-112201903D01*
X141123421Y-112077447D01*
X141229744Y-112056298D01*
X141442389Y-112014000D01*
X141767611Y-112014000D01*
X141980256Y-112056298D01*
X141980256Y-112056298D01*
G37*
G36*
X92341000Y-108216000D02*
G01*
X90539000Y-108216000D01*
X90539000Y-106414000D01*
X92341000Y-106414000D01*
X92341000Y-108216000D01*
X92341000Y-108216000D01*
G37*
G36*
X141184795Y-105600156D02*
G01*
X141291150Y-105621311D01*
X141353702Y-105647221D01*
X141491520Y-105704307D01*
X141671844Y-105824795D01*
X141825205Y-105978156D01*
X141945693Y-106158480D01*
X141945693Y-106158481D01*
X142028689Y-106358850D01*
X142071000Y-106571561D01*
X142071000Y-106788439D01*
X142028689Y-107001150D01*
X141987191Y-107101334D01*
X141945693Y-107201520D01*
X141825205Y-107381844D01*
X141671844Y-107535205D01*
X141491520Y-107655693D01*
X141391334Y-107697191D01*
X141291150Y-107738689D01*
X141184795Y-107759844D01*
X141078440Y-107781000D01*
X140861560Y-107781000D01*
X140755205Y-107759844D01*
X140648850Y-107738689D01*
X140448480Y-107655693D01*
X140268156Y-107535205D01*
X140114795Y-107381844D01*
X139994307Y-107201520D01*
X139952809Y-107101334D01*
X139911311Y-107001150D01*
X139869000Y-106788439D01*
X139869000Y-106571561D01*
X139911311Y-106358850D01*
X139994307Y-106158481D01*
X139994307Y-106158480D01*
X140114795Y-105978156D01*
X140268156Y-105824795D01*
X140448480Y-105704307D01*
X140586298Y-105647221D01*
X140648850Y-105621311D01*
X140755206Y-105600155D01*
X140861560Y-105579000D01*
X141078440Y-105579000D01*
X141184795Y-105600156D01*
X141184795Y-105600156D01*
G37*
G36*
X133585443Y-105505519D02*
G01*
X133651627Y-105512037D01*
X133821466Y-105563557D01*
X133977991Y-105647222D01*
X133997171Y-105662963D01*
X134115186Y-105759814D01*
X134168516Y-105824798D01*
X134227778Y-105897009D01*
X134311443Y-106053534D01*
X134362963Y-106223373D01*
X134380359Y-106400000D01*
X134362963Y-106576627D01*
X134311443Y-106746466D01*
X134227778Y-106902991D01*
X134198448Y-106938729D01*
X134115186Y-107040186D01*
X134013729Y-107123448D01*
X133977991Y-107152778D01*
X133821466Y-107236443D01*
X133651627Y-107287963D01*
X133585442Y-107294482D01*
X133519260Y-107301000D01*
X133180740Y-107301000D01*
X133114558Y-107294482D01*
X133048373Y-107287963D01*
X132878534Y-107236443D01*
X132722009Y-107152778D01*
X132686271Y-107123448D01*
X132584814Y-107040186D01*
X132501552Y-106938729D01*
X132472222Y-106902991D01*
X132388557Y-106746466D01*
X132337037Y-106576627D01*
X132319641Y-106400000D01*
X132337037Y-106223373D01*
X132388557Y-106053534D01*
X132472222Y-105897009D01*
X132531484Y-105824798D01*
X132584814Y-105759814D01*
X132702829Y-105662963D01*
X132722009Y-105647222D01*
X132878534Y-105563557D01*
X133048373Y-105512037D01*
X133114558Y-105505518D01*
X133180740Y-105499000D01*
X133519260Y-105499000D01*
X133585443Y-105505519D01*
X133585443Y-105505519D01*
G37*
G36*
X91550443Y-103880519D02*
G01*
X91616627Y-103887037D01*
X91786466Y-103938557D01*
X91942991Y-104022222D01*
X91978729Y-104051552D01*
X92080186Y-104134814D01*
X92163448Y-104236271D01*
X92192778Y-104272009D01*
X92276443Y-104428534D01*
X92327963Y-104598373D01*
X92345359Y-104775000D01*
X92327963Y-104951627D01*
X92276443Y-105121466D01*
X92192778Y-105277991D01*
X92163448Y-105313729D01*
X92080186Y-105415186D01*
X91978729Y-105498448D01*
X91942991Y-105527778D01*
X91786466Y-105611443D01*
X91616627Y-105662963D01*
X91550443Y-105669481D01*
X91484260Y-105676000D01*
X91395740Y-105676000D01*
X91329557Y-105669481D01*
X91263373Y-105662963D01*
X91093534Y-105611443D01*
X90937009Y-105527778D01*
X90901271Y-105498448D01*
X90799814Y-105415186D01*
X90716552Y-105313729D01*
X90687222Y-105277991D01*
X90603557Y-105121466D01*
X90552037Y-104951627D01*
X90534641Y-104775000D01*
X90552037Y-104598373D01*
X90603557Y-104428534D01*
X90687222Y-104272009D01*
X90716552Y-104236271D01*
X90799814Y-104134814D01*
X90901271Y-104051552D01*
X90937009Y-104022222D01*
X91093534Y-103938557D01*
X91263373Y-103887037D01*
X91329557Y-103880519D01*
X91395740Y-103874000D01*
X91484260Y-103874000D01*
X91550443Y-103880519D01*
X91550443Y-103880519D01*
G37*
G36*
X141184794Y-103060155D02*
G01*
X141291150Y-103081311D01*
X141491520Y-103164307D01*
X141671844Y-103284795D01*
X141825205Y-103438156D01*
X141945693Y-103618480D01*
X142028689Y-103818851D01*
X142069143Y-104022222D01*
X142071000Y-104031561D01*
X142071000Y-104248439D01*
X142040258Y-104402991D01*
X142028689Y-104461149D01*
X141945693Y-104661520D01*
X141825205Y-104841844D01*
X141671844Y-104995205D01*
X141491520Y-105115693D01*
X141291150Y-105198689D01*
X141184795Y-105219844D01*
X141078440Y-105241000D01*
X140861560Y-105241000D01*
X140755205Y-105219844D01*
X140648850Y-105198689D01*
X140548666Y-105157191D01*
X140448480Y-105115693D01*
X140268156Y-104995205D01*
X140114795Y-104841844D01*
X139994307Y-104661520D01*
X139911311Y-104461149D01*
X139899743Y-104402991D01*
X139869000Y-104248439D01*
X139869000Y-104031561D01*
X139870858Y-104022222D01*
X139911311Y-103818851D01*
X139994307Y-103618480D01*
X140114795Y-103438156D01*
X140268156Y-103284795D01*
X140448480Y-103164307D01*
X140548666Y-103122809D01*
X140648850Y-103081311D01*
X140755206Y-103060155D01*
X140861560Y-103039000D01*
X141078440Y-103039000D01*
X141184794Y-103060155D01*
X141184794Y-103060155D01*
G37*
G36*
X133585442Y-103005518D02*
G01*
X133651627Y-103012037D01*
X133821466Y-103063557D01*
X133977991Y-103147222D01*
X133983842Y-103152024D01*
X134115186Y-103259814D01*
X134198448Y-103361271D01*
X134227778Y-103397009D01*
X134311443Y-103553534D01*
X134362963Y-103723373D01*
X134380359Y-103900000D01*
X134362963Y-104076627D01*
X134311443Y-104246466D01*
X134227778Y-104402991D01*
X134206817Y-104428532D01*
X134115186Y-104540186D01*
X134044281Y-104598375D01*
X133977991Y-104652778D01*
X133821466Y-104736443D01*
X133651627Y-104787963D01*
X133585443Y-104794481D01*
X133519260Y-104801000D01*
X133180740Y-104801000D01*
X133114557Y-104794481D01*
X133048373Y-104787963D01*
X132878534Y-104736443D01*
X132722009Y-104652778D01*
X132655719Y-104598375D01*
X132584814Y-104540186D01*
X132493183Y-104428532D01*
X132472222Y-104402991D01*
X132388557Y-104246466D01*
X132337037Y-104076627D01*
X132319641Y-103900000D01*
X132337037Y-103723373D01*
X132388557Y-103553534D01*
X132472222Y-103397009D01*
X132501552Y-103361271D01*
X132584814Y-103259814D01*
X132716158Y-103152024D01*
X132722009Y-103147222D01*
X132878534Y-103063557D01*
X133048373Y-103012037D01*
X133114558Y-103005518D01*
X133180740Y-102999000D01*
X133519260Y-102999000D01*
X133585442Y-103005518D01*
X133585442Y-103005518D01*
G37*
G36*
X100496823Y-101523313D02*
G01*
X100657242Y-101571976D01*
X100789906Y-101642886D01*
X100805078Y-101650996D01*
X100934659Y-101757341D01*
X101041004Y-101886922D01*
X101041866Y-101888534D01*
X101120024Y-102034758D01*
X101168687Y-102195177D01*
X101185117Y-102362000D01*
X101168687Y-102528823D01*
X101120024Y-102689242D01*
X101113739Y-102701000D01*
X101041004Y-102837078D01*
X100934659Y-102966659D01*
X100805078Y-103073004D01*
X100805076Y-103073005D01*
X100657242Y-103152024D01*
X100496823Y-103200687D01*
X100371804Y-103213000D01*
X100288196Y-103213000D01*
X100163177Y-103200687D01*
X100002758Y-103152024D01*
X99854924Y-103073005D01*
X99854922Y-103073004D01*
X99725341Y-102966659D01*
X99618996Y-102837078D01*
X99546261Y-102701000D01*
X99539976Y-102689242D01*
X99491313Y-102528823D01*
X99474883Y-102362000D01*
X99491313Y-102195177D01*
X99539976Y-102034758D01*
X99618134Y-101888534D01*
X99618996Y-101886922D01*
X99725341Y-101757341D01*
X99854922Y-101650996D01*
X99870094Y-101642886D01*
X100002758Y-101571976D01*
X100163177Y-101523313D01*
X100288196Y-101511000D01*
X100371804Y-101511000D01*
X100496823Y-101523313D01*
X100496823Y-101523313D01*
G37*
G36*
X115736823Y-101523313D02*
G01*
X115897242Y-101571976D01*
X116029906Y-101642886D01*
X116045078Y-101650996D01*
X116174659Y-101757341D01*
X116281004Y-101886922D01*
X116281866Y-101888534D01*
X116360024Y-102034758D01*
X116408687Y-102195177D01*
X116425117Y-102362000D01*
X116408687Y-102528823D01*
X116360024Y-102689242D01*
X116353739Y-102701000D01*
X116281004Y-102837078D01*
X116174659Y-102966659D01*
X116045078Y-103073004D01*
X116045076Y-103073005D01*
X115897242Y-103152024D01*
X115736823Y-103200687D01*
X115611804Y-103213000D01*
X115528196Y-103213000D01*
X115403177Y-103200687D01*
X115242758Y-103152024D01*
X115094924Y-103073005D01*
X115094922Y-103073004D01*
X114965341Y-102966659D01*
X114858996Y-102837078D01*
X114786261Y-102701000D01*
X114779976Y-102689242D01*
X114731313Y-102528823D01*
X114714883Y-102362000D01*
X114731313Y-102195177D01*
X114779976Y-102034758D01*
X114858134Y-101888534D01*
X114858996Y-101886922D01*
X114965341Y-101757341D01*
X115094922Y-101650996D01*
X115110094Y-101642886D01*
X115242758Y-101571976D01*
X115403177Y-101523313D01*
X115528196Y-101511000D01*
X115611804Y-101511000D01*
X115736823Y-101523313D01*
X115736823Y-101523313D01*
G37*
G36*
X91550442Y-101340518D02*
G01*
X91616627Y-101347037D01*
X91786466Y-101398557D01*
X91942991Y-101482222D01*
X91978057Y-101511000D01*
X92080186Y-101594814D01*
X92163448Y-101696271D01*
X92192778Y-101732009D01*
X92276443Y-101888534D01*
X92327963Y-102058373D01*
X92345359Y-102235000D01*
X92327963Y-102411627D01*
X92276443Y-102581466D01*
X92192778Y-102737991D01*
X92163448Y-102773729D01*
X92080186Y-102875186D01*
X91978729Y-102958448D01*
X91942991Y-102987778D01*
X91786466Y-103071443D01*
X91616627Y-103122963D01*
X91550442Y-103129482D01*
X91484260Y-103136000D01*
X91395740Y-103136000D01*
X91329558Y-103129482D01*
X91263373Y-103122963D01*
X91093534Y-103071443D01*
X90937009Y-102987778D01*
X90901271Y-102958448D01*
X90799814Y-102875186D01*
X90716552Y-102773729D01*
X90687222Y-102737991D01*
X90603557Y-102581466D01*
X90552037Y-102411627D01*
X90534641Y-102235000D01*
X90552037Y-102058373D01*
X90603557Y-101888534D01*
X90687222Y-101732009D01*
X90716552Y-101696271D01*
X90799814Y-101594814D01*
X90901943Y-101511000D01*
X90937009Y-101482222D01*
X91093534Y-101398557D01*
X91263373Y-101347037D01*
X91329558Y-101340518D01*
X91395740Y-101334000D01*
X91484260Y-101334000D01*
X91550442Y-101340518D01*
X91550442Y-101340518D01*
G37*
G36*
X141184794Y-100520155D02*
G01*
X141291150Y-100541311D01*
X141491520Y-100624307D01*
X141671844Y-100744795D01*
X141825205Y-100898156D01*
X141945693Y-101078480D01*
X141945693Y-101078481D01*
X142005710Y-101223373D01*
X142028689Y-101278851D01*
X142071000Y-101491560D01*
X142071000Y-101708440D01*
X142028689Y-101921149D01*
X141945693Y-102121520D01*
X141825205Y-102301844D01*
X141671844Y-102455205D01*
X141491520Y-102575693D01*
X141291150Y-102658689D01*
X141184794Y-102679845D01*
X141078440Y-102701000D01*
X140861560Y-102701000D01*
X140755205Y-102679844D01*
X140648850Y-102658689D01*
X140448480Y-102575693D01*
X140268156Y-102455205D01*
X140114795Y-102301844D01*
X139994307Y-102121520D01*
X139911311Y-101921149D01*
X139869000Y-101708440D01*
X139869000Y-101491560D01*
X139911311Y-101278851D01*
X139934291Y-101223373D01*
X139994307Y-101078481D01*
X139994307Y-101078480D01*
X140114795Y-100898156D01*
X140268156Y-100744795D01*
X140448480Y-100624307D01*
X140548666Y-100582809D01*
X140648850Y-100541311D01*
X140755205Y-100520156D01*
X140861560Y-100499000D01*
X141078440Y-100499000D01*
X141184794Y-100520155D01*
X141184794Y-100520155D01*
G37*
G36*
X133585443Y-100505519D02*
G01*
X133651627Y-100512037D01*
X133821466Y-100563557D01*
X133977991Y-100647222D01*
X133994398Y-100660687D01*
X134115186Y-100759814D01*
X134198448Y-100861271D01*
X134227778Y-100897009D01*
X134311443Y-101053534D01*
X134362963Y-101223373D01*
X134380359Y-101400000D01*
X134362963Y-101576627D01*
X134311443Y-101746466D01*
X134227778Y-101902991D01*
X134212876Y-101921149D01*
X134115186Y-102040186D01*
X134016080Y-102121519D01*
X133977991Y-102152778D01*
X133821466Y-102236443D01*
X133651627Y-102287963D01*
X133585442Y-102294482D01*
X133519260Y-102301000D01*
X133180740Y-102301000D01*
X133114558Y-102294482D01*
X133048373Y-102287963D01*
X132878534Y-102236443D01*
X132722009Y-102152778D01*
X132683920Y-102121519D01*
X132584814Y-102040186D01*
X132487124Y-101921149D01*
X132472222Y-101902991D01*
X132388557Y-101746466D01*
X132337037Y-101576627D01*
X132319641Y-101400000D01*
X132337037Y-101223373D01*
X132388557Y-101053534D01*
X132472222Y-100897009D01*
X132501552Y-100861271D01*
X132584814Y-100759814D01*
X132705602Y-100660687D01*
X132722009Y-100647222D01*
X132878534Y-100563557D01*
X133048373Y-100512037D01*
X133114557Y-100505519D01*
X133180740Y-100499000D01*
X133519260Y-100499000D01*
X133585443Y-100505519D01*
X133585443Y-100505519D01*
G37*
G36*
X115736823Y-98983313D02*
G01*
X115897242Y-99031976D01*
X115980774Y-99076625D01*
X116045078Y-99110996D01*
X116174659Y-99217341D01*
X116281004Y-99346922D01*
X116281005Y-99346924D01*
X116360024Y-99494758D01*
X116408687Y-99655177D01*
X116425117Y-99822000D01*
X116408687Y-99988823D01*
X116360024Y-100149242D01*
X116353739Y-100161000D01*
X116281004Y-100297078D01*
X116174659Y-100426659D01*
X116045078Y-100533004D01*
X116045076Y-100533005D01*
X115897242Y-100612024D01*
X115736823Y-100660687D01*
X115611804Y-100673000D01*
X115528196Y-100673000D01*
X115403177Y-100660687D01*
X115242758Y-100612024D01*
X115094924Y-100533005D01*
X115094922Y-100533004D01*
X114965341Y-100426659D01*
X114858996Y-100297078D01*
X114786261Y-100161000D01*
X114779976Y-100149242D01*
X114731313Y-99988823D01*
X114714883Y-99822000D01*
X114731313Y-99655177D01*
X114779976Y-99494758D01*
X114858995Y-99346924D01*
X114858996Y-99346922D01*
X114965341Y-99217341D01*
X115094922Y-99110996D01*
X115159226Y-99076625D01*
X115242758Y-99031976D01*
X115403177Y-98983313D01*
X115528196Y-98971000D01*
X115611804Y-98971000D01*
X115736823Y-98983313D01*
X115736823Y-98983313D01*
G37*
G36*
X100496823Y-98983313D02*
G01*
X100657242Y-99031976D01*
X100740774Y-99076625D01*
X100805078Y-99110996D01*
X100934659Y-99217341D01*
X101041004Y-99346922D01*
X101041005Y-99346924D01*
X101120024Y-99494758D01*
X101168687Y-99655177D01*
X101185117Y-99822000D01*
X101168687Y-99988823D01*
X101120024Y-100149242D01*
X101113739Y-100161000D01*
X101041004Y-100297078D01*
X100934659Y-100426659D01*
X100805078Y-100533004D01*
X100805076Y-100533005D01*
X100657242Y-100612024D01*
X100496823Y-100660687D01*
X100371804Y-100673000D01*
X100288196Y-100673000D01*
X100163177Y-100660687D01*
X100002758Y-100612024D01*
X99854924Y-100533005D01*
X99854922Y-100533004D01*
X99725341Y-100426659D01*
X99618996Y-100297078D01*
X99546261Y-100161000D01*
X99539976Y-100149242D01*
X99491313Y-99988823D01*
X99474883Y-99822000D01*
X99491313Y-99655177D01*
X99539976Y-99494758D01*
X99618995Y-99346924D01*
X99618996Y-99346922D01*
X99725341Y-99217341D01*
X99854922Y-99110996D01*
X99919226Y-99076625D01*
X100002758Y-99031976D01*
X100163177Y-98983313D01*
X100288196Y-98971000D01*
X100371804Y-98971000D01*
X100496823Y-98983313D01*
X100496823Y-98983313D01*
G37*
G36*
X141184794Y-97980155D02*
G01*
X141291150Y-98001311D01*
X141391334Y-98042809D01*
X141491520Y-98084307D01*
X141671844Y-98204795D01*
X141825205Y-98358156D01*
X141945693Y-98538480D01*
X142028689Y-98738851D01*
X142071000Y-98951560D01*
X142071000Y-99168440D01*
X142028689Y-99381149D01*
X141945693Y-99581520D01*
X141825205Y-99761844D01*
X141671844Y-99915205D01*
X141491520Y-100035693D01*
X141391334Y-100077191D01*
X141291150Y-100118689D01*
X141184794Y-100139845D01*
X141078440Y-100161000D01*
X140861560Y-100161000D01*
X140755206Y-100139845D01*
X140648850Y-100118689D01*
X140548666Y-100077191D01*
X140448480Y-100035693D01*
X140268156Y-99915205D01*
X140114795Y-99761844D01*
X139994307Y-99581520D01*
X139911311Y-99381149D01*
X139869000Y-99168440D01*
X139869000Y-98951560D01*
X139911311Y-98738851D01*
X139994307Y-98538480D01*
X140114795Y-98358156D01*
X140268156Y-98204795D01*
X140448480Y-98084307D01*
X140548666Y-98042809D01*
X140648850Y-98001311D01*
X140755206Y-97980155D01*
X140861560Y-97959000D01*
X141078440Y-97959000D01*
X141184794Y-97980155D01*
X141184794Y-97980155D01*
G37*
G36*
X133585443Y-98005519D02*
G01*
X133651627Y-98012037D01*
X133821466Y-98063557D01*
X133977991Y-98147222D01*
X134013729Y-98176552D01*
X134115186Y-98259814D01*
X134195890Y-98358154D01*
X134227778Y-98397009D01*
X134311443Y-98553534D01*
X134362963Y-98723373D01*
X134380359Y-98900000D01*
X134362963Y-99076627D01*
X134311443Y-99246466D01*
X134227778Y-99402991D01*
X134198448Y-99438729D01*
X134115186Y-99540186D01*
X134013729Y-99623448D01*
X133977991Y-99652778D01*
X133821466Y-99736443D01*
X133651627Y-99787963D01*
X133585442Y-99794482D01*
X133519260Y-99801000D01*
X133180740Y-99801000D01*
X133114557Y-99794481D01*
X133048373Y-99787963D01*
X132878534Y-99736443D01*
X132722009Y-99652778D01*
X132686271Y-99623448D01*
X132584814Y-99540186D01*
X132501552Y-99438729D01*
X132472222Y-99402991D01*
X132388557Y-99246466D01*
X132337037Y-99076627D01*
X132319641Y-98900000D01*
X132337037Y-98723373D01*
X132388557Y-98553534D01*
X132472222Y-98397009D01*
X132504110Y-98358154D01*
X132584814Y-98259814D01*
X132686271Y-98176552D01*
X132722009Y-98147222D01*
X132878534Y-98063557D01*
X133048373Y-98012037D01*
X133114557Y-98005519D01*
X133180740Y-97999000D01*
X133519260Y-97999000D01*
X133585443Y-98005519D01*
X133585443Y-98005519D01*
G37*
G36*
X92341000Y-99326000D02*
G01*
X90539000Y-99326000D01*
X90539000Y-97524000D01*
X92341000Y-97524000D01*
X92341000Y-99326000D01*
X92341000Y-99326000D01*
G37*
G36*
X115736823Y-96443313D02*
G01*
X115897242Y-96491976D01*
X115959373Y-96525186D01*
X116045078Y-96570996D01*
X116174659Y-96677341D01*
X116281004Y-96806922D01*
X116281005Y-96806924D01*
X116360024Y-96954758D01*
X116408687Y-97115177D01*
X116425117Y-97282000D01*
X116408687Y-97448823D01*
X116360024Y-97609242D01*
X116353739Y-97621000D01*
X116281004Y-97757078D01*
X116174659Y-97886659D01*
X116045078Y-97993004D01*
X116045076Y-97993005D01*
X115897242Y-98072024D01*
X115736823Y-98120687D01*
X115611804Y-98133000D01*
X115528196Y-98133000D01*
X115403177Y-98120687D01*
X115242758Y-98072024D01*
X115094924Y-97993005D01*
X115094922Y-97993004D01*
X114965341Y-97886659D01*
X114858996Y-97757078D01*
X114786261Y-97621000D01*
X114779976Y-97609242D01*
X114731313Y-97448823D01*
X114714883Y-97282000D01*
X114731313Y-97115177D01*
X114779976Y-96954758D01*
X114858995Y-96806924D01*
X114858996Y-96806922D01*
X114965341Y-96677341D01*
X115094922Y-96570996D01*
X115180627Y-96525186D01*
X115242758Y-96491976D01*
X115403177Y-96443313D01*
X115528196Y-96431000D01*
X115611804Y-96431000D01*
X115736823Y-96443313D01*
X115736823Y-96443313D01*
G37*
G36*
X100496823Y-96443313D02*
G01*
X100657242Y-96491976D01*
X100719373Y-96525186D01*
X100805078Y-96570996D01*
X100934659Y-96677341D01*
X101041004Y-96806922D01*
X101041005Y-96806924D01*
X101120024Y-96954758D01*
X101168687Y-97115177D01*
X101185117Y-97282000D01*
X101168687Y-97448823D01*
X101120024Y-97609242D01*
X101113739Y-97621000D01*
X101041004Y-97757078D01*
X100934659Y-97886659D01*
X100805078Y-97993004D01*
X100805076Y-97993005D01*
X100657242Y-98072024D01*
X100496823Y-98120687D01*
X100371804Y-98133000D01*
X100288196Y-98133000D01*
X100163177Y-98120687D01*
X100002758Y-98072024D01*
X99854924Y-97993005D01*
X99854922Y-97993004D01*
X99725341Y-97886659D01*
X99618996Y-97757078D01*
X99546261Y-97621000D01*
X99539976Y-97609242D01*
X99491313Y-97448823D01*
X99474883Y-97282000D01*
X99491313Y-97115177D01*
X99539976Y-96954758D01*
X99618995Y-96806924D01*
X99618996Y-96806922D01*
X99725341Y-96677341D01*
X99854922Y-96570996D01*
X99940627Y-96525186D01*
X100002758Y-96491976D01*
X100163177Y-96443313D01*
X100288196Y-96431000D01*
X100371804Y-96431000D01*
X100496823Y-96443313D01*
X100496823Y-96443313D01*
G37*
G36*
X141184794Y-95440155D02*
G01*
X141291150Y-95461311D01*
X141382139Y-95499000D01*
X141491520Y-95544307D01*
X141671844Y-95664795D01*
X141825205Y-95818156D01*
X141945693Y-95998480D01*
X142028689Y-96198851D01*
X142071000Y-96411560D01*
X142071000Y-96628440D01*
X142028689Y-96841149D01*
X141945693Y-97041520D01*
X141825205Y-97221844D01*
X141671844Y-97375205D01*
X141491520Y-97495693D01*
X141391334Y-97537191D01*
X141291150Y-97578689D01*
X141184795Y-97599844D01*
X141078440Y-97621000D01*
X140861560Y-97621000D01*
X140755206Y-97599845D01*
X140648850Y-97578689D01*
X140548666Y-97537191D01*
X140448480Y-97495693D01*
X140268156Y-97375205D01*
X140114795Y-97221844D01*
X139994307Y-97041520D01*
X139911311Y-96841149D01*
X139869000Y-96628440D01*
X139869000Y-96411560D01*
X139911311Y-96198851D01*
X139994307Y-95998480D01*
X140114795Y-95818156D01*
X140268156Y-95664795D01*
X140448480Y-95544307D01*
X140557861Y-95499000D01*
X140648850Y-95461311D01*
X140755206Y-95440155D01*
X140861560Y-95419000D01*
X141078440Y-95419000D01*
X141184794Y-95440155D01*
X141184794Y-95440155D01*
G37*
G36*
X133585442Y-95505518D02*
G01*
X133651627Y-95512037D01*
X133821466Y-95563557D01*
X133977991Y-95647222D01*
X133999407Y-95664798D01*
X134115186Y-95759814D01*
X134163065Y-95818156D01*
X134227778Y-95897009D01*
X134311443Y-96053534D01*
X134362963Y-96223373D01*
X134380359Y-96400000D01*
X134362963Y-96576627D01*
X134311443Y-96746466D01*
X134311442Y-96746468D01*
X134279128Y-96806922D01*
X134227778Y-96902991D01*
X134198448Y-96938729D01*
X134115186Y-97040186D01*
X134023810Y-97115175D01*
X133977991Y-97152778D01*
X133821466Y-97236443D01*
X133651627Y-97287963D01*
X133585442Y-97294482D01*
X133519260Y-97301000D01*
X133180740Y-97301000D01*
X133114558Y-97294482D01*
X133048373Y-97287963D01*
X132878534Y-97236443D01*
X132722009Y-97152778D01*
X132676190Y-97115175D01*
X132584814Y-97040186D01*
X132501552Y-96938729D01*
X132472222Y-96902991D01*
X132420872Y-96806922D01*
X132388558Y-96746468D01*
X132388557Y-96746466D01*
X132337037Y-96576627D01*
X132319641Y-96400000D01*
X132337037Y-96223373D01*
X132388557Y-96053534D01*
X132472222Y-95897009D01*
X132536935Y-95818156D01*
X132584814Y-95759814D01*
X132700593Y-95664798D01*
X132722009Y-95647222D01*
X132878534Y-95563557D01*
X133048373Y-95512037D01*
X133114558Y-95505518D01*
X133180740Y-95499000D01*
X133519260Y-95499000D01*
X133585442Y-95505518D01*
X133585442Y-95505518D01*
G37*
G36*
X91550443Y-94990519D02*
G01*
X91616627Y-94997037D01*
X91786466Y-95048557D01*
X91942991Y-95132222D01*
X91978729Y-95161552D01*
X92080186Y-95244814D01*
X92163448Y-95346271D01*
X92192778Y-95382009D01*
X92192779Y-95382011D01*
X92255312Y-95499000D01*
X92276443Y-95538534D01*
X92327963Y-95708373D01*
X92345359Y-95885000D01*
X92327963Y-96061627D01*
X92276443Y-96231466D01*
X92192778Y-96387991D01*
X92182922Y-96400000D01*
X92080186Y-96525186D01*
X91978729Y-96608448D01*
X91942991Y-96637778D01*
X91786466Y-96721443D01*
X91616627Y-96772963D01*
X91550442Y-96779482D01*
X91484260Y-96786000D01*
X91395740Y-96786000D01*
X91329558Y-96779482D01*
X91263373Y-96772963D01*
X91093534Y-96721443D01*
X90937009Y-96637778D01*
X90901271Y-96608448D01*
X90799814Y-96525186D01*
X90697078Y-96400000D01*
X90687222Y-96387991D01*
X90603557Y-96231466D01*
X90552037Y-96061627D01*
X90534641Y-95885000D01*
X90552037Y-95708373D01*
X90603557Y-95538534D01*
X90624689Y-95499000D01*
X90687221Y-95382011D01*
X90687222Y-95382009D01*
X90716552Y-95346271D01*
X90799814Y-95244814D01*
X90901271Y-95161552D01*
X90937009Y-95132222D01*
X91093534Y-95048557D01*
X91263373Y-94997037D01*
X91329557Y-94990519D01*
X91395740Y-94984000D01*
X91484260Y-94984000D01*
X91550443Y-94990519D01*
X91550443Y-94990519D01*
G37*
G36*
X115736823Y-93903313D02*
G01*
X115897242Y-93951976D01*
X115959373Y-93985186D01*
X116045078Y-94030996D01*
X116174659Y-94137341D01*
X116281004Y-94266922D01*
X116281005Y-94266924D01*
X116360024Y-94414758D01*
X116408687Y-94575177D01*
X116425117Y-94742000D01*
X116408687Y-94908823D01*
X116408686Y-94908825D01*
X116366299Y-95048558D01*
X116360024Y-95069242D01*
X116353739Y-95081000D01*
X116281004Y-95217078D01*
X116174659Y-95346659D01*
X116045078Y-95453004D01*
X116045076Y-95453005D01*
X115897242Y-95532024D01*
X115736823Y-95580687D01*
X115611804Y-95593000D01*
X115528196Y-95593000D01*
X115403177Y-95580687D01*
X115242758Y-95532024D01*
X115094924Y-95453005D01*
X115094922Y-95453004D01*
X114965341Y-95346659D01*
X114858996Y-95217078D01*
X114786261Y-95081000D01*
X114779976Y-95069242D01*
X114773702Y-95048558D01*
X114731314Y-94908825D01*
X114731313Y-94908823D01*
X114714883Y-94742000D01*
X114731313Y-94575177D01*
X114779976Y-94414758D01*
X114858995Y-94266924D01*
X114858996Y-94266922D01*
X114965341Y-94137341D01*
X115094922Y-94030996D01*
X115180627Y-93985186D01*
X115242758Y-93951976D01*
X115403177Y-93903313D01*
X115528196Y-93891000D01*
X115611804Y-93891000D01*
X115736823Y-93903313D01*
X115736823Y-93903313D01*
G37*
G36*
X100496823Y-93903313D02*
G01*
X100657242Y-93951976D01*
X100719373Y-93985186D01*
X100805078Y-94030996D01*
X100934659Y-94137341D01*
X101041004Y-94266922D01*
X101041005Y-94266924D01*
X101120024Y-94414758D01*
X101168687Y-94575177D01*
X101185117Y-94742000D01*
X101168687Y-94908823D01*
X101168686Y-94908825D01*
X101126299Y-95048558D01*
X101120024Y-95069242D01*
X101113739Y-95081000D01*
X101041004Y-95217078D01*
X100934659Y-95346659D01*
X100805078Y-95453004D01*
X100805076Y-95453005D01*
X100657242Y-95532024D01*
X100496823Y-95580687D01*
X100371804Y-95593000D01*
X100288196Y-95593000D01*
X100163177Y-95580687D01*
X100002758Y-95532024D01*
X99854924Y-95453005D01*
X99854922Y-95453004D01*
X99725341Y-95346659D01*
X99618996Y-95217078D01*
X99546261Y-95081000D01*
X99539976Y-95069242D01*
X99533702Y-95048558D01*
X99491314Y-94908825D01*
X99491313Y-94908823D01*
X99474883Y-94742000D01*
X99491313Y-94575177D01*
X99539976Y-94414758D01*
X99618995Y-94266924D01*
X99618996Y-94266922D01*
X99725341Y-94137341D01*
X99854922Y-94030996D01*
X99940627Y-93985186D01*
X100002758Y-93951976D01*
X100163177Y-93903313D01*
X100288196Y-93891000D01*
X100371804Y-93891000D01*
X100496823Y-93903313D01*
X100496823Y-93903313D01*
G37*
G36*
X141184795Y-92900156D02*
G01*
X141291150Y-92921311D01*
X141491520Y-93004307D01*
X141671844Y-93124795D01*
X141825205Y-93278156D01*
X141945693Y-93458480D01*
X142028689Y-93658851D01*
X142071000Y-93871560D01*
X142071000Y-94088440D01*
X142028689Y-94301149D01*
X141945693Y-94501520D01*
X141825205Y-94681844D01*
X141671844Y-94835205D01*
X141491520Y-94955693D01*
X141391706Y-94997037D01*
X141291150Y-95038689D01*
X141241540Y-95048557D01*
X141078440Y-95081000D01*
X140861560Y-95081000D01*
X140698460Y-95048557D01*
X140648850Y-95038689D01*
X140548294Y-94997037D01*
X140448480Y-94955693D01*
X140268156Y-94835205D01*
X140114795Y-94681844D01*
X139994307Y-94501520D01*
X139911311Y-94301149D01*
X139869000Y-94088440D01*
X139869000Y-93871560D01*
X139911311Y-93658851D01*
X139994307Y-93458480D01*
X140114795Y-93278156D01*
X140268156Y-93124795D01*
X140448480Y-93004307D01*
X140648850Y-92921311D01*
X140755205Y-92900156D01*
X140861560Y-92879000D01*
X141078440Y-92879000D01*
X141184795Y-92900156D01*
X141184795Y-92900156D01*
G37*
G36*
X133573142Y-93004307D02*
G01*
X133651627Y-93012037D01*
X133821466Y-93063557D01*
X133977991Y-93147222D01*
X134003763Y-93168373D01*
X134115186Y-93259814D01*
X134185095Y-93345000D01*
X134227778Y-93397009D01*
X134311443Y-93553534D01*
X134362963Y-93723373D01*
X134380359Y-93900000D01*
X134362963Y-94076627D01*
X134311443Y-94246466D01*
X134227778Y-94402991D01*
X134198448Y-94438729D01*
X134115186Y-94540186D01*
X134013729Y-94623448D01*
X133977991Y-94652778D01*
X133821466Y-94736443D01*
X133651627Y-94787963D01*
X133585442Y-94794482D01*
X133519260Y-94801000D01*
X133180740Y-94801000D01*
X133114557Y-94794481D01*
X133048373Y-94787963D01*
X132878534Y-94736443D01*
X132722009Y-94652778D01*
X132686271Y-94623448D01*
X132584814Y-94540186D01*
X132501552Y-94438729D01*
X132472222Y-94402991D01*
X132388557Y-94246466D01*
X132337037Y-94076627D01*
X132319641Y-93900000D01*
X132337037Y-93723373D01*
X132388557Y-93553534D01*
X132472222Y-93397009D01*
X132514905Y-93345000D01*
X132584814Y-93259814D01*
X132696237Y-93168373D01*
X132722009Y-93147222D01*
X132878534Y-93063557D01*
X133048373Y-93012037D01*
X133126858Y-93004307D01*
X133180740Y-92999000D01*
X133519260Y-92999000D01*
X133573142Y-93004307D01*
X133573142Y-93004307D01*
G37*
G36*
X91550443Y-92450519D02*
G01*
X91616627Y-92457037D01*
X91786466Y-92508557D01*
X91942991Y-92592222D01*
X91978729Y-92621552D01*
X92080186Y-92704814D01*
X92163448Y-92806271D01*
X92192778Y-92842009D01*
X92276443Y-92998534D01*
X92327963Y-93168373D01*
X92345359Y-93345000D01*
X92327963Y-93521627D01*
X92276443Y-93691466D01*
X92192778Y-93847991D01*
X92173435Y-93871560D01*
X92080186Y-93985186D01*
X91978729Y-94068448D01*
X91942991Y-94097778D01*
X91786466Y-94181443D01*
X91616627Y-94232963D01*
X91550443Y-94239481D01*
X91484260Y-94246000D01*
X91395740Y-94246000D01*
X91329557Y-94239481D01*
X91263373Y-94232963D01*
X91093534Y-94181443D01*
X90937009Y-94097778D01*
X90901271Y-94068448D01*
X90799814Y-93985186D01*
X90706565Y-93871560D01*
X90687222Y-93847991D01*
X90603557Y-93691466D01*
X90552037Y-93521627D01*
X90534641Y-93345000D01*
X90552037Y-93168373D01*
X90603557Y-92998534D01*
X90687222Y-92842009D01*
X90716552Y-92806271D01*
X90799814Y-92704814D01*
X90901271Y-92621552D01*
X90937009Y-92592222D01*
X91093534Y-92508557D01*
X91263373Y-92457037D01*
X91329557Y-92450519D01*
X91395740Y-92444000D01*
X91484260Y-92444000D01*
X91550443Y-92450519D01*
X91550443Y-92450519D01*
G37*
G36*
X100496823Y-91363313D02*
G01*
X100657242Y-91411976D01*
X100789906Y-91482886D01*
X100805078Y-91490996D01*
X100934659Y-91597341D01*
X101041004Y-91726922D01*
X101041005Y-91726924D01*
X101120024Y-91874758D01*
X101168687Y-92035177D01*
X101185117Y-92202000D01*
X101168687Y-92368823D01*
X101168686Y-92368825D01*
X101126299Y-92508558D01*
X101120024Y-92529242D01*
X101113739Y-92541000D01*
X101041004Y-92677078D01*
X100934659Y-92806659D01*
X100805078Y-92913004D01*
X100805076Y-92913005D01*
X100657242Y-92992024D01*
X100496823Y-93040687D01*
X100371804Y-93053000D01*
X100288196Y-93053000D01*
X100163177Y-93040687D01*
X100002758Y-92992024D01*
X99854924Y-92913005D01*
X99854922Y-92913004D01*
X99725341Y-92806659D01*
X99618996Y-92677078D01*
X99546261Y-92541000D01*
X99539976Y-92529242D01*
X99533702Y-92508558D01*
X99491314Y-92368825D01*
X99491313Y-92368823D01*
X99474883Y-92202000D01*
X99491313Y-92035177D01*
X99539976Y-91874758D01*
X99618995Y-91726924D01*
X99618996Y-91726922D01*
X99725341Y-91597341D01*
X99854922Y-91490996D01*
X99870094Y-91482886D01*
X100002758Y-91411976D01*
X100163177Y-91363313D01*
X100288196Y-91351000D01*
X100371804Y-91351000D01*
X100496823Y-91363313D01*
X100496823Y-91363313D01*
G37*
G36*
X115736823Y-91363313D02*
G01*
X115897242Y-91411976D01*
X116029906Y-91482886D01*
X116045078Y-91490996D01*
X116174659Y-91597341D01*
X116281004Y-91726922D01*
X116281005Y-91726924D01*
X116360024Y-91874758D01*
X116408687Y-92035177D01*
X116425117Y-92202000D01*
X116408687Y-92368823D01*
X116408686Y-92368825D01*
X116366299Y-92508558D01*
X116360024Y-92529242D01*
X116353739Y-92541000D01*
X116281004Y-92677078D01*
X116174659Y-92806659D01*
X116045078Y-92913004D01*
X116045076Y-92913005D01*
X115897242Y-92992024D01*
X115736823Y-93040687D01*
X115611804Y-93053000D01*
X115528196Y-93053000D01*
X115403177Y-93040687D01*
X115242758Y-92992024D01*
X115094924Y-92913005D01*
X115094922Y-92913004D01*
X114965341Y-92806659D01*
X114858996Y-92677078D01*
X114786261Y-92541000D01*
X114779976Y-92529242D01*
X114773702Y-92508558D01*
X114731314Y-92368825D01*
X114731313Y-92368823D01*
X114714883Y-92202000D01*
X114731313Y-92035177D01*
X114779976Y-91874758D01*
X114858995Y-91726924D01*
X114858996Y-91726922D01*
X114965341Y-91597341D01*
X115094922Y-91490996D01*
X115110094Y-91482886D01*
X115242758Y-91411976D01*
X115403177Y-91363313D01*
X115528196Y-91351000D01*
X115611804Y-91351000D01*
X115736823Y-91363313D01*
X115736823Y-91363313D01*
G37*
G36*
X141184795Y-90360156D02*
G01*
X141291150Y-90381311D01*
X141491520Y-90464307D01*
X141671844Y-90584795D01*
X141825205Y-90738156D01*
X141945693Y-90918480D01*
X142028689Y-91118851D01*
X142071000Y-91331560D01*
X142071000Y-91548440D01*
X142028689Y-91761149D01*
X141945693Y-91961520D01*
X141825205Y-92141844D01*
X141671844Y-92295205D01*
X141491520Y-92415693D01*
X141391706Y-92457037D01*
X141291150Y-92498689D01*
X141241540Y-92508557D01*
X141078440Y-92541000D01*
X140861560Y-92541000D01*
X140698460Y-92508557D01*
X140648850Y-92498689D01*
X140548294Y-92457037D01*
X140448480Y-92415693D01*
X140268156Y-92295205D01*
X140114795Y-92141844D01*
X139994307Y-91961520D01*
X139911311Y-91761149D01*
X139869000Y-91548440D01*
X139869000Y-91331560D01*
X139911311Y-91118851D01*
X139994307Y-90918480D01*
X140114795Y-90738156D01*
X140268156Y-90584795D01*
X140448480Y-90464307D01*
X140548666Y-90422809D01*
X140648850Y-90381311D01*
X140755205Y-90360156D01*
X140861560Y-90339000D01*
X141078440Y-90339000D01*
X141184795Y-90360156D01*
X141184795Y-90360156D01*
G37*
G36*
X133585442Y-90505518D02*
G01*
X133651627Y-90512037D01*
X133821466Y-90563557D01*
X133977991Y-90647222D01*
X134013729Y-90676552D01*
X134115186Y-90759814D01*
X134198448Y-90861271D01*
X134227778Y-90897009D01*
X134311443Y-91053534D01*
X134362963Y-91223373D01*
X134380359Y-91400000D01*
X134362963Y-91576627D01*
X134311443Y-91746466D01*
X134227778Y-91902991D01*
X134198448Y-91938729D01*
X134115186Y-92040186D01*
X134013729Y-92123448D01*
X133977991Y-92152778D01*
X133821466Y-92236443D01*
X133651627Y-92287963D01*
X133585442Y-92294482D01*
X133519260Y-92301000D01*
X133180740Y-92301000D01*
X133114558Y-92294482D01*
X133048373Y-92287963D01*
X132878534Y-92236443D01*
X132722009Y-92152778D01*
X132686271Y-92123448D01*
X132584814Y-92040186D01*
X132501552Y-91938729D01*
X132472222Y-91902991D01*
X132388557Y-91746466D01*
X132337037Y-91576627D01*
X132319641Y-91400000D01*
X132337037Y-91223373D01*
X132388557Y-91053534D01*
X132472222Y-90897009D01*
X132501552Y-90861271D01*
X132584814Y-90759814D01*
X132686271Y-90676552D01*
X132722009Y-90647222D01*
X132878534Y-90563557D01*
X133048373Y-90512037D01*
X133114558Y-90505518D01*
X133180740Y-90499000D01*
X133519260Y-90499000D01*
X133585442Y-90505518D01*
X133585442Y-90505518D01*
G37*
G36*
X115736823Y-88823313D02*
G01*
X115897242Y-88871976D01*
X116029906Y-88942886D01*
X116045078Y-88950996D01*
X116174659Y-89057341D01*
X116281004Y-89186922D01*
X116281005Y-89186924D01*
X116360024Y-89334758D01*
X116408687Y-89495177D01*
X116425117Y-89662000D01*
X116408687Y-89828823D01*
X116360024Y-89989242D01*
X116353739Y-90001000D01*
X116281004Y-90137078D01*
X116174659Y-90266659D01*
X116045078Y-90373004D01*
X116045076Y-90373005D01*
X115897242Y-90452024D01*
X115736823Y-90500687D01*
X115611804Y-90513000D01*
X115528196Y-90513000D01*
X115403177Y-90500687D01*
X115242758Y-90452024D01*
X115094924Y-90373005D01*
X115094922Y-90373004D01*
X114965341Y-90266659D01*
X114858996Y-90137078D01*
X114786261Y-90001000D01*
X114779976Y-89989242D01*
X114731313Y-89828823D01*
X114714883Y-89662000D01*
X114731313Y-89495177D01*
X114779976Y-89334758D01*
X114858995Y-89186924D01*
X114858996Y-89186922D01*
X114965341Y-89057341D01*
X115094922Y-88950996D01*
X115110094Y-88942886D01*
X115242758Y-88871976D01*
X115403177Y-88823313D01*
X115528196Y-88811000D01*
X115611804Y-88811000D01*
X115736823Y-88823313D01*
X115736823Y-88823313D01*
G37*
G36*
X100496823Y-88823313D02*
G01*
X100657242Y-88871976D01*
X100789906Y-88942886D01*
X100805078Y-88950996D01*
X100934659Y-89057341D01*
X101041004Y-89186922D01*
X101041005Y-89186924D01*
X101120024Y-89334758D01*
X101168687Y-89495177D01*
X101185117Y-89662000D01*
X101168687Y-89828823D01*
X101120024Y-89989242D01*
X101113739Y-90001000D01*
X101041004Y-90137078D01*
X100934659Y-90266659D01*
X100805078Y-90373004D01*
X100805076Y-90373005D01*
X100657242Y-90452024D01*
X100496823Y-90500687D01*
X100371804Y-90513000D01*
X100288196Y-90513000D01*
X100163177Y-90500687D01*
X100002758Y-90452024D01*
X99854924Y-90373005D01*
X99854922Y-90373004D01*
X99725341Y-90266659D01*
X99618996Y-90137078D01*
X99546261Y-90001000D01*
X99539976Y-89989242D01*
X99491313Y-89828823D01*
X99474883Y-89662000D01*
X99491313Y-89495177D01*
X99539976Y-89334758D01*
X99618995Y-89186924D01*
X99618996Y-89186922D01*
X99725341Y-89057341D01*
X99854922Y-88950996D01*
X99870094Y-88942886D01*
X100002758Y-88871976D01*
X100163177Y-88823313D01*
X100288196Y-88811000D01*
X100371804Y-88811000D01*
X100496823Y-88823313D01*
X100496823Y-88823313D01*
G37*
G36*
X142071000Y-90001000D02*
G01*
X139869000Y-90001000D01*
X139869000Y-87799000D01*
X142071000Y-87799000D01*
X142071000Y-90001000D01*
X142071000Y-90001000D01*
G37*
G36*
X134233600Y-88002989D02*
G01*
X134266652Y-88013015D01*
X134297103Y-88029292D01*
X134323799Y-88051201D01*
X134345708Y-88077897D01*
X134361985Y-88108348D01*
X134372011Y-88141400D01*
X134376000Y-88181903D01*
X134376000Y-89618097D01*
X134372011Y-89658600D01*
X134361985Y-89691652D01*
X134345708Y-89722103D01*
X134323799Y-89748799D01*
X134297103Y-89770708D01*
X134266652Y-89786985D01*
X134233600Y-89797011D01*
X134193097Y-89801000D01*
X132506903Y-89801000D01*
X132466400Y-89797011D01*
X132433348Y-89786985D01*
X132402897Y-89770708D01*
X132376201Y-89748799D01*
X132354292Y-89722103D01*
X132338015Y-89691652D01*
X132327989Y-89658600D01*
X132324000Y-89618097D01*
X132324000Y-88181903D01*
X132327989Y-88141400D01*
X132338015Y-88108348D01*
X132354292Y-88077897D01*
X132376201Y-88051201D01*
X132402897Y-88029292D01*
X132433348Y-88013015D01*
X132466400Y-88002989D01*
X132506903Y-87999000D01*
X134193097Y-87999000D01*
X134233600Y-88002989D01*
X134233600Y-88002989D01*
G37*
G36*
X89701823Y-86791313D02*
G01*
X89862242Y-86839976D01*
X89994906Y-86910886D01*
X90010078Y-86918996D01*
X90139659Y-87025341D01*
X90246004Y-87154922D01*
X90246005Y-87154924D01*
X90325024Y-87302758D01*
X90373687Y-87463177D01*
X90390117Y-87630000D01*
X90373687Y-87796823D01*
X90325024Y-87957242D01*
X90286512Y-88029292D01*
X90246004Y-88105078D01*
X90139659Y-88234659D01*
X90010078Y-88341004D01*
X90010076Y-88341005D01*
X89862242Y-88420024D01*
X89701823Y-88468687D01*
X89576804Y-88481000D01*
X89493196Y-88481000D01*
X89368177Y-88468687D01*
X89207758Y-88420024D01*
X89059924Y-88341005D01*
X89059922Y-88341004D01*
X88930341Y-88234659D01*
X88823996Y-88105078D01*
X88783488Y-88029292D01*
X88744976Y-87957242D01*
X88696313Y-87796823D01*
X88679883Y-87630000D01*
X88696313Y-87463177D01*
X88744976Y-87302758D01*
X88823995Y-87154924D01*
X88823996Y-87154922D01*
X88930341Y-87025341D01*
X89059922Y-86918996D01*
X89075094Y-86910886D01*
X89207758Y-86839976D01*
X89368177Y-86791313D01*
X89493196Y-86779000D01*
X89576804Y-86779000D01*
X89701823Y-86791313D01*
X89701823Y-86791313D01*
G37*
G36*
X82081823Y-86791313D02*
G01*
X82242242Y-86839976D01*
X82374906Y-86910886D01*
X82390078Y-86918996D01*
X82519659Y-87025341D01*
X82626004Y-87154922D01*
X82626005Y-87154924D01*
X82705024Y-87302758D01*
X82753687Y-87463177D01*
X82770117Y-87630000D01*
X82753687Y-87796823D01*
X82705024Y-87957242D01*
X82666512Y-88029292D01*
X82626004Y-88105078D01*
X82519659Y-88234659D01*
X82390078Y-88341004D01*
X82390076Y-88341005D01*
X82242242Y-88420024D01*
X82081823Y-88468687D01*
X81956804Y-88481000D01*
X81873196Y-88481000D01*
X81748177Y-88468687D01*
X81587758Y-88420024D01*
X81439924Y-88341005D01*
X81439922Y-88341004D01*
X81310341Y-88234659D01*
X81203996Y-88105078D01*
X81163488Y-88029292D01*
X81124976Y-87957242D01*
X81076313Y-87796823D01*
X81059883Y-87630000D01*
X81076313Y-87463177D01*
X81124976Y-87302758D01*
X81203995Y-87154924D01*
X81203996Y-87154922D01*
X81310341Y-87025341D01*
X81439922Y-86918996D01*
X81455094Y-86910886D01*
X81587758Y-86839976D01*
X81748177Y-86791313D01*
X81873196Y-86779000D01*
X81956804Y-86779000D01*
X82081823Y-86791313D01*
X82081823Y-86791313D01*
G37*
G36*
X100496823Y-86283313D02*
G01*
X100657242Y-86331976D01*
X100789906Y-86402886D01*
X100805078Y-86410996D01*
X100934659Y-86517341D01*
X101041004Y-86646922D01*
X101041005Y-86646924D01*
X101120024Y-86794758D01*
X101168687Y-86955177D01*
X101185117Y-87122000D01*
X101168687Y-87288823D01*
X101120024Y-87449242D01*
X101049114Y-87581906D01*
X101041004Y-87597078D01*
X100934659Y-87726659D01*
X100805078Y-87833004D01*
X100805076Y-87833005D01*
X100657242Y-87912024D01*
X100496823Y-87960687D01*
X100371804Y-87973000D01*
X100288196Y-87973000D01*
X100163177Y-87960687D01*
X100002758Y-87912024D01*
X99854924Y-87833005D01*
X99854922Y-87833004D01*
X99725341Y-87726659D01*
X99618996Y-87597078D01*
X99610886Y-87581906D01*
X99539976Y-87449242D01*
X99491313Y-87288823D01*
X99474883Y-87122000D01*
X99491313Y-86955177D01*
X99539976Y-86794758D01*
X99618995Y-86646924D01*
X99618996Y-86646922D01*
X99725341Y-86517341D01*
X99854922Y-86410996D01*
X99870094Y-86402886D01*
X100002758Y-86331976D01*
X100163177Y-86283313D01*
X100288196Y-86271000D01*
X100371804Y-86271000D01*
X100496823Y-86283313D01*
X100496823Y-86283313D01*
G37*
G36*
X115736823Y-86283313D02*
G01*
X115897242Y-86331976D01*
X116029906Y-86402886D01*
X116045078Y-86410996D01*
X116174659Y-86517341D01*
X116281004Y-86646922D01*
X116281005Y-86646924D01*
X116360024Y-86794758D01*
X116408687Y-86955177D01*
X116425117Y-87122000D01*
X116408687Y-87288823D01*
X116360024Y-87449242D01*
X116289114Y-87581906D01*
X116281004Y-87597078D01*
X116174659Y-87726659D01*
X116045078Y-87833004D01*
X116045076Y-87833005D01*
X115897242Y-87912024D01*
X115736823Y-87960687D01*
X115611804Y-87973000D01*
X115528196Y-87973000D01*
X115403177Y-87960687D01*
X115242758Y-87912024D01*
X115094924Y-87833005D01*
X115094922Y-87833004D01*
X114965341Y-87726659D01*
X114858996Y-87597078D01*
X114850886Y-87581906D01*
X114779976Y-87449242D01*
X114731313Y-87288823D01*
X114714883Y-87122000D01*
X114731313Y-86955177D01*
X114779976Y-86794758D01*
X114858995Y-86646924D01*
X114858996Y-86646922D01*
X114965341Y-86517341D01*
X115094922Y-86410996D01*
X115110094Y-86402886D01*
X115242758Y-86331976D01*
X115403177Y-86283313D01*
X115528196Y-86271000D01*
X115611804Y-86271000D01*
X115736823Y-86283313D01*
X115736823Y-86283313D01*
G37*
G36*
X82081823Y-84251313D02*
G01*
X82242242Y-84299976D01*
X82374906Y-84370886D01*
X82390078Y-84378996D01*
X82519659Y-84485341D01*
X82626004Y-84614922D01*
X82626005Y-84614924D01*
X82705024Y-84762758D01*
X82753687Y-84923177D01*
X82770117Y-85090000D01*
X82753687Y-85256823D01*
X82705024Y-85417242D01*
X82696601Y-85433000D01*
X82626004Y-85565078D01*
X82519659Y-85694659D01*
X82390078Y-85801004D01*
X82390076Y-85801005D01*
X82242242Y-85880024D01*
X82081823Y-85928687D01*
X81956804Y-85941000D01*
X81873196Y-85941000D01*
X81748177Y-85928687D01*
X81587758Y-85880024D01*
X81439924Y-85801005D01*
X81439922Y-85801004D01*
X81310341Y-85694659D01*
X81203996Y-85565078D01*
X81133399Y-85433000D01*
X81124976Y-85417242D01*
X81076313Y-85256823D01*
X81059883Y-85090000D01*
X81076313Y-84923177D01*
X81124976Y-84762758D01*
X81203995Y-84614924D01*
X81203996Y-84614922D01*
X81310341Y-84485341D01*
X81439922Y-84378996D01*
X81455094Y-84370886D01*
X81587758Y-84299976D01*
X81748177Y-84251313D01*
X81873196Y-84239000D01*
X81956804Y-84239000D01*
X82081823Y-84251313D01*
X82081823Y-84251313D01*
G37*
G36*
X89701823Y-84251313D02*
G01*
X89862242Y-84299976D01*
X89994906Y-84370886D01*
X90010078Y-84378996D01*
X90139659Y-84485341D01*
X90246004Y-84614922D01*
X90246005Y-84614924D01*
X90325024Y-84762758D01*
X90373687Y-84923177D01*
X90390117Y-85090000D01*
X90373687Y-85256823D01*
X90325024Y-85417242D01*
X90316601Y-85433000D01*
X90246004Y-85565078D01*
X90139659Y-85694659D01*
X90010078Y-85801004D01*
X90010076Y-85801005D01*
X89862242Y-85880024D01*
X89701823Y-85928687D01*
X89576804Y-85941000D01*
X89493196Y-85941000D01*
X89368177Y-85928687D01*
X89207758Y-85880024D01*
X89059924Y-85801005D01*
X89059922Y-85801004D01*
X88930341Y-85694659D01*
X88823996Y-85565078D01*
X88753399Y-85433000D01*
X88744976Y-85417242D01*
X88696313Y-85256823D01*
X88679883Y-85090000D01*
X88696313Y-84923177D01*
X88744976Y-84762758D01*
X88823995Y-84614924D01*
X88823996Y-84614922D01*
X88930341Y-84485341D01*
X89059922Y-84378996D01*
X89075094Y-84370886D01*
X89207758Y-84299976D01*
X89368177Y-84251313D01*
X89493196Y-84239000D01*
X89576804Y-84239000D01*
X89701823Y-84251313D01*
X89701823Y-84251313D01*
G37*
G36*
X115736823Y-83743313D02*
G01*
X115897242Y-83791976D01*
X116029906Y-83862886D01*
X116045078Y-83870996D01*
X116174659Y-83977341D01*
X116281004Y-84106922D01*
X116281005Y-84106924D01*
X116360024Y-84254758D01*
X116408687Y-84415177D01*
X116425117Y-84582000D01*
X116408687Y-84748823D01*
X116360024Y-84909242D01*
X116289114Y-85041906D01*
X116281004Y-85057078D01*
X116174659Y-85186659D01*
X116045078Y-85293004D01*
X116045076Y-85293005D01*
X115897242Y-85372024D01*
X115736823Y-85420687D01*
X115611804Y-85433000D01*
X115528196Y-85433000D01*
X115403177Y-85420687D01*
X115242758Y-85372024D01*
X115094924Y-85293005D01*
X115094922Y-85293004D01*
X114965341Y-85186659D01*
X114858996Y-85057078D01*
X114850886Y-85041906D01*
X114779976Y-84909242D01*
X114731313Y-84748823D01*
X114714883Y-84582000D01*
X114731313Y-84415177D01*
X114779976Y-84254758D01*
X114858995Y-84106924D01*
X114858996Y-84106922D01*
X114965341Y-83977341D01*
X115094922Y-83870996D01*
X115110094Y-83862886D01*
X115242758Y-83791976D01*
X115403177Y-83743313D01*
X115528196Y-83731000D01*
X115611804Y-83731000D01*
X115736823Y-83743313D01*
X115736823Y-83743313D01*
G37*
G36*
X100496823Y-83743313D02*
G01*
X100657242Y-83791976D01*
X100789906Y-83862886D01*
X100805078Y-83870996D01*
X100934659Y-83977341D01*
X101041004Y-84106922D01*
X101041005Y-84106924D01*
X101120024Y-84254758D01*
X101168687Y-84415177D01*
X101185117Y-84582000D01*
X101168687Y-84748823D01*
X101120024Y-84909242D01*
X101049114Y-85041906D01*
X101041004Y-85057078D01*
X100934659Y-85186659D01*
X100805078Y-85293004D01*
X100805076Y-85293005D01*
X100657242Y-85372024D01*
X100496823Y-85420687D01*
X100371804Y-85433000D01*
X100288196Y-85433000D01*
X100163177Y-85420687D01*
X100002758Y-85372024D01*
X99854924Y-85293005D01*
X99854922Y-85293004D01*
X99725341Y-85186659D01*
X99618996Y-85057078D01*
X99610886Y-85041906D01*
X99539976Y-84909242D01*
X99491313Y-84748823D01*
X99474883Y-84582000D01*
X99491313Y-84415177D01*
X99539976Y-84254758D01*
X99618995Y-84106924D01*
X99618996Y-84106922D01*
X99725341Y-83977341D01*
X99854922Y-83870996D01*
X99870094Y-83862886D01*
X100002758Y-83791976D01*
X100163177Y-83743313D01*
X100288196Y-83731000D01*
X100371804Y-83731000D01*
X100496823Y-83743313D01*
X100496823Y-83743313D01*
G37*
G36*
X141184794Y-81470155D02*
G01*
X141291150Y-81491311D01*
X141382139Y-81529000D01*
X141491520Y-81574307D01*
X141671844Y-81694795D01*
X141825205Y-81848156D01*
X141945693Y-82028480D01*
X141968496Y-82083532D01*
X142026167Y-82222761D01*
X142028689Y-82228851D01*
X142068701Y-82430000D01*
X142071000Y-82441561D01*
X142071000Y-82658439D01*
X142028689Y-82871150D01*
X142019638Y-82893000D01*
X141945693Y-83071520D01*
X141825205Y-83251844D01*
X141671844Y-83405205D01*
X141491520Y-83525693D01*
X141391334Y-83567191D01*
X141291150Y-83608689D01*
X141184794Y-83629845D01*
X141078440Y-83651000D01*
X140861560Y-83651000D01*
X140755205Y-83629844D01*
X140648850Y-83608689D01*
X140448480Y-83525693D01*
X140268156Y-83405205D01*
X140114795Y-83251844D01*
X139994307Y-83071520D01*
X139920362Y-82893000D01*
X139911311Y-82871150D01*
X139869000Y-82658439D01*
X139869000Y-82441561D01*
X139871300Y-82430000D01*
X139911311Y-82228851D01*
X139913834Y-82222761D01*
X139971504Y-82083532D01*
X139994307Y-82028480D01*
X140114795Y-81848156D01*
X140268156Y-81694795D01*
X140448480Y-81574307D01*
X140557861Y-81529000D01*
X140648850Y-81491311D01*
X140755206Y-81470155D01*
X140861560Y-81449000D01*
X141078440Y-81449000D01*
X141184794Y-81470155D01*
X141184794Y-81470155D01*
G37*
G36*
X82081823Y-81711313D02*
G01*
X82242242Y-81759976D01*
X82374906Y-81830886D01*
X82390078Y-81838996D01*
X82519659Y-81945341D01*
X82626004Y-82074922D01*
X82626005Y-82074924D01*
X82705024Y-82222758D01*
X82753687Y-82383177D01*
X82770117Y-82550000D01*
X82753687Y-82716823D01*
X82705024Y-82877242D01*
X82634114Y-83009906D01*
X82626004Y-83025078D01*
X82519659Y-83154659D01*
X82390078Y-83261004D01*
X82390076Y-83261005D01*
X82242242Y-83340024D01*
X82081823Y-83388687D01*
X81956804Y-83401000D01*
X81873196Y-83401000D01*
X81748177Y-83388687D01*
X81587758Y-83340024D01*
X81439924Y-83261005D01*
X81439922Y-83261004D01*
X81310341Y-83154659D01*
X81203996Y-83025078D01*
X81195886Y-83009906D01*
X81124976Y-82877242D01*
X81076313Y-82716823D01*
X81059883Y-82550000D01*
X81076313Y-82383177D01*
X81124976Y-82222758D01*
X81203995Y-82074924D01*
X81203996Y-82074922D01*
X81310341Y-81945341D01*
X81439922Y-81838996D01*
X81455094Y-81830886D01*
X81587758Y-81759976D01*
X81748177Y-81711313D01*
X81873196Y-81699000D01*
X81956804Y-81699000D01*
X82081823Y-81711313D01*
X82081823Y-81711313D01*
G37*
G36*
X89701823Y-81711313D02*
G01*
X89862242Y-81759976D01*
X89994906Y-81830886D01*
X90010078Y-81838996D01*
X90139659Y-81945341D01*
X90246004Y-82074922D01*
X90246005Y-82074924D01*
X90325024Y-82222758D01*
X90373687Y-82383177D01*
X90390117Y-82550000D01*
X90373687Y-82716823D01*
X90325024Y-82877242D01*
X90254114Y-83009906D01*
X90246004Y-83025078D01*
X90139659Y-83154659D01*
X90010078Y-83261004D01*
X90010076Y-83261005D01*
X89862242Y-83340024D01*
X89701823Y-83388687D01*
X89576804Y-83401000D01*
X89493196Y-83401000D01*
X89368177Y-83388687D01*
X89207758Y-83340024D01*
X89059924Y-83261005D01*
X89059922Y-83261004D01*
X88930341Y-83154659D01*
X88823996Y-83025078D01*
X88815886Y-83009906D01*
X88744976Y-82877242D01*
X88696313Y-82716823D01*
X88679883Y-82550000D01*
X88696313Y-82383177D01*
X88744976Y-82222758D01*
X88823995Y-82074924D01*
X88823996Y-82074922D01*
X88930341Y-81945341D01*
X89059922Y-81838996D01*
X89075094Y-81830886D01*
X89207758Y-81759976D01*
X89368177Y-81711313D01*
X89493196Y-81699000D01*
X89576804Y-81699000D01*
X89701823Y-81711313D01*
X89701823Y-81711313D01*
G37*
G36*
X133585442Y-81535518D02*
G01*
X133651627Y-81542037D01*
X133821466Y-81593557D01*
X133977991Y-81677222D01*
X133999407Y-81694798D01*
X134115186Y-81789814D01*
X134198448Y-81891271D01*
X134227778Y-81927009D01*
X134311443Y-82083534D01*
X134362963Y-82253373D01*
X134380359Y-82430000D01*
X134362963Y-82606627D01*
X134311443Y-82776466D01*
X134227778Y-82932991D01*
X134198448Y-82968729D01*
X134115186Y-83070186D01*
X134013729Y-83153448D01*
X133977991Y-83182778D01*
X133821466Y-83266443D01*
X133651627Y-83317963D01*
X133585443Y-83324481D01*
X133519260Y-83331000D01*
X133180740Y-83331000D01*
X133114557Y-83324481D01*
X133048373Y-83317963D01*
X132878534Y-83266443D01*
X132722009Y-83182778D01*
X132686271Y-83153448D01*
X132584814Y-83070186D01*
X132501552Y-82968729D01*
X132472222Y-82932991D01*
X132388557Y-82776466D01*
X132337037Y-82606627D01*
X132319641Y-82430000D01*
X132337037Y-82253373D01*
X132388557Y-82083534D01*
X132472222Y-81927009D01*
X132501552Y-81891271D01*
X132584814Y-81789814D01*
X132700593Y-81694798D01*
X132722009Y-81677222D01*
X132878534Y-81593557D01*
X133048373Y-81542037D01*
X133114558Y-81535518D01*
X133180740Y-81529000D01*
X133519260Y-81529000D01*
X133585442Y-81535518D01*
X133585442Y-81535518D01*
G37*
G36*
X115736823Y-81203313D02*
G01*
X115897242Y-81251976D01*
X116029906Y-81322886D01*
X116045078Y-81330996D01*
X116174659Y-81437341D01*
X116281004Y-81566922D01*
X116281005Y-81566924D01*
X116360024Y-81714758D01*
X116408687Y-81875177D01*
X116425117Y-82042000D01*
X116408687Y-82208823D01*
X116360024Y-82369242D01*
X116289114Y-82501906D01*
X116281004Y-82517078D01*
X116174659Y-82646659D01*
X116045078Y-82753004D01*
X116045076Y-82753005D01*
X115897242Y-82832024D01*
X115736823Y-82880687D01*
X115611804Y-82893000D01*
X115528196Y-82893000D01*
X115403177Y-82880687D01*
X115242758Y-82832024D01*
X115094924Y-82753005D01*
X115094922Y-82753004D01*
X114965341Y-82646659D01*
X114858996Y-82517078D01*
X114850886Y-82501906D01*
X114779976Y-82369242D01*
X114731313Y-82208823D01*
X114714883Y-82042000D01*
X114731313Y-81875177D01*
X114779976Y-81714758D01*
X114858995Y-81566924D01*
X114858996Y-81566922D01*
X114965341Y-81437341D01*
X115094922Y-81330996D01*
X115110094Y-81322886D01*
X115242758Y-81251976D01*
X115403177Y-81203313D01*
X115528196Y-81191000D01*
X115611804Y-81191000D01*
X115736823Y-81203313D01*
X115736823Y-81203313D01*
G37*
G36*
X100496823Y-81203313D02*
G01*
X100657242Y-81251976D01*
X100789906Y-81322886D01*
X100805078Y-81330996D01*
X100934659Y-81437341D01*
X101041004Y-81566922D01*
X101041005Y-81566924D01*
X101120024Y-81714758D01*
X101168687Y-81875177D01*
X101185117Y-82042000D01*
X101168687Y-82208823D01*
X101120024Y-82369242D01*
X101049114Y-82501906D01*
X101041004Y-82517078D01*
X100934659Y-82646659D01*
X100805078Y-82753004D01*
X100805076Y-82753005D01*
X100657242Y-82832024D01*
X100496823Y-82880687D01*
X100371804Y-82893000D01*
X100288196Y-82893000D01*
X100163177Y-82880687D01*
X100002758Y-82832024D01*
X99854924Y-82753005D01*
X99854922Y-82753004D01*
X99725341Y-82646659D01*
X99618996Y-82517078D01*
X99610886Y-82501906D01*
X99539976Y-82369242D01*
X99491313Y-82208823D01*
X99474883Y-82042000D01*
X99491313Y-81875177D01*
X99539976Y-81714758D01*
X99618995Y-81566924D01*
X99618996Y-81566922D01*
X99725341Y-81437341D01*
X99854922Y-81330996D01*
X99870094Y-81322886D01*
X100002758Y-81251976D01*
X100163177Y-81203313D01*
X100288196Y-81191000D01*
X100371804Y-81191000D01*
X100496823Y-81203313D01*
X100496823Y-81203313D01*
G37*
G36*
X141184795Y-78930156D02*
G01*
X141291150Y-78951311D01*
X141491520Y-79034307D01*
X141671844Y-79154795D01*
X141825205Y-79308156D01*
X141945693Y-79488480D01*
X141985065Y-79583532D01*
X142028689Y-79688850D01*
X142071000Y-79901561D01*
X142071000Y-80118439D01*
X142028689Y-80331150D01*
X142019638Y-80353000D01*
X141945693Y-80531520D01*
X141825205Y-80711844D01*
X141671844Y-80865205D01*
X141491520Y-80985693D01*
X141291150Y-81068689D01*
X141184795Y-81089844D01*
X141078440Y-81111000D01*
X140861560Y-81111000D01*
X140755205Y-81089844D01*
X140648850Y-81068689D01*
X140548666Y-81027191D01*
X140448480Y-80985693D01*
X140268156Y-80865205D01*
X140114795Y-80711844D01*
X139994307Y-80531520D01*
X139920362Y-80353000D01*
X139911311Y-80331150D01*
X139869000Y-80118439D01*
X139869000Y-79901561D01*
X139911311Y-79688850D01*
X139954935Y-79583532D01*
X139994307Y-79488480D01*
X140114795Y-79308156D01*
X140268156Y-79154795D01*
X140448480Y-79034307D01*
X140548666Y-78992809D01*
X140648850Y-78951311D01*
X140755205Y-78930156D01*
X140861560Y-78909000D01*
X141078440Y-78909000D01*
X141184795Y-78930156D01*
X141184795Y-78930156D01*
G37*
G36*
X89701823Y-79171313D02*
G01*
X89862242Y-79219976D01*
X89992900Y-79289814D01*
X90010078Y-79298996D01*
X90139659Y-79405341D01*
X90246004Y-79534922D01*
X90246005Y-79534924D01*
X90325024Y-79682758D01*
X90373687Y-79843177D01*
X90390117Y-80010000D01*
X90373687Y-80176823D01*
X90325024Y-80337242D01*
X90316601Y-80353000D01*
X90246004Y-80485078D01*
X90139659Y-80614659D01*
X90010078Y-80721004D01*
X90010076Y-80721005D01*
X89862242Y-80800024D01*
X89701823Y-80848687D01*
X89576804Y-80861000D01*
X89493196Y-80861000D01*
X89368177Y-80848687D01*
X89207758Y-80800024D01*
X89059924Y-80721005D01*
X89059922Y-80721004D01*
X88930341Y-80614659D01*
X88823996Y-80485078D01*
X88753399Y-80353000D01*
X88744976Y-80337242D01*
X88696313Y-80176823D01*
X88679883Y-80010000D01*
X88696313Y-79843177D01*
X88744976Y-79682758D01*
X88823995Y-79534924D01*
X88823996Y-79534922D01*
X88930341Y-79405341D01*
X89059922Y-79298996D01*
X89077100Y-79289814D01*
X89207758Y-79219976D01*
X89368177Y-79171313D01*
X89493196Y-79159000D01*
X89576804Y-79159000D01*
X89701823Y-79171313D01*
X89701823Y-79171313D01*
G37*
G36*
X82766000Y-80861000D02*
G01*
X81064000Y-80861000D01*
X81064000Y-79159000D01*
X82766000Y-79159000D01*
X82766000Y-80861000D01*
X82766000Y-80861000D01*
G37*
G36*
X133573142Y-79034307D02*
G01*
X133651627Y-79042037D01*
X133821466Y-79093557D01*
X133977991Y-79177222D01*
X134013729Y-79206552D01*
X134115186Y-79289814D01*
X134198448Y-79391271D01*
X134227778Y-79427009D01*
X134311443Y-79583534D01*
X134362963Y-79753373D01*
X134380359Y-79930000D01*
X134362963Y-80106627D01*
X134311443Y-80276466D01*
X134311442Y-80276468D01*
X134282214Y-80331149D01*
X134227778Y-80432991D01*
X134198448Y-80468729D01*
X134115186Y-80570186D01*
X134013729Y-80653448D01*
X133977991Y-80682778D01*
X133821466Y-80766443D01*
X133651627Y-80817963D01*
X133585442Y-80824482D01*
X133519260Y-80831000D01*
X133180740Y-80831000D01*
X133114558Y-80824482D01*
X133048373Y-80817963D01*
X132878534Y-80766443D01*
X132722009Y-80682778D01*
X132686271Y-80653448D01*
X132584814Y-80570186D01*
X132501552Y-80468729D01*
X132472222Y-80432991D01*
X132417786Y-80331149D01*
X132388558Y-80276468D01*
X132388557Y-80276466D01*
X132337037Y-80106627D01*
X132319641Y-79930000D01*
X132337037Y-79753373D01*
X132388557Y-79583534D01*
X132472222Y-79427009D01*
X132501552Y-79391271D01*
X132584814Y-79289814D01*
X132686271Y-79206552D01*
X132722009Y-79177222D01*
X132878534Y-79093557D01*
X133048373Y-79042037D01*
X133126858Y-79034307D01*
X133180740Y-79029000D01*
X133519260Y-79029000D01*
X133573142Y-79034307D01*
X133573142Y-79034307D01*
G37*
G36*
X100496823Y-78663313D02*
G01*
X100657242Y-78711976D01*
X100789906Y-78782886D01*
X100805078Y-78790996D01*
X100934659Y-78897341D01*
X101041004Y-79026922D01*
X101041005Y-79026924D01*
X101120024Y-79174758D01*
X101120025Y-79174761D01*
X101129083Y-79204620D01*
X101168687Y-79335177D01*
X101185117Y-79502000D01*
X101168687Y-79668823D01*
X101120024Y-79829242D01*
X101066168Y-79930000D01*
X101041004Y-79977078D01*
X100934659Y-80106659D01*
X100805078Y-80213004D01*
X100805076Y-80213005D01*
X100657242Y-80292024D01*
X100496823Y-80340687D01*
X100371804Y-80353000D01*
X100288196Y-80353000D01*
X100163177Y-80340687D01*
X100002758Y-80292024D01*
X99854924Y-80213005D01*
X99854922Y-80213004D01*
X99725341Y-80106659D01*
X99618996Y-79977078D01*
X99593832Y-79930000D01*
X99539976Y-79829242D01*
X99491313Y-79668823D01*
X99474883Y-79502000D01*
X99491313Y-79335177D01*
X99530917Y-79204620D01*
X99539975Y-79174761D01*
X99539976Y-79174758D01*
X99618995Y-79026924D01*
X99618996Y-79026922D01*
X99725341Y-78897341D01*
X99854922Y-78790996D01*
X99870094Y-78782886D01*
X100002758Y-78711976D01*
X100163177Y-78663313D01*
X100288196Y-78651000D01*
X100371804Y-78651000D01*
X100496823Y-78663313D01*
X100496823Y-78663313D01*
G37*
G36*
X115736823Y-78663313D02*
G01*
X115897242Y-78711976D01*
X116029906Y-78782886D01*
X116045078Y-78790996D01*
X116174659Y-78897341D01*
X116281004Y-79026922D01*
X116281005Y-79026924D01*
X116360024Y-79174758D01*
X116360025Y-79174761D01*
X116369083Y-79204620D01*
X116408687Y-79335177D01*
X116425117Y-79502000D01*
X116408687Y-79668823D01*
X116360024Y-79829242D01*
X116306168Y-79930000D01*
X116281004Y-79977078D01*
X116174659Y-80106659D01*
X116045078Y-80213004D01*
X116045076Y-80213005D01*
X115897242Y-80292024D01*
X115736823Y-80340687D01*
X115611804Y-80353000D01*
X115528196Y-80353000D01*
X115403177Y-80340687D01*
X115242758Y-80292024D01*
X115094924Y-80213005D01*
X115094922Y-80213004D01*
X114965341Y-80106659D01*
X114858996Y-79977078D01*
X114833832Y-79930000D01*
X114779976Y-79829242D01*
X114731313Y-79668823D01*
X114714883Y-79502000D01*
X114731313Y-79335177D01*
X114770917Y-79204620D01*
X114779975Y-79174761D01*
X114779976Y-79174758D01*
X114858995Y-79026924D01*
X114858996Y-79026922D01*
X114965341Y-78897341D01*
X115094922Y-78790996D01*
X115110094Y-78782886D01*
X115242758Y-78711976D01*
X115403177Y-78663313D01*
X115528196Y-78651000D01*
X115611804Y-78651000D01*
X115736823Y-78663313D01*
X115736823Y-78663313D01*
G37*
G36*
X141184794Y-76390155D02*
G01*
X141291150Y-76411311D01*
X141491520Y-76494307D01*
X141671844Y-76614795D01*
X141825205Y-76768156D01*
X141945693Y-76948480D01*
X141945693Y-76948481D01*
X142020394Y-77128823D01*
X142028689Y-77148851D01*
X142071000Y-77361560D01*
X142071000Y-77578440D01*
X142065393Y-77606627D01*
X142028689Y-77791150D01*
X142019638Y-77813000D01*
X141945693Y-77991520D01*
X141825205Y-78171844D01*
X141671844Y-78325205D01*
X141491520Y-78445693D01*
X141291150Y-78528689D01*
X141184794Y-78549845D01*
X141078440Y-78571000D01*
X140861560Y-78571000D01*
X140755206Y-78549845D01*
X140648850Y-78528689D01*
X140548666Y-78487191D01*
X140448480Y-78445693D01*
X140268156Y-78325205D01*
X140114795Y-78171844D01*
X139994307Y-77991520D01*
X139920362Y-77813000D01*
X139911311Y-77791150D01*
X139874607Y-77606627D01*
X139869000Y-77578440D01*
X139869000Y-77361560D01*
X139911311Y-77148851D01*
X139919607Y-77128823D01*
X139994307Y-76948481D01*
X139994307Y-76948480D01*
X140114795Y-76768156D01*
X140268156Y-76614795D01*
X140448480Y-76494307D01*
X140548666Y-76452809D01*
X140648850Y-76411311D01*
X140755206Y-76390155D01*
X140861560Y-76369000D01*
X141078440Y-76369000D01*
X141184794Y-76390155D01*
X141184794Y-76390155D01*
G37*
G36*
X133585443Y-76535519D02*
G01*
X133651627Y-76542037D01*
X133821466Y-76593557D01*
X133977991Y-76677222D01*
X134013729Y-76706552D01*
X134115186Y-76789814D01*
X134198448Y-76891271D01*
X134227778Y-76927009D01*
X134311443Y-77083534D01*
X134362963Y-77253373D01*
X134380359Y-77430000D01*
X134362963Y-77606627D01*
X134311443Y-77776466D01*
X134227778Y-77932991D01*
X134198448Y-77968729D01*
X134115186Y-78070186D01*
X134013729Y-78153448D01*
X133977991Y-78182778D01*
X133821466Y-78266443D01*
X133651627Y-78317963D01*
X133585443Y-78324481D01*
X133519260Y-78331000D01*
X133180740Y-78331000D01*
X133114557Y-78324481D01*
X133048373Y-78317963D01*
X132878534Y-78266443D01*
X132722009Y-78182778D01*
X132686271Y-78153448D01*
X132584814Y-78070186D01*
X132501552Y-77968729D01*
X132472222Y-77932991D01*
X132388557Y-77776466D01*
X132337037Y-77606627D01*
X132319641Y-77430000D01*
X132337037Y-77253373D01*
X132388557Y-77083534D01*
X132472222Y-76927009D01*
X132501552Y-76891271D01*
X132584814Y-76789814D01*
X132686271Y-76706552D01*
X132722009Y-76677222D01*
X132878534Y-76593557D01*
X133048373Y-76542037D01*
X133114557Y-76535519D01*
X133180740Y-76529000D01*
X133519260Y-76529000D01*
X133585443Y-76535519D01*
X133585443Y-76535519D01*
G37*
G36*
X100496823Y-76123313D02*
G01*
X100657242Y-76171976D01*
X100789906Y-76242886D01*
X100805078Y-76250996D01*
X100934659Y-76357341D01*
X101041004Y-76486922D01*
X101041005Y-76486924D01*
X101120024Y-76634758D01*
X101168687Y-76795177D01*
X101185117Y-76962000D01*
X101168687Y-77128823D01*
X101120024Y-77289242D01*
X101049114Y-77421906D01*
X101041004Y-77437078D01*
X100934659Y-77566659D01*
X100805078Y-77673004D01*
X100805076Y-77673005D01*
X100657242Y-77752024D01*
X100496823Y-77800687D01*
X100371804Y-77813000D01*
X100288196Y-77813000D01*
X100163177Y-77800687D01*
X100002758Y-77752024D01*
X99854924Y-77673005D01*
X99854922Y-77673004D01*
X99725341Y-77566659D01*
X99618996Y-77437078D01*
X99610886Y-77421906D01*
X99539976Y-77289242D01*
X99491313Y-77128823D01*
X99474883Y-76962000D01*
X99491313Y-76795177D01*
X99539976Y-76634758D01*
X99618995Y-76486924D01*
X99618996Y-76486922D01*
X99725341Y-76357341D01*
X99854922Y-76250996D01*
X99870094Y-76242886D01*
X100002758Y-76171976D01*
X100163177Y-76123313D01*
X100288196Y-76111000D01*
X100371804Y-76111000D01*
X100496823Y-76123313D01*
X100496823Y-76123313D01*
G37*
G36*
X115736823Y-76123313D02*
G01*
X115897242Y-76171976D01*
X116029906Y-76242886D01*
X116045078Y-76250996D01*
X116174659Y-76357341D01*
X116281004Y-76486922D01*
X116281005Y-76486924D01*
X116360024Y-76634758D01*
X116408687Y-76795177D01*
X116425117Y-76962000D01*
X116408687Y-77128823D01*
X116360024Y-77289242D01*
X116289114Y-77421906D01*
X116281004Y-77437078D01*
X116174659Y-77566659D01*
X116045078Y-77673004D01*
X116045076Y-77673005D01*
X115897242Y-77752024D01*
X115736823Y-77800687D01*
X115611804Y-77813000D01*
X115528196Y-77813000D01*
X115403177Y-77800687D01*
X115242758Y-77752024D01*
X115094924Y-77673005D01*
X115094922Y-77673004D01*
X114965341Y-77566659D01*
X114858996Y-77437078D01*
X114850886Y-77421906D01*
X114779976Y-77289242D01*
X114731313Y-77128823D01*
X114714883Y-76962000D01*
X114731313Y-76795177D01*
X114779976Y-76634758D01*
X114858995Y-76486924D01*
X114858996Y-76486922D01*
X114965341Y-76357341D01*
X115094922Y-76250996D01*
X115110094Y-76242886D01*
X115242758Y-76171976D01*
X115403177Y-76123313D01*
X115528196Y-76111000D01*
X115611804Y-76111000D01*
X115736823Y-76123313D01*
X115736823Y-76123313D01*
G37*
G36*
X142071000Y-76031000D02*
G01*
X139869000Y-76031000D01*
X139869000Y-73829000D01*
X142071000Y-73829000D01*
X142071000Y-76031000D01*
X142071000Y-76031000D01*
G37*
G36*
X134233600Y-74032989D02*
G01*
X134266652Y-74043015D01*
X134297103Y-74059292D01*
X134323799Y-74081201D01*
X134345708Y-74107897D01*
X134361985Y-74138348D01*
X134372011Y-74171400D01*
X134376000Y-74211903D01*
X134376000Y-75648097D01*
X134372011Y-75688600D01*
X134361985Y-75721652D01*
X134345708Y-75752103D01*
X134323799Y-75778799D01*
X134297103Y-75800708D01*
X134266652Y-75816985D01*
X134233600Y-75827011D01*
X134193097Y-75831000D01*
X132506903Y-75831000D01*
X132466400Y-75827011D01*
X132433348Y-75816985D01*
X132402897Y-75800708D01*
X132376201Y-75778799D01*
X132354292Y-75752103D01*
X132338015Y-75721652D01*
X132327989Y-75688600D01*
X132324000Y-75648097D01*
X132324000Y-74211903D01*
X132327989Y-74171400D01*
X132338015Y-74138348D01*
X132354292Y-74107897D01*
X132376201Y-74081201D01*
X132402897Y-74059292D01*
X132433348Y-74043015D01*
X132466400Y-74032989D01*
X132506903Y-74029000D01*
X134193097Y-74029000D01*
X134233600Y-74032989D01*
X134233600Y-74032989D01*
G37*
G36*
X86943254Y-71602818D02*
G01*
X87316511Y-71757426D01*
X87316513Y-71757427D01*
X87652436Y-71981884D01*
X87938116Y-72267564D01*
X88153196Y-72589453D01*
X88162574Y-72603489D01*
X88317182Y-72976746D01*
X88396000Y-73372993D01*
X88396000Y-73777007D01*
X88317182Y-74173254D01*
X88283249Y-74255175D01*
X88162573Y-74546513D01*
X87938116Y-74882436D01*
X87652436Y-75168116D01*
X87316513Y-75392573D01*
X87316512Y-75392574D01*
X87316511Y-75392574D01*
X86943254Y-75547182D01*
X86547007Y-75626000D01*
X86142993Y-75626000D01*
X85746746Y-75547182D01*
X85373489Y-75392574D01*
X85373488Y-75392574D01*
X85373487Y-75392573D01*
X85037564Y-75168116D01*
X84751884Y-74882436D01*
X84527427Y-74546513D01*
X84406751Y-74255175D01*
X84372818Y-74173254D01*
X84294000Y-73777007D01*
X84294000Y-73372993D01*
X84372818Y-72976746D01*
X84527426Y-72603489D01*
X84536805Y-72589453D01*
X84751884Y-72267564D01*
X85037564Y-71981884D01*
X85373487Y-71757427D01*
X85373489Y-71757426D01*
X85746746Y-71602818D01*
X86142993Y-71524000D01*
X86547007Y-71524000D01*
X86943254Y-71602818D01*
X86943254Y-71602818D01*
G37*
G36*
X100496823Y-73583313D02*
G01*
X100657242Y-73631976D01*
X100789906Y-73702886D01*
X100805078Y-73710996D01*
X100934659Y-73817341D01*
X101041004Y-73946922D01*
X101041005Y-73946924D01*
X101120024Y-74094758D01*
X101168687Y-74255177D01*
X101185117Y-74422000D01*
X101168687Y-74588823D01*
X101120024Y-74749242D01*
X101049114Y-74881906D01*
X101041004Y-74897078D01*
X100934659Y-75026659D01*
X100805078Y-75133004D01*
X100805076Y-75133005D01*
X100657242Y-75212024D01*
X100496823Y-75260687D01*
X100371804Y-75273000D01*
X100288196Y-75273000D01*
X100163177Y-75260687D01*
X100002758Y-75212024D01*
X99854924Y-75133005D01*
X99854922Y-75133004D01*
X99725341Y-75026659D01*
X99618996Y-74897078D01*
X99610886Y-74881906D01*
X99539976Y-74749242D01*
X99491313Y-74588823D01*
X99474883Y-74422000D01*
X99491313Y-74255177D01*
X99539976Y-74094758D01*
X99618995Y-73946924D01*
X99618996Y-73946922D01*
X99725341Y-73817341D01*
X99854922Y-73710996D01*
X99870094Y-73702886D01*
X100002758Y-73631976D01*
X100163177Y-73583313D01*
X100288196Y-73571000D01*
X100371804Y-73571000D01*
X100496823Y-73583313D01*
X100496823Y-73583313D01*
G37*
G36*
X115736823Y-73583313D02*
G01*
X115897242Y-73631976D01*
X116029906Y-73702886D01*
X116045078Y-73710996D01*
X116174659Y-73817341D01*
X116281004Y-73946922D01*
X116281005Y-73946924D01*
X116360024Y-74094758D01*
X116408687Y-74255177D01*
X116425117Y-74422000D01*
X116408687Y-74588823D01*
X116360024Y-74749242D01*
X116289114Y-74881906D01*
X116281004Y-74897078D01*
X116174659Y-75026659D01*
X116045078Y-75133004D01*
X116045076Y-75133005D01*
X115897242Y-75212024D01*
X115736823Y-75260687D01*
X115611804Y-75273000D01*
X115528196Y-75273000D01*
X115403177Y-75260687D01*
X115242758Y-75212024D01*
X115094924Y-75133005D01*
X115094922Y-75133004D01*
X114965341Y-75026659D01*
X114858996Y-74897078D01*
X114850886Y-74881906D01*
X114779976Y-74749242D01*
X114731313Y-74588823D01*
X114714883Y-74422000D01*
X114731313Y-74255177D01*
X114779976Y-74094758D01*
X114858995Y-73946924D01*
X114858996Y-73946922D01*
X114965341Y-73817341D01*
X115094922Y-73710996D01*
X115110094Y-73702886D01*
X115242758Y-73631976D01*
X115403177Y-73583313D01*
X115528196Y-73571000D01*
X115611804Y-73571000D01*
X115736823Y-73583313D01*
X115736823Y-73583313D01*
G37*
G36*
X115736823Y-71043313D02*
G01*
X115897242Y-71091976D01*
X116029906Y-71162886D01*
X116045078Y-71170996D01*
X116174659Y-71277341D01*
X116281004Y-71406922D01*
X116281005Y-71406924D01*
X116360024Y-71554758D01*
X116408687Y-71715177D01*
X116425117Y-71882000D01*
X116408687Y-72048823D01*
X116360024Y-72209242D01*
X116328850Y-72267564D01*
X116281004Y-72357078D01*
X116174659Y-72486659D01*
X116045078Y-72593004D01*
X116045076Y-72593005D01*
X115897242Y-72672024D01*
X115736823Y-72720687D01*
X115611804Y-72733000D01*
X115528196Y-72733000D01*
X115403177Y-72720687D01*
X115242758Y-72672024D01*
X115094924Y-72593005D01*
X115094922Y-72593004D01*
X114965341Y-72486659D01*
X114858996Y-72357078D01*
X114811150Y-72267564D01*
X114779976Y-72209242D01*
X114731313Y-72048823D01*
X114714883Y-71882000D01*
X114731313Y-71715177D01*
X114779976Y-71554758D01*
X114858995Y-71406924D01*
X114858996Y-71406922D01*
X114965341Y-71277341D01*
X115094922Y-71170996D01*
X115110094Y-71162886D01*
X115242758Y-71091976D01*
X115403177Y-71043313D01*
X115528196Y-71031000D01*
X115611804Y-71031000D01*
X115736823Y-71043313D01*
X115736823Y-71043313D01*
G37*
G36*
X100496823Y-71043313D02*
G01*
X100657242Y-71091976D01*
X100789906Y-71162886D01*
X100805078Y-71170996D01*
X100934659Y-71277341D01*
X101041004Y-71406922D01*
X101041005Y-71406924D01*
X101120024Y-71554758D01*
X101168687Y-71715177D01*
X101185117Y-71882000D01*
X101168687Y-72048823D01*
X101120024Y-72209242D01*
X101088850Y-72267564D01*
X101041004Y-72357078D01*
X100934659Y-72486659D01*
X100805078Y-72593004D01*
X100805076Y-72593005D01*
X100657242Y-72672024D01*
X100496823Y-72720687D01*
X100371804Y-72733000D01*
X100288196Y-72733000D01*
X100163177Y-72720687D01*
X100002758Y-72672024D01*
X99854924Y-72593005D01*
X99854922Y-72593004D01*
X99725341Y-72486659D01*
X99618996Y-72357078D01*
X99571150Y-72267564D01*
X99539976Y-72209242D01*
X99491313Y-72048823D01*
X99474883Y-71882000D01*
X99491313Y-71715177D01*
X99539976Y-71554758D01*
X99618995Y-71406924D01*
X99618996Y-71406922D01*
X99725341Y-71277341D01*
X99854922Y-71170996D01*
X99870094Y-71162886D01*
X100002758Y-71091976D01*
X100163177Y-71043313D01*
X100288196Y-71031000D01*
X100371804Y-71031000D01*
X100496823Y-71043313D01*
X100496823Y-71043313D01*
G37*
G36*
X93622395Y-70760546D02*
G01*
X93795466Y-70832234D01*
X93795467Y-70832235D01*
X93951227Y-70936310D01*
X94083690Y-71068773D01*
X94136081Y-71147182D01*
X94187766Y-71224534D01*
X94259454Y-71397605D01*
X94296000Y-71581333D01*
X94296000Y-71768667D01*
X94259454Y-71952395D01*
X94187766Y-72125466D01*
X94187765Y-72125467D01*
X94083690Y-72281227D01*
X93951227Y-72413690D01*
X93872818Y-72466081D01*
X93795466Y-72517766D01*
X93622395Y-72589454D01*
X93438667Y-72626000D01*
X93251333Y-72626000D01*
X93067605Y-72589454D01*
X92894534Y-72517766D01*
X92817182Y-72466081D01*
X92738773Y-72413690D01*
X92606310Y-72281227D01*
X92502235Y-72125467D01*
X92502234Y-72125466D01*
X92430546Y-71952395D01*
X92394000Y-71768667D01*
X92394000Y-71581333D01*
X92430546Y-71397605D01*
X92502234Y-71224534D01*
X92553919Y-71147182D01*
X92606310Y-71068773D01*
X92738773Y-70936310D01*
X92894533Y-70832235D01*
X92894534Y-70832234D01*
X93067605Y-70760546D01*
X93251333Y-70724000D01*
X93438667Y-70724000D01*
X93622395Y-70760546D01*
X93622395Y-70760546D01*
G37*
G36*
X115736823Y-68503313D02*
G01*
X115897242Y-68551976D01*
X116022910Y-68619147D01*
X116045078Y-68630996D01*
X116174659Y-68737341D01*
X116281004Y-68866922D01*
X116281005Y-68866924D01*
X116360024Y-69014758D01*
X116408687Y-69175177D01*
X116425117Y-69342000D01*
X116408687Y-69508823D01*
X116360024Y-69669242D01*
X116300168Y-69781225D01*
X116281004Y-69817078D01*
X116174659Y-69946659D01*
X116045078Y-70053004D01*
X116045076Y-70053005D01*
X115897242Y-70132024D01*
X115736823Y-70180687D01*
X115611804Y-70193000D01*
X115528196Y-70193000D01*
X115403177Y-70180687D01*
X115242758Y-70132024D01*
X115094924Y-70053005D01*
X115094922Y-70053004D01*
X114965341Y-69946659D01*
X114858996Y-69817078D01*
X114839832Y-69781225D01*
X114779976Y-69669242D01*
X114731313Y-69508823D01*
X114714883Y-69342000D01*
X114731313Y-69175177D01*
X114779976Y-69014758D01*
X114858995Y-68866924D01*
X114858996Y-68866922D01*
X114965341Y-68737341D01*
X115094922Y-68630996D01*
X115117090Y-68619147D01*
X115242758Y-68551976D01*
X115403177Y-68503313D01*
X115528196Y-68491000D01*
X115611804Y-68491000D01*
X115736823Y-68503313D01*
X115736823Y-68503313D01*
G37*
G36*
X100496823Y-68503313D02*
G01*
X100657242Y-68551976D01*
X100782910Y-68619147D01*
X100805078Y-68630996D01*
X100934659Y-68737341D01*
X101041004Y-68866922D01*
X101041005Y-68866924D01*
X101120024Y-69014758D01*
X101168687Y-69175177D01*
X101185117Y-69342000D01*
X101168687Y-69508823D01*
X101120024Y-69669242D01*
X101060168Y-69781225D01*
X101041004Y-69817078D01*
X100934659Y-69946659D01*
X100805078Y-70053004D01*
X100805076Y-70053005D01*
X100657242Y-70132024D01*
X100496823Y-70180687D01*
X100371804Y-70193000D01*
X100288196Y-70193000D01*
X100163177Y-70180687D01*
X100002758Y-70132024D01*
X99854924Y-70053005D01*
X99854922Y-70053004D01*
X99725341Y-69946659D01*
X99618996Y-69817078D01*
X99599832Y-69781225D01*
X99539976Y-69669242D01*
X99491313Y-69508823D01*
X99474883Y-69342000D01*
X99491313Y-69175177D01*
X99539976Y-69014758D01*
X99618995Y-68866924D01*
X99618996Y-68866922D01*
X99725341Y-68737341D01*
X99854922Y-68630996D01*
X99877090Y-68619147D01*
X100002758Y-68551976D01*
X100163177Y-68503313D01*
X100288196Y-68491000D01*
X100371804Y-68491000D01*
X100496823Y-68503313D01*
X100496823Y-68503313D01*
G37*
G36*
X93622395Y-68260546D02*
G01*
X93795466Y-68332234D01*
X93795467Y-68332235D01*
X93951227Y-68436310D01*
X94083690Y-68568773D01*
X94083691Y-68568775D01*
X94187766Y-68724534D01*
X94259454Y-68897605D01*
X94296000Y-69081333D01*
X94296000Y-69268667D01*
X94259454Y-69452395D01*
X94187766Y-69625466D01*
X94187765Y-69625467D01*
X94083690Y-69781227D01*
X93951227Y-69913690D01*
X93901885Y-69946659D01*
X93795466Y-70017766D01*
X93622395Y-70089454D01*
X93438667Y-70126000D01*
X93251333Y-70126000D01*
X93067605Y-70089454D01*
X92894534Y-70017766D01*
X92788115Y-69946659D01*
X92738773Y-69913690D01*
X92606310Y-69781227D01*
X92502235Y-69625467D01*
X92502234Y-69625466D01*
X92430546Y-69452395D01*
X92394000Y-69268667D01*
X92394000Y-69081333D01*
X92430546Y-68897605D01*
X92502234Y-68724534D01*
X92606309Y-68568775D01*
X92606310Y-68568773D01*
X92738773Y-68436310D01*
X92894533Y-68332235D01*
X92894534Y-68332234D01*
X93067605Y-68260546D01*
X93251333Y-68224000D01*
X93438667Y-68224000D01*
X93622395Y-68260546D01*
X93622395Y-68260546D01*
G37*
G36*
X141421425Y-67007760D02*
G01*
X141421428Y-67007761D01*
X141421429Y-67007761D01*
X141600693Y-67062140D01*
X141600696Y-67062142D01*
X141600697Y-67062142D01*
X141765903Y-67150446D01*
X141910712Y-67269288D01*
X142029554Y-67414097D01*
X142098176Y-67542481D01*
X142117860Y-67579307D01*
X142170897Y-67754147D01*
X142172240Y-67758575D01*
X142190601Y-67945000D01*
X142172240Y-68131425D01*
X142172239Y-68131428D01*
X142172239Y-68131429D01*
X142117860Y-68310693D01*
X142117858Y-68310696D01*
X142117858Y-68310697D01*
X142029554Y-68475903D01*
X141910712Y-68620712D01*
X141765903Y-68739554D01*
X141600697Y-68827858D01*
X141600693Y-68827860D01*
X141421429Y-68882239D01*
X141421428Y-68882239D01*
X141421425Y-68882240D01*
X141281718Y-68896000D01*
X139388282Y-68896000D01*
X139248575Y-68882240D01*
X139248572Y-68882239D01*
X139248571Y-68882239D01*
X139069307Y-68827860D01*
X139069303Y-68827858D01*
X138904097Y-68739554D01*
X138759288Y-68620712D01*
X138640446Y-68475903D01*
X138552142Y-68310697D01*
X138552142Y-68310696D01*
X138552140Y-68310693D01*
X138497761Y-68131429D01*
X138497761Y-68131428D01*
X138497760Y-68131425D01*
X138479399Y-67945000D01*
X138497760Y-67758575D01*
X138499103Y-67754147D01*
X138552140Y-67579307D01*
X138571824Y-67542481D01*
X138640446Y-67414097D01*
X138759288Y-67269288D01*
X138904097Y-67150446D01*
X139069303Y-67062142D01*
X139069304Y-67062142D01*
X139069307Y-67062140D01*
X139248571Y-67007761D01*
X139248572Y-67007761D01*
X139248575Y-67007760D01*
X139388282Y-66994000D01*
X141281718Y-66994000D01*
X141421425Y-67007760D01*
X141421425Y-67007760D01*
G37*
G36*
X120644228Y-67046703D02*
G01*
X120799100Y-67110853D01*
X120938481Y-67203985D01*
X121057015Y-67322519D01*
X121150147Y-67461900D01*
X121214297Y-67616772D01*
X121247000Y-67781184D01*
X121247000Y-67948816D01*
X121214297Y-68113228D01*
X121150147Y-68268100D01*
X121057015Y-68407481D01*
X120938481Y-68526015D01*
X120799100Y-68619147D01*
X120644228Y-68683297D01*
X120479816Y-68716000D01*
X120312184Y-68716000D01*
X120147772Y-68683297D01*
X119992900Y-68619147D01*
X119853519Y-68526015D01*
X119734985Y-68407481D01*
X119641853Y-68268100D01*
X119577703Y-68113228D01*
X119545000Y-67948816D01*
X119545000Y-67781184D01*
X119577703Y-67616772D01*
X119641853Y-67461900D01*
X119734985Y-67322519D01*
X119853519Y-67203985D01*
X119992900Y-67110853D01*
X120147772Y-67046703D01*
X120312184Y-67014000D01*
X120479816Y-67014000D01*
X120644228Y-67046703D01*
X120644228Y-67046703D01*
G37*
G36*
X127248228Y-66181703D02*
G01*
X127403100Y-66245853D01*
X127542481Y-66338985D01*
X127661015Y-66457519D01*
X127754147Y-66596900D01*
X127818297Y-66751772D01*
X127851000Y-66916184D01*
X127851000Y-67083816D01*
X127818297Y-67248228D01*
X127754147Y-67403100D01*
X127661015Y-67542481D01*
X127542481Y-67661015D01*
X127403100Y-67754147D01*
X127248228Y-67818297D01*
X127083816Y-67851000D01*
X126916184Y-67851000D01*
X126751772Y-67818297D01*
X126596900Y-67754147D01*
X126457519Y-67661015D01*
X126338985Y-67542481D01*
X126245853Y-67403100D01*
X126181703Y-67248228D01*
X126149000Y-67083816D01*
X126149000Y-66916184D01*
X126181703Y-66751772D01*
X126245853Y-66596900D01*
X126338985Y-66457519D01*
X126457519Y-66338985D01*
X126596900Y-66245853D01*
X126751772Y-66181703D01*
X126916184Y-66149000D01*
X127083816Y-66149000D01*
X127248228Y-66181703D01*
X127248228Y-66181703D01*
G37*
G36*
X115736823Y-65963313D02*
G01*
X115897242Y-66011976D01*
X116003505Y-66068775D01*
X116045078Y-66090996D01*
X116174659Y-66197341D01*
X116281004Y-66326922D01*
X116281005Y-66326924D01*
X116360024Y-66474758D01*
X116408687Y-66635177D01*
X116425117Y-66802000D01*
X116408687Y-66968823D01*
X116380379Y-67062140D01*
X116361170Y-67125466D01*
X116360024Y-67129242D01*
X116320073Y-67203985D01*
X116281004Y-67277078D01*
X116174659Y-67406659D01*
X116045078Y-67513004D01*
X116045076Y-67513005D01*
X115897242Y-67592024D01*
X115736823Y-67640687D01*
X115611804Y-67653000D01*
X115528196Y-67653000D01*
X115403177Y-67640687D01*
X115242758Y-67592024D01*
X115094924Y-67513005D01*
X115094922Y-67513004D01*
X114965341Y-67406659D01*
X114858996Y-67277078D01*
X114819927Y-67203985D01*
X114779976Y-67129242D01*
X114778831Y-67125466D01*
X114759621Y-67062140D01*
X114731313Y-66968823D01*
X114714883Y-66802000D01*
X114731313Y-66635177D01*
X114779976Y-66474758D01*
X114858995Y-66326924D01*
X114858996Y-66326922D01*
X114965341Y-66197341D01*
X115094922Y-66090996D01*
X115136495Y-66068775D01*
X115242758Y-66011976D01*
X115403177Y-65963313D01*
X115528196Y-65951000D01*
X115611804Y-65951000D01*
X115736823Y-65963313D01*
X115736823Y-65963313D01*
G37*
G36*
X101181000Y-67653000D02*
G01*
X99479000Y-67653000D01*
X99479000Y-65951000D01*
X101181000Y-65951000D01*
X101181000Y-67653000D01*
X101181000Y-67653000D01*
G37*
G36*
X93622395Y-65760546D02*
G01*
X93795466Y-65832234D01*
X93795467Y-65832235D01*
X93951227Y-65936310D01*
X94083690Y-66068773D01*
X94083691Y-66068775D01*
X94187766Y-66224534D01*
X94259454Y-66397605D01*
X94296000Y-66581333D01*
X94296000Y-66768667D01*
X94259454Y-66952395D01*
X94187766Y-67125466D01*
X94187765Y-67125467D01*
X94083690Y-67281227D01*
X93951227Y-67413690D01*
X93879075Y-67461900D01*
X93795466Y-67517766D01*
X93622395Y-67589454D01*
X93438667Y-67626000D01*
X93251333Y-67626000D01*
X93067605Y-67589454D01*
X92894534Y-67517766D01*
X92810925Y-67461900D01*
X92738773Y-67413690D01*
X92606310Y-67281227D01*
X92502235Y-67125467D01*
X92502234Y-67125466D01*
X92430546Y-66952395D01*
X92394000Y-66768667D01*
X92394000Y-66581333D01*
X92430546Y-66397605D01*
X92502234Y-66224534D01*
X92606309Y-66068775D01*
X92606310Y-66068773D01*
X92738773Y-65936310D01*
X92894533Y-65832235D01*
X92894534Y-65832234D01*
X93067605Y-65760546D01*
X93251333Y-65724000D01*
X93438667Y-65724000D01*
X93622395Y-65760546D01*
X93622395Y-65760546D01*
G37*
G36*
X86943254Y-62802818D02*
G01*
X87316511Y-62957426D01*
X87316513Y-62957427D01*
X87652436Y-63181884D01*
X87938116Y-63467564D01*
X88141187Y-63771480D01*
X88162574Y-63803489D01*
X88317182Y-64176746D01*
X88396000Y-64572993D01*
X88396000Y-64977007D01*
X88317182Y-65373254D01*
X88171898Y-65724000D01*
X88162573Y-65746513D01*
X87938116Y-66082436D01*
X87652436Y-66368116D01*
X87316513Y-66592573D01*
X87316512Y-66592574D01*
X87316511Y-66592574D01*
X86943254Y-66747182D01*
X86547007Y-66826000D01*
X86142993Y-66826000D01*
X85746746Y-66747182D01*
X85373489Y-66592574D01*
X85373488Y-66592574D01*
X85373487Y-66592573D01*
X85037564Y-66368116D01*
X84751884Y-66082436D01*
X84527427Y-65746513D01*
X84518102Y-65724000D01*
X84372818Y-65373254D01*
X84294000Y-64977007D01*
X84294000Y-64572993D01*
X84372818Y-64176746D01*
X84527426Y-63803489D01*
X84548814Y-63771480D01*
X84751884Y-63467564D01*
X85037564Y-63181884D01*
X85373487Y-62957427D01*
X85373489Y-62957426D01*
X85746746Y-62802818D01*
X86142993Y-62724000D01*
X86547007Y-62724000D01*
X86943254Y-62802818D01*
X86943254Y-62802818D01*
G37*
G36*
X127851000Y-64351000D02*
G01*
X126149000Y-64351000D01*
X126149000Y-62649000D01*
X127851000Y-62649000D01*
X127851000Y-64351000D01*
X127851000Y-64351000D01*
G37*
G36*
X142045915Y-61917934D02*
G01*
X142078424Y-61927795D01*
X142108382Y-61943809D01*
X142134641Y-61965359D01*
X142156191Y-61991618D01*
X142172205Y-62021576D01*
X142182066Y-62054085D01*
X142186000Y-62094029D01*
X142186000Y-63635971D01*
X142182066Y-63675915D01*
X142172205Y-63708424D01*
X142156191Y-63738382D01*
X142134641Y-63764641D01*
X142108382Y-63786191D01*
X142078424Y-63802205D01*
X142045915Y-63812066D01*
X142005971Y-63816000D01*
X138664029Y-63816000D01*
X138624085Y-63812066D01*
X138591576Y-63802205D01*
X138561618Y-63786191D01*
X138535359Y-63764641D01*
X138513809Y-63738382D01*
X138497795Y-63708424D01*
X138487934Y-63675915D01*
X138484000Y-63635971D01*
X138484000Y-62094029D01*
X138487934Y-62054085D01*
X138497795Y-62021576D01*
X138513809Y-61991618D01*
X138535359Y-61965359D01*
X138561618Y-61943809D01*
X138591576Y-61927795D01*
X138624085Y-61917934D01*
X138664029Y-61914000D01*
X142005971Y-61914000D01*
X142045915Y-61917934D01*
X142045915Y-61917934D01*
G37*
G36*
X120644228Y-62046703D02*
G01*
X120799100Y-62110853D01*
X120938481Y-62203985D01*
X121057015Y-62322519D01*
X121150147Y-62461900D01*
X121214297Y-62616772D01*
X121247000Y-62781184D01*
X121247000Y-62948816D01*
X121214297Y-63113228D01*
X121150147Y-63268100D01*
X121057015Y-63407481D01*
X120938481Y-63526015D01*
X120799100Y-63619147D01*
X120644228Y-63683297D01*
X120479816Y-63716000D01*
X120312184Y-63716000D01*
X120147772Y-63683297D01*
X119992900Y-63619147D01*
X119853519Y-63526015D01*
X119734985Y-63407481D01*
X119641853Y-63268100D01*
X119577703Y-63113228D01*
X119545000Y-62948816D01*
X119545000Y-62781184D01*
X119577703Y-62616772D01*
X119641853Y-62461900D01*
X119734985Y-62322519D01*
X119853519Y-62203985D01*
X119992900Y-62110853D01*
X120147772Y-62046703D01*
X120312184Y-62014000D01*
X120479816Y-62014000D01*
X120644228Y-62046703D01*
X120644228Y-62046703D01*
G37*
G36*
X84195256Y-53636298D02*
G01*
X84301579Y-53657447D01*
X84602042Y-53781903D01*
X84872451Y-53962585D01*
X85102415Y-54192549D01*
X85283097Y-54462958D01*
X85407553Y-54763421D01*
X85471000Y-55082391D01*
X85471000Y-55407609D01*
X85407553Y-55726579D01*
X85283097Y-56027042D01*
X85102415Y-56297451D01*
X84872451Y-56527415D01*
X84602042Y-56708097D01*
X84301579Y-56832553D01*
X84195256Y-56853702D01*
X83982611Y-56896000D01*
X83657389Y-56896000D01*
X83444744Y-56853702D01*
X83338421Y-56832553D01*
X83037958Y-56708097D01*
X82767549Y-56527415D01*
X82537585Y-56297451D01*
X82356903Y-56027042D01*
X82232447Y-55726579D01*
X82169000Y-55407609D01*
X82169000Y-55082391D01*
X82232447Y-54763421D01*
X82356903Y-54462958D01*
X82537585Y-54192549D01*
X82767549Y-53962585D01*
X83037958Y-53781903D01*
X83338421Y-53657447D01*
X83444744Y-53636298D01*
X83657389Y-53594000D01*
X83982611Y-53594000D01*
X84195256Y-53636298D01*
X84195256Y-53636298D01*
G37*
G36*
X141980256Y-53636298D02*
G01*
X142086579Y-53657447D01*
X142387042Y-53781903D01*
X142657451Y-53962585D01*
X142887415Y-54192549D01*
X143068097Y-54462958D01*
X143192553Y-54763421D01*
X143256000Y-55082391D01*
X143256000Y-55407609D01*
X143192553Y-55726579D01*
X143068097Y-56027042D01*
X142887415Y-56297451D01*
X142657451Y-56527415D01*
X142387042Y-56708097D01*
X142086579Y-56832553D01*
X141980256Y-56853702D01*
X141767611Y-56896000D01*
X141442389Y-56896000D01*
X141229744Y-56853702D01*
X141123421Y-56832553D01*
X140822958Y-56708097D01*
X140552549Y-56527415D01*
X140322585Y-56297451D01*
X140141903Y-56027042D01*
X140017447Y-55726579D01*
X139954000Y-55407609D01*
X139954000Y-55082391D01*
X140017447Y-54763421D01*
X140141903Y-54462958D01*
X140322585Y-54192549D01*
X140552549Y-53962585D01*
X140822958Y-53781903D01*
X141123421Y-53657447D01*
X141229744Y-53636298D01*
X141442389Y-53594000D01*
X141767611Y-53594000D01*
X141980256Y-53636298D01*
X141980256Y-53636298D01*
G37*
M02*
