G04 #@! TF.GenerationSoftware,KiCad,Pcbnew,(5.1.0)-1*
G04 #@! TF.CreationDate,2019-05-11T01:24:59-04:00*
G04 #@! TF.ProjectId,pro-mini-adapter-board,70726f2d-6d69-46e6-992d-616461707465,rev?*
G04 #@! TF.SameCoordinates,Original*
G04 #@! TF.FileFunction,Copper,L2,Bot*
G04 #@! TF.FilePolarity,Positive*
%FSLAX46Y46*%
G04 Gerber Fmt 4.6, Leading zero omitted, Abs format (unit mm)*
G04 Created by KiCad (PCBNEW (5.1.0)-1) date 2019-05-11 01:24:59*
%MOMM*%
%LPD*%
G04 APERTURE LIST*
%ADD10R,1.600000X1.600000*%
%ADD11O,1.600000X1.600000*%
%ADD12C,1.600000*%
%ADD13C,0.100000*%
%ADD14C,1.700000*%
%ADD15O,1.950000X1.700000*%
%ADD16R,2.100000X2.100000*%
%ADD17C,2.100000*%
%ADD18C,1.800000*%
%ADD19O,3.600000X1.800000*%
%ADD20C,4.000000*%
%ADD21O,1.700000X1.700000*%
%ADD22R,1.700000X1.700000*%
%ADD23C,0.800000*%
%ADD24C,0.254000*%
G04 APERTURE END LIST*
D10*
X100330000Y-66802000D03*
D11*
X115570000Y-99822000D03*
X100330000Y-69342000D03*
X115570000Y-97282000D03*
X100330000Y-71882000D03*
X115570000Y-94742000D03*
X100330000Y-74422000D03*
X115570000Y-92202000D03*
X100330000Y-76962000D03*
X115570000Y-89662000D03*
X100330000Y-79502000D03*
X115570000Y-87122000D03*
X100330000Y-82042000D03*
X115570000Y-84582000D03*
X100330000Y-84582000D03*
X115570000Y-82042000D03*
X100330000Y-87122000D03*
X115570000Y-79502000D03*
X100330000Y-89662000D03*
X115570000Y-76962000D03*
X100330000Y-92202000D03*
X115570000Y-74422000D03*
X100330000Y-94742000D03*
X115570000Y-71882000D03*
X100330000Y-97282000D03*
X115570000Y-69342000D03*
X100330000Y-99822000D03*
X115570000Y-66802000D03*
X100330000Y-102362000D03*
X115570000Y-102362000D03*
D12*
X120396000Y-62865000D03*
X120396000Y-67865000D03*
X127000000Y-63500000D03*
X127000000Y-67000000D03*
D13*
G36*
X134099504Y-74081204D02*
G01*
X134123773Y-74084804D01*
X134147571Y-74090765D01*
X134170671Y-74099030D01*
X134192849Y-74109520D01*
X134213893Y-74122133D01*
X134233598Y-74136747D01*
X134251777Y-74153223D01*
X134268253Y-74171402D01*
X134282867Y-74191107D01*
X134295480Y-74212151D01*
X134305970Y-74234329D01*
X134314235Y-74257429D01*
X134320196Y-74281227D01*
X134323796Y-74305496D01*
X134325000Y-74330000D01*
X134325000Y-75530000D01*
X134323796Y-75554504D01*
X134320196Y-75578773D01*
X134314235Y-75602571D01*
X134305970Y-75625671D01*
X134295480Y-75647849D01*
X134282867Y-75668893D01*
X134268253Y-75688598D01*
X134251777Y-75706777D01*
X134233598Y-75723253D01*
X134213893Y-75737867D01*
X134192849Y-75750480D01*
X134170671Y-75760970D01*
X134147571Y-75769235D01*
X134123773Y-75775196D01*
X134099504Y-75778796D01*
X134075000Y-75780000D01*
X132625000Y-75780000D01*
X132600496Y-75778796D01*
X132576227Y-75775196D01*
X132552429Y-75769235D01*
X132529329Y-75760970D01*
X132507151Y-75750480D01*
X132486107Y-75737867D01*
X132466402Y-75723253D01*
X132448223Y-75706777D01*
X132431747Y-75688598D01*
X132417133Y-75668893D01*
X132404520Y-75647849D01*
X132394030Y-75625671D01*
X132385765Y-75602571D01*
X132379804Y-75578773D01*
X132376204Y-75554504D01*
X132375000Y-75530000D01*
X132375000Y-74330000D01*
X132376204Y-74305496D01*
X132379804Y-74281227D01*
X132385765Y-74257429D01*
X132394030Y-74234329D01*
X132404520Y-74212151D01*
X132417133Y-74191107D01*
X132431747Y-74171402D01*
X132448223Y-74153223D01*
X132466402Y-74136747D01*
X132486107Y-74122133D01*
X132507151Y-74109520D01*
X132529329Y-74099030D01*
X132552429Y-74090765D01*
X132576227Y-74084804D01*
X132600496Y-74081204D01*
X132625000Y-74080000D01*
X134075000Y-74080000D01*
X134099504Y-74081204D01*
X134099504Y-74081204D01*
G37*
D14*
X133350000Y-74930000D03*
D15*
X133350000Y-77430000D03*
X133350000Y-79930000D03*
X133350000Y-82430000D03*
D13*
G36*
X134099504Y-88051204D02*
G01*
X134123773Y-88054804D01*
X134147571Y-88060765D01*
X134170671Y-88069030D01*
X134192849Y-88079520D01*
X134213893Y-88092133D01*
X134233598Y-88106747D01*
X134251777Y-88123223D01*
X134268253Y-88141402D01*
X134282867Y-88161107D01*
X134295480Y-88182151D01*
X134305970Y-88204329D01*
X134314235Y-88227429D01*
X134320196Y-88251227D01*
X134323796Y-88275496D01*
X134325000Y-88300000D01*
X134325000Y-89500000D01*
X134323796Y-89524504D01*
X134320196Y-89548773D01*
X134314235Y-89572571D01*
X134305970Y-89595671D01*
X134295480Y-89617849D01*
X134282867Y-89638893D01*
X134268253Y-89658598D01*
X134251777Y-89676777D01*
X134233598Y-89693253D01*
X134213893Y-89707867D01*
X134192849Y-89720480D01*
X134170671Y-89730970D01*
X134147571Y-89739235D01*
X134123773Y-89745196D01*
X134099504Y-89748796D01*
X134075000Y-89750000D01*
X132625000Y-89750000D01*
X132600496Y-89748796D01*
X132576227Y-89745196D01*
X132552429Y-89739235D01*
X132529329Y-89730970D01*
X132507151Y-89720480D01*
X132486107Y-89707867D01*
X132466402Y-89693253D01*
X132448223Y-89676777D01*
X132431747Y-89658598D01*
X132417133Y-89638893D01*
X132404520Y-89617849D01*
X132394030Y-89595671D01*
X132385765Y-89572571D01*
X132379804Y-89548773D01*
X132376204Y-89524504D01*
X132375000Y-89500000D01*
X132375000Y-88300000D01*
X132376204Y-88275496D01*
X132379804Y-88251227D01*
X132385765Y-88227429D01*
X132394030Y-88204329D01*
X132404520Y-88182151D01*
X132417133Y-88161107D01*
X132431747Y-88141402D01*
X132448223Y-88123223D01*
X132466402Y-88106747D01*
X132486107Y-88092133D01*
X132507151Y-88079520D01*
X132529329Y-88069030D01*
X132552429Y-88060765D01*
X132576227Y-88054804D01*
X132600496Y-88051204D01*
X132625000Y-88050000D01*
X134075000Y-88050000D01*
X134099504Y-88051204D01*
X134099504Y-88051204D01*
G37*
D14*
X133350000Y-88900000D03*
D15*
X133350000Y-91400000D03*
X133350000Y-93900000D03*
X133350000Y-96400000D03*
X133350000Y-98900000D03*
X133350000Y-101400000D03*
X133350000Y-103900000D03*
X133350000Y-106400000D03*
D16*
X140970000Y-74930000D03*
D17*
X140970000Y-77470000D03*
X140970000Y-80010000D03*
X140970000Y-82550000D03*
X140970000Y-106680000D03*
X140970000Y-104140000D03*
X140970000Y-101600000D03*
X140970000Y-99060000D03*
X140970000Y-96520000D03*
X140970000Y-93980000D03*
X140970000Y-91440000D03*
D16*
X140970000Y-88900000D03*
D13*
G36*
X141909504Y-61966204D02*
G01*
X141933773Y-61969804D01*
X141957571Y-61975765D01*
X141980671Y-61984030D01*
X142002849Y-61994520D01*
X142023893Y-62007133D01*
X142043598Y-62021747D01*
X142061777Y-62038223D01*
X142078253Y-62056402D01*
X142092867Y-62076107D01*
X142105480Y-62097151D01*
X142115970Y-62119329D01*
X142124235Y-62142429D01*
X142130196Y-62166227D01*
X142133796Y-62190496D01*
X142135000Y-62215000D01*
X142135000Y-63515000D01*
X142133796Y-63539504D01*
X142130196Y-63563773D01*
X142124235Y-63587571D01*
X142115970Y-63610671D01*
X142105480Y-63632849D01*
X142092867Y-63653893D01*
X142078253Y-63673598D01*
X142061777Y-63691777D01*
X142043598Y-63708253D01*
X142023893Y-63722867D01*
X142002849Y-63735480D01*
X141980671Y-63745970D01*
X141957571Y-63754235D01*
X141933773Y-63760196D01*
X141909504Y-63763796D01*
X141885000Y-63765000D01*
X138785000Y-63765000D01*
X138760496Y-63763796D01*
X138736227Y-63760196D01*
X138712429Y-63754235D01*
X138689329Y-63745970D01*
X138667151Y-63735480D01*
X138646107Y-63722867D01*
X138626402Y-63708253D01*
X138608223Y-63691777D01*
X138591747Y-63673598D01*
X138577133Y-63653893D01*
X138564520Y-63632849D01*
X138554030Y-63610671D01*
X138545765Y-63587571D01*
X138539804Y-63563773D01*
X138536204Y-63539504D01*
X138535000Y-63515000D01*
X138535000Y-62215000D01*
X138536204Y-62190496D01*
X138539804Y-62166227D01*
X138545765Y-62142429D01*
X138554030Y-62119329D01*
X138564520Y-62097151D01*
X138577133Y-62076107D01*
X138591747Y-62056402D01*
X138608223Y-62038223D01*
X138626402Y-62021747D01*
X138646107Y-62007133D01*
X138667151Y-61994520D01*
X138689329Y-61984030D01*
X138712429Y-61975765D01*
X138736227Y-61969804D01*
X138760496Y-61966204D01*
X138785000Y-61965000D01*
X141885000Y-61965000D01*
X141909504Y-61966204D01*
X141909504Y-61966204D01*
G37*
D18*
X140335000Y-62865000D03*
D19*
X140335000Y-67945000D03*
D18*
X93345000Y-71675000D03*
X93345000Y-69175000D03*
X93345000Y-66675000D03*
D20*
X86345000Y-73575000D03*
X86345000Y-64775000D03*
D10*
X81915000Y-80010000D03*
D11*
X89535000Y-87630000D03*
X81915000Y-82550000D03*
X89535000Y-85090000D03*
X81915000Y-85090000D03*
X89535000Y-82550000D03*
X81915000Y-87630000D03*
X89535000Y-80010000D03*
D21*
X91440000Y-102235000D03*
X91440000Y-104775000D03*
D22*
X91440000Y-107315000D03*
X91440000Y-98425000D03*
D21*
X91440000Y-95885000D03*
X91440000Y-93345000D03*
D23*
X91440000Y-53340000D03*
X101600000Y-53340000D03*
X111760000Y-53340000D03*
X121920000Y-53340000D03*
X132080000Y-53340000D03*
X91440000Y-114300000D03*
X101600000Y-114300000D03*
X111760000Y-114300000D03*
X121920000Y-114300000D03*
X132080000Y-114300000D03*
X83820000Y-106045000D03*
X83820000Y-97155000D03*
X123825000Y-83820000D03*
X105410000Y-80010000D03*
X125730000Y-71120000D03*
X95250000Y-89535000D03*
X111125000Y-94615000D03*
X93345000Y-63500000D03*
D24*
G36*
X142216222Y-52158096D02*
G01*
X142804164Y-52335606D01*
X143346436Y-52623937D01*
X143822364Y-53012094D01*
X144213845Y-53485314D01*
X144505951Y-54025552D01*
X144687563Y-54612244D01*
X144755000Y-55253879D01*
X144755001Y-113632711D01*
X144691904Y-114276221D01*
X144514394Y-114864164D01*
X144226063Y-115406436D01*
X143837906Y-115882364D01*
X143364686Y-116273845D01*
X142824449Y-116565950D01*
X142237756Y-116747563D01*
X141596130Y-116815000D01*
X83852279Y-116815000D01*
X83208779Y-116751904D01*
X82620836Y-116574394D01*
X82078564Y-116286063D01*
X81602636Y-115897906D01*
X81211155Y-115424686D01*
X80919050Y-114884449D01*
X80737437Y-114297756D01*
X80670000Y-113656130D01*
X80670000Y-113444872D01*
X81585000Y-113444872D01*
X81585000Y-113885128D01*
X81670890Y-114316925D01*
X81839369Y-114723669D01*
X82083962Y-115089729D01*
X82395271Y-115401038D01*
X82761331Y-115645631D01*
X83168075Y-115814110D01*
X83599872Y-115900000D01*
X84040128Y-115900000D01*
X84471925Y-115814110D01*
X84878669Y-115645631D01*
X85244729Y-115401038D01*
X85556038Y-115089729D01*
X85800631Y-114723669D01*
X85969110Y-114316925D01*
X86055000Y-113885128D01*
X86055000Y-113444872D01*
X139370000Y-113444872D01*
X139370000Y-113885128D01*
X139455890Y-114316925D01*
X139624369Y-114723669D01*
X139868962Y-115089729D01*
X140180271Y-115401038D01*
X140546331Y-115645631D01*
X140953075Y-115814110D01*
X141384872Y-115900000D01*
X141825128Y-115900000D01*
X142256925Y-115814110D01*
X142663669Y-115645631D01*
X143029729Y-115401038D01*
X143341038Y-115089729D01*
X143585631Y-114723669D01*
X143754110Y-114316925D01*
X143840000Y-113885128D01*
X143840000Y-113444872D01*
X143754110Y-113013075D01*
X143585631Y-112606331D01*
X143341038Y-112240271D01*
X143029729Y-111928962D01*
X142663669Y-111684369D01*
X142256925Y-111515890D01*
X141825128Y-111430000D01*
X141384872Y-111430000D01*
X140953075Y-111515890D01*
X140546331Y-111684369D01*
X140180271Y-111928962D01*
X139868962Y-112240271D01*
X139624369Y-112606331D01*
X139455890Y-113013075D01*
X139370000Y-113444872D01*
X86055000Y-113444872D01*
X85969110Y-113013075D01*
X85800631Y-112606331D01*
X85556038Y-112240271D01*
X85244729Y-111928962D01*
X84878669Y-111684369D01*
X84471925Y-111515890D01*
X84040128Y-111430000D01*
X83599872Y-111430000D01*
X83168075Y-111515890D01*
X82761331Y-111684369D01*
X82395271Y-111928962D01*
X82083962Y-112240271D01*
X81839369Y-112606331D01*
X81670890Y-113013075D01*
X81585000Y-113444872D01*
X80670000Y-113444872D01*
X80670000Y-108165000D01*
X89951928Y-108165000D01*
X89964188Y-108289482D01*
X90000498Y-108409180D01*
X90059463Y-108519494D01*
X90138815Y-108616185D01*
X90235506Y-108695537D01*
X90345820Y-108754502D01*
X90465518Y-108790812D01*
X90590000Y-108803072D01*
X91154250Y-108800000D01*
X91313000Y-108641250D01*
X91313000Y-107442000D01*
X91567000Y-107442000D01*
X91567000Y-108641250D01*
X91725750Y-108800000D01*
X92290000Y-108803072D01*
X92414482Y-108790812D01*
X92534180Y-108754502D01*
X92644494Y-108695537D01*
X92741185Y-108616185D01*
X92820537Y-108519494D01*
X92879502Y-108409180D01*
X92915812Y-108289482D01*
X92928072Y-108165000D01*
X92925000Y-107600750D01*
X92766250Y-107442000D01*
X91567000Y-107442000D01*
X91313000Y-107442000D01*
X90113750Y-107442000D01*
X89955000Y-107600750D01*
X89951928Y-108165000D01*
X80670000Y-108165000D01*
X80670000Y-102235000D01*
X89947815Y-102235000D01*
X89976487Y-102526111D01*
X90061401Y-102806034D01*
X90199294Y-103064014D01*
X90384866Y-103290134D01*
X90610986Y-103475706D01*
X90665791Y-103505000D01*
X90610986Y-103534294D01*
X90384866Y-103719866D01*
X90199294Y-103945986D01*
X90061401Y-104203966D01*
X89976487Y-104483889D01*
X89947815Y-104775000D01*
X89976487Y-105066111D01*
X90061401Y-105346034D01*
X90199294Y-105604014D01*
X90384866Y-105830134D01*
X90414687Y-105854607D01*
X90345820Y-105875498D01*
X90235506Y-105934463D01*
X90138815Y-106013815D01*
X90059463Y-106110506D01*
X90000498Y-106220820D01*
X89964188Y-106340518D01*
X89951928Y-106465000D01*
X89955000Y-107029250D01*
X90113750Y-107188000D01*
X91313000Y-107188000D01*
X91313000Y-107168000D01*
X91567000Y-107168000D01*
X91567000Y-107188000D01*
X92766250Y-107188000D01*
X92925000Y-107029250D01*
X92926482Y-106756890D01*
X131783524Y-106756890D01*
X131875648Y-107019858D01*
X132022504Y-107271193D01*
X132215571Y-107489049D01*
X132447430Y-107665053D01*
X132709170Y-107792442D01*
X132990733Y-107866320D01*
X133223000Y-107726165D01*
X133223000Y-106527000D01*
X133477000Y-106527000D01*
X133477000Y-107726165D01*
X133709267Y-107866320D01*
X133767402Y-107851066D01*
X139978539Y-107851066D01*
X140080339Y-108120579D01*
X140378477Y-108266463D01*
X140699346Y-108351380D01*
X141030617Y-108372066D01*
X141359557Y-108327728D01*
X141673527Y-108220069D01*
X141859661Y-108120579D01*
X141961461Y-107851066D01*
X140970000Y-106859605D01*
X139978539Y-107851066D01*
X133767402Y-107851066D01*
X133990830Y-107792442D01*
X134252570Y-107665053D01*
X134484429Y-107489049D01*
X134677496Y-107271193D01*
X134824352Y-107019858D01*
X134916476Y-106756890D01*
X134907889Y-106740617D01*
X139277934Y-106740617D01*
X139322272Y-107069557D01*
X139429931Y-107383527D01*
X139529421Y-107569661D01*
X139798934Y-107671461D01*
X140790395Y-106680000D01*
X141149605Y-106680000D01*
X142141066Y-107671461D01*
X142410579Y-107569661D01*
X142556463Y-107271523D01*
X142641380Y-106950654D01*
X142662066Y-106619383D01*
X142617728Y-106290443D01*
X142510069Y-105976473D01*
X142410579Y-105790339D01*
X142141066Y-105688539D01*
X141149605Y-106680000D01*
X140790395Y-106680000D01*
X139798934Y-105688539D01*
X139529421Y-105790339D01*
X139383537Y-106088477D01*
X139298620Y-106409346D01*
X139277934Y-106740617D01*
X134907889Y-106740617D01*
X134795155Y-106527000D01*
X133477000Y-106527000D01*
X133223000Y-106527000D01*
X131904845Y-106527000D01*
X131783524Y-106756890D01*
X92926482Y-106756890D01*
X92928072Y-106465000D01*
X92915812Y-106340518D01*
X92879502Y-106220820D01*
X92820537Y-106110506D01*
X92741185Y-106013815D01*
X92644494Y-105934463D01*
X92534180Y-105875498D01*
X92465313Y-105854607D01*
X92495134Y-105830134D01*
X92680706Y-105604014D01*
X92818599Y-105346034D01*
X92903513Y-105066111D01*
X92932185Y-104775000D01*
X92903513Y-104483889D01*
X92818599Y-104203966D01*
X92680706Y-103945986D01*
X92642967Y-103900000D01*
X131732815Y-103900000D01*
X131761487Y-104191111D01*
X131846401Y-104471034D01*
X131984294Y-104729014D01*
X132169866Y-104955134D01*
X132395986Y-105140706D01*
X132421722Y-105154462D01*
X132215571Y-105310951D01*
X132022504Y-105528807D01*
X131875648Y-105780142D01*
X131783524Y-106043110D01*
X131904845Y-106273000D01*
X133223000Y-106273000D01*
X133223000Y-106253000D01*
X133477000Y-106253000D01*
X133477000Y-106273000D01*
X134795155Y-106273000D01*
X134916476Y-106043110D01*
X134824352Y-105780142D01*
X134677496Y-105528807D01*
X134484429Y-105310951D01*
X134278278Y-105154462D01*
X134304014Y-105140706D01*
X134530134Y-104955134D01*
X134715706Y-104729014D01*
X134853599Y-104471034D01*
X134938513Y-104191111D01*
X134959892Y-103974042D01*
X139285000Y-103974042D01*
X139285000Y-104305958D01*
X139349754Y-104631496D01*
X139476772Y-104938147D01*
X139661175Y-105214125D01*
X139895875Y-105448825D01*
X139980009Y-105505042D01*
X139978539Y-105508934D01*
X140970000Y-106500395D01*
X141961461Y-105508934D01*
X141959991Y-105505042D01*
X142044125Y-105448825D01*
X142278825Y-105214125D01*
X142463228Y-104938147D01*
X142590246Y-104631496D01*
X142655000Y-104305958D01*
X142655000Y-103974042D01*
X142590246Y-103648504D01*
X142463228Y-103341853D01*
X142278825Y-103065875D01*
X142044125Y-102831175D01*
X141959991Y-102774958D01*
X141961461Y-102771066D01*
X140970000Y-101779605D01*
X139978539Y-102771066D01*
X139980009Y-102774958D01*
X139895875Y-102831175D01*
X139661175Y-103065875D01*
X139476772Y-103341853D01*
X139349754Y-103648504D01*
X139285000Y-103974042D01*
X134959892Y-103974042D01*
X134967185Y-103900000D01*
X134938513Y-103608889D01*
X134853599Y-103328966D01*
X134715706Y-103070986D01*
X134530134Y-102844866D01*
X134304014Y-102659294D01*
X134278278Y-102645538D01*
X134484429Y-102489049D01*
X134677496Y-102271193D01*
X134824352Y-102019858D01*
X134916476Y-101756890D01*
X134865670Y-101660617D01*
X139277934Y-101660617D01*
X139322272Y-101989557D01*
X139429931Y-102303527D01*
X139529421Y-102489661D01*
X139798934Y-102591461D01*
X140790395Y-101600000D01*
X141149605Y-101600000D01*
X142141066Y-102591461D01*
X142410579Y-102489661D01*
X142556463Y-102191523D01*
X142641380Y-101870654D01*
X142662066Y-101539383D01*
X142617728Y-101210443D01*
X142510069Y-100896473D01*
X142410579Y-100710339D01*
X142141066Y-100608539D01*
X141149605Y-101600000D01*
X140790395Y-101600000D01*
X139798934Y-100608539D01*
X139529421Y-100710339D01*
X139383537Y-101008477D01*
X139298620Y-101329346D01*
X139277934Y-101660617D01*
X134865670Y-101660617D01*
X134795155Y-101527000D01*
X133477000Y-101527000D01*
X133477000Y-101547000D01*
X133223000Y-101547000D01*
X133223000Y-101527000D01*
X131904845Y-101527000D01*
X131783524Y-101756890D01*
X131875648Y-102019858D01*
X132022504Y-102271193D01*
X132215571Y-102489049D01*
X132421722Y-102645538D01*
X132395986Y-102659294D01*
X132169866Y-102844866D01*
X131984294Y-103070986D01*
X131846401Y-103328966D01*
X131761487Y-103608889D01*
X131732815Y-103900000D01*
X92642967Y-103900000D01*
X92495134Y-103719866D01*
X92269014Y-103534294D01*
X92214209Y-103505000D01*
X92269014Y-103475706D01*
X92495134Y-103290134D01*
X92680706Y-103064014D01*
X92818599Y-102806034D01*
X92903513Y-102526111D01*
X92932185Y-102235000D01*
X92903513Y-101943889D01*
X92818599Y-101663966D01*
X92680706Y-101405986D01*
X92495134Y-101179866D01*
X92269014Y-100994294D01*
X92011034Y-100856401D01*
X91731111Y-100771487D01*
X91512950Y-100750000D01*
X91367050Y-100750000D01*
X91148889Y-100771487D01*
X90868966Y-100856401D01*
X90610986Y-100994294D01*
X90384866Y-101179866D01*
X90199294Y-101405986D01*
X90061401Y-101663966D01*
X89976487Y-101943889D01*
X89947815Y-102235000D01*
X80670000Y-102235000D01*
X80670000Y-99275000D01*
X89951928Y-99275000D01*
X89964188Y-99399482D01*
X90000498Y-99519180D01*
X90059463Y-99629494D01*
X90138815Y-99726185D01*
X90235506Y-99805537D01*
X90345820Y-99864502D01*
X90465518Y-99900812D01*
X90590000Y-99913072D01*
X91154250Y-99910000D01*
X91313000Y-99751250D01*
X91313000Y-98552000D01*
X91567000Y-98552000D01*
X91567000Y-99751250D01*
X91725750Y-99910000D01*
X92290000Y-99913072D01*
X92414482Y-99900812D01*
X92534180Y-99864502D01*
X92644494Y-99805537D01*
X92741185Y-99726185D01*
X92820537Y-99629494D01*
X92879502Y-99519180D01*
X92915812Y-99399482D01*
X92928072Y-99275000D01*
X92925000Y-98710750D01*
X92766250Y-98552000D01*
X91567000Y-98552000D01*
X91313000Y-98552000D01*
X90113750Y-98552000D01*
X89955000Y-98710750D01*
X89951928Y-99275000D01*
X80670000Y-99275000D01*
X80670000Y-93345000D01*
X89947815Y-93345000D01*
X89976487Y-93636111D01*
X90061401Y-93916034D01*
X90199294Y-94174014D01*
X90384866Y-94400134D01*
X90610986Y-94585706D01*
X90665791Y-94615000D01*
X90610986Y-94644294D01*
X90384866Y-94829866D01*
X90199294Y-95055986D01*
X90061401Y-95313966D01*
X89976487Y-95593889D01*
X89947815Y-95885000D01*
X89976487Y-96176111D01*
X90061401Y-96456034D01*
X90199294Y-96714014D01*
X90384866Y-96940134D01*
X90414687Y-96964607D01*
X90345820Y-96985498D01*
X90235506Y-97044463D01*
X90138815Y-97123815D01*
X90059463Y-97220506D01*
X90000498Y-97330820D01*
X89964188Y-97450518D01*
X89951928Y-97575000D01*
X89955000Y-98139250D01*
X90113750Y-98298000D01*
X91313000Y-98298000D01*
X91313000Y-98278000D01*
X91567000Y-98278000D01*
X91567000Y-98298000D01*
X92766250Y-98298000D01*
X92925000Y-98139250D01*
X92928072Y-97575000D01*
X92915812Y-97450518D01*
X92879502Y-97330820D01*
X92820537Y-97220506D01*
X92741185Y-97123815D01*
X92644494Y-97044463D01*
X92534180Y-96985498D01*
X92465313Y-96964607D01*
X92495134Y-96940134D01*
X92680706Y-96714014D01*
X92818599Y-96456034D01*
X92903513Y-96176111D01*
X92932185Y-95885000D01*
X92903513Y-95593889D01*
X92818599Y-95313966D01*
X92680706Y-95055986D01*
X92495134Y-94829866D01*
X92269014Y-94644294D01*
X92214209Y-94615000D01*
X92269014Y-94585706D01*
X92495134Y-94400134D01*
X92680706Y-94174014D01*
X92818599Y-93916034D01*
X92903513Y-93636111D01*
X92932185Y-93345000D01*
X92903513Y-93053889D01*
X92818599Y-92773966D01*
X92680706Y-92515986D01*
X92495134Y-92289866D01*
X92269014Y-92104294D01*
X92011034Y-91966401D01*
X91731111Y-91881487D01*
X91512950Y-91860000D01*
X91367050Y-91860000D01*
X91148889Y-91881487D01*
X90868966Y-91966401D01*
X90610986Y-92104294D01*
X90384866Y-92289866D01*
X90199294Y-92515986D01*
X90061401Y-92773966D01*
X89976487Y-93053889D01*
X89947815Y-93345000D01*
X80670000Y-93345000D01*
X80670000Y-88337878D01*
X80683963Y-88367420D01*
X80851481Y-88593414D01*
X81059869Y-88782385D01*
X81301119Y-88927070D01*
X81565960Y-89021909D01*
X81788000Y-88900624D01*
X81788000Y-87757000D01*
X82042000Y-87757000D01*
X82042000Y-88900624D01*
X82264040Y-89021909D01*
X82528881Y-88927070D01*
X82770131Y-88782385D01*
X82978519Y-88593414D01*
X83146037Y-88367420D01*
X83266246Y-88113087D01*
X83306904Y-87979039D01*
X83184915Y-87757000D01*
X82042000Y-87757000D01*
X81788000Y-87757000D01*
X81768000Y-87757000D01*
X81768000Y-87503000D01*
X81788000Y-87503000D01*
X81788000Y-85217000D01*
X82042000Y-85217000D01*
X82042000Y-87503000D01*
X83184915Y-87503000D01*
X83306904Y-87280961D01*
X83266246Y-87146913D01*
X83146037Y-86892580D01*
X82978519Y-86666586D01*
X82770131Y-86477615D01*
X82574018Y-86360000D01*
X82770131Y-86242385D01*
X82978519Y-86053414D01*
X83146037Y-85827420D01*
X83266246Y-85573087D01*
X83306904Y-85439039D01*
X83184915Y-85217000D01*
X82042000Y-85217000D01*
X81788000Y-85217000D01*
X81768000Y-85217000D01*
X81768000Y-84963000D01*
X81788000Y-84963000D01*
X81788000Y-82677000D01*
X82042000Y-82677000D01*
X82042000Y-84963000D01*
X83184915Y-84963000D01*
X83306904Y-84740961D01*
X83266246Y-84606913D01*
X83146037Y-84352580D01*
X82978519Y-84126586D01*
X82770131Y-83937615D01*
X82574018Y-83820000D01*
X82770131Y-83702385D01*
X82978519Y-83513414D01*
X83146037Y-83287420D01*
X83266246Y-83033087D01*
X83306904Y-82899039D01*
X83184915Y-82677000D01*
X82042000Y-82677000D01*
X81788000Y-82677000D01*
X81768000Y-82677000D01*
X81768000Y-82423000D01*
X81788000Y-82423000D01*
X81788000Y-80137000D01*
X81768000Y-80137000D01*
X81768000Y-79883000D01*
X81788000Y-79883000D01*
X81788000Y-78733750D01*
X82042000Y-78733750D01*
X82042000Y-79883000D01*
X82062000Y-79883000D01*
X82062000Y-80137000D01*
X82042000Y-80137000D01*
X82042000Y-82423000D01*
X83184915Y-82423000D01*
X83306904Y-82200961D01*
X83266246Y-82066913D01*
X83146037Y-81812580D01*
X82978519Y-81586586D01*
X82814920Y-81438231D01*
X82839482Y-81435812D01*
X82959180Y-81399502D01*
X83069494Y-81340537D01*
X83166185Y-81261185D01*
X83245537Y-81164494D01*
X83304502Y-81054180D01*
X83340812Y-80934482D01*
X83353072Y-80810000D01*
X83350000Y-80295750D01*
X83191252Y-80137002D01*
X83350000Y-80137002D01*
X83350000Y-80010000D01*
X88093057Y-80010000D01*
X88120764Y-80291309D01*
X88202818Y-80561808D01*
X88336068Y-80811101D01*
X88515392Y-81029608D01*
X88733899Y-81208932D01*
X88866858Y-81280000D01*
X88733899Y-81351068D01*
X88515392Y-81530392D01*
X88336068Y-81748899D01*
X88202818Y-81998192D01*
X88120764Y-82268691D01*
X88093057Y-82550000D01*
X88120764Y-82831309D01*
X88202818Y-83101808D01*
X88336068Y-83351101D01*
X88515392Y-83569608D01*
X88733899Y-83748932D01*
X88866858Y-83820000D01*
X88733899Y-83891068D01*
X88515392Y-84070392D01*
X88336068Y-84288899D01*
X88202818Y-84538192D01*
X88120764Y-84808691D01*
X88093057Y-85090000D01*
X88120764Y-85371309D01*
X88202818Y-85641808D01*
X88336068Y-85891101D01*
X88515392Y-86109608D01*
X88733899Y-86288932D01*
X88866858Y-86360000D01*
X88733899Y-86431068D01*
X88515392Y-86610392D01*
X88336068Y-86828899D01*
X88202818Y-87078192D01*
X88120764Y-87348691D01*
X88093057Y-87630000D01*
X88120764Y-87911309D01*
X88202818Y-88181808D01*
X88336068Y-88431101D01*
X88515392Y-88649608D01*
X88733899Y-88828932D01*
X88983192Y-88962182D01*
X89253691Y-89044236D01*
X89464508Y-89065000D01*
X89605492Y-89065000D01*
X89816309Y-89044236D01*
X90086808Y-88962182D01*
X90336101Y-88828932D01*
X90554608Y-88649608D01*
X90733932Y-88431101D01*
X90867182Y-88181808D01*
X90949236Y-87911309D01*
X90976943Y-87630000D01*
X90949236Y-87348691D01*
X90867182Y-87078192D01*
X90733932Y-86828899D01*
X90554608Y-86610392D01*
X90336101Y-86431068D01*
X90203142Y-86360000D01*
X90336101Y-86288932D01*
X90554608Y-86109608D01*
X90733932Y-85891101D01*
X90867182Y-85641808D01*
X90949236Y-85371309D01*
X90976943Y-85090000D01*
X90949236Y-84808691D01*
X90867182Y-84538192D01*
X90733932Y-84288899D01*
X90554608Y-84070392D01*
X90336101Y-83891068D01*
X90203142Y-83820000D01*
X90336101Y-83748932D01*
X90554608Y-83569608D01*
X90733932Y-83351101D01*
X90867182Y-83101808D01*
X90949236Y-82831309D01*
X90976943Y-82550000D01*
X90949236Y-82268691D01*
X90867182Y-81998192D01*
X90733932Y-81748899D01*
X90554608Y-81530392D01*
X90336101Y-81351068D01*
X90203142Y-81280000D01*
X90336101Y-81208932D01*
X90554608Y-81029608D01*
X90733932Y-80811101D01*
X90867182Y-80561808D01*
X90949236Y-80291309D01*
X90976943Y-80010000D01*
X90949236Y-79728691D01*
X90867182Y-79458192D01*
X90733932Y-79208899D01*
X90554608Y-78990392D01*
X90336101Y-78811068D01*
X90086808Y-78677818D01*
X89816309Y-78595764D01*
X89605492Y-78575000D01*
X89464508Y-78575000D01*
X89253691Y-78595764D01*
X88983192Y-78677818D01*
X88733899Y-78811068D01*
X88515392Y-78990392D01*
X88336068Y-79208899D01*
X88202818Y-79458192D01*
X88120764Y-79728691D01*
X88093057Y-80010000D01*
X83350000Y-80010000D01*
X83350000Y-79882998D01*
X83191252Y-79882998D01*
X83350000Y-79724250D01*
X83353072Y-79210000D01*
X83340812Y-79085518D01*
X83304502Y-78965820D01*
X83245537Y-78855506D01*
X83166185Y-78758815D01*
X83069494Y-78679463D01*
X82959180Y-78620498D01*
X82839482Y-78584188D01*
X82715000Y-78571928D01*
X82200750Y-78575000D01*
X82042000Y-78733750D01*
X81788000Y-78733750D01*
X81629250Y-78575000D01*
X81115000Y-78571928D01*
X80990518Y-78584188D01*
X80870820Y-78620498D01*
X80760506Y-78679463D01*
X80670000Y-78753739D01*
X80670000Y-76962000D01*
X98888057Y-76962000D01*
X98915764Y-77243309D01*
X98997818Y-77513808D01*
X99131068Y-77763101D01*
X99310392Y-77981608D01*
X99528899Y-78160932D01*
X99661858Y-78232000D01*
X99528899Y-78303068D01*
X99310392Y-78482392D01*
X99131068Y-78700899D01*
X98997818Y-78950192D01*
X98915764Y-79220691D01*
X98888057Y-79502000D01*
X98915764Y-79783309D01*
X98997818Y-80053808D01*
X99131068Y-80303101D01*
X99310392Y-80521608D01*
X99528899Y-80700932D01*
X99661858Y-80772000D01*
X99528899Y-80843068D01*
X99310392Y-81022392D01*
X99131068Y-81240899D01*
X98997818Y-81490192D01*
X98915764Y-81760691D01*
X98888057Y-82042000D01*
X98915764Y-82323309D01*
X98997818Y-82593808D01*
X99131068Y-82843101D01*
X99310392Y-83061608D01*
X99528899Y-83240932D01*
X99661858Y-83312000D01*
X99528899Y-83383068D01*
X99310392Y-83562392D01*
X99131068Y-83780899D01*
X98997818Y-84030192D01*
X98915764Y-84300691D01*
X98888057Y-84582000D01*
X98915764Y-84863309D01*
X98997818Y-85133808D01*
X99131068Y-85383101D01*
X99310392Y-85601608D01*
X99528899Y-85780932D01*
X99661858Y-85852000D01*
X99528899Y-85923068D01*
X99310392Y-86102392D01*
X99131068Y-86320899D01*
X98997818Y-86570192D01*
X98915764Y-86840691D01*
X98888057Y-87122000D01*
X98915764Y-87403309D01*
X98997818Y-87673808D01*
X99131068Y-87923101D01*
X99310392Y-88141608D01*
X99528899Y-88320932D01*
X99661858Y-88392000D01*
X99528899Y-88463068D01*
X99310392Y-88642392D01*
X99131068Y-88860899D01*
X98997818Y-89110192D01*
X98915764Y-89380691D01*
X98888057Y-89662000D01*
X98915764Y-89943309D01*
X98997818Y-90213808D01*
X99131068Y-90463101D01*
X99310392Y-90681608D01*
X99528899Y-90860932D01*
X99661858Y-90932000D01*
X99528899Y-91003068D01*
X99310392Y-91182392D01*
X99131068Y-91400899D01*
X98997818Y-91650192D01*
X98915764Y-91920691D01*
X98888057Y-92202000D01*
X98915764Y-92483309D01*
X98997818Y-92753808D01*
X99131068Y-93003101D01*
X99310392Y-93221608D01*
X99528899Y-93400932D01*
X99661858Y-93472000D01*
X99528899Y-93543068D01*
X99310392Y-93722392D01*
X99131068Y-93940899D01*
X98997818Y-94190192D01*
X98915764Y-94460691D01*
X98888057Y-94742000D01*
X98915764Y-95023309D01*
X98997818Y-95293808D01*
X99131068Y-95543101D01*
X99310392Y-95761608D01*
X99528899Y-95940932D01*
X99661858Y-96012000D01*
X99528899Y-96083068D01*
X99310392Y-96262392D01*
X99131068Y-96480899D01*
X98997818Y-96730192D01*
X98915764Y-97000691D01*
X98888057Y-97282000D01*
X98915764Y-97563309D01*
X98997818Y-97833808D01*
X99131068Y-98083101D01*
X99310392Y-98301608D01*
X99528899Y-98480932D01*
X99661858Y-98552000D01*
X99528899Y-98623068D01*
X99310392Y-98802392D01*
X99131068Y-99020899D01*
X98997818Y-99270192D01*
X98915764Y-99540691D01*
X98888057Y-99822000D01*
X98915764Y-100103309D01*
X98997818Y-100373808D01*
X99131068Y-100623101D01*
X99310392Y-100841608D01*
X99528899Y-101020932D01*
X99661858Y-101092000D01*
X99528899Y-101163068D01*
X99310392Y-101342392D01*
X99131068Y-101560899D01*
X98997818Y-101810192D01*
X98915764Y-102080691D01*
X98888057Y-102362000D01*
X98915764Y-102643309D01*
X98997818Y-102913808D01*
X99131068Y-103163101D01*
X99310392Y-103381608D01*
X99528899Y-103560932D01*
X99778192Y-103694182D01*
X100048691Y-103776236D01*
X100259508Y-103797000D01*
X100400492Y-103797000D01*
X100611309Y-103776236D01*
X100881808Y-103694182D01*
X101131101Y-103560932D01*
X101349608Y-103381608D01*
X101528932Y-103163101D01*
X101662182Y-102913808D01*
X101744236Y-102643309D01*
X101771943Y-102362000D01*
X101744236Y-102080691D01*
X101662182Y-101810192D01*
X101528932Y-101560899D01*
X101349608Y-101342392D01*
X101131101Y-101163068D01*
X100998142Y-101092000D01*
X101131101Y-101020932D01*
X101349608Y-100841608D01*
X101528932Y-100623101D01*
X101662182Y-100373808D01*
X101744236Y-100103309D01*
X101771943Y-99822000D01*
X101744236Y-99540691D01*
X101662182Y-99270192D01*
X101528932Y-99020899D01*
X101349608Y-98802392D01*
X101131101Y-98623068D01*
X100998142Y-98552000D01*
X101131101Y-98480932D01*
X101349608Y-98301608D01*
X101528932Y-98083101D01*
X101662182Y-97833808D01*
X101744236Y-97563309D01*
X101771943Y-97282000D01*
X101744236Y-97000691D01*
X101662182Y-96730192D01*
X101528932Y-96480899D01*
X101349608Y-96262392D01*
X101131101Y-96083068D01*
X100998142Y-96012000D01*
X101131101Y-95940932D01*
X101349608Y-95761608D01*
X101528932Y-95543101D01*
X101662182Y-95293808D01*
X101744236Y-95023309D01*
X101771943Y-94742000D01*
X101744236Y-94460691D01*
X101662182Y-94190192D01*
X101528932Y-93940899D01*
X101349608Y-93722392D01*
X101131101Y-93543068D01*
X100998142Y-93472000D01*
X101131101Y-93400932D01*
X101349608Y-93221608D01*
X101528932Y-93003101D01*
X101662182Y-92753808D01*
X101744236Y-92483309D01*
X101771943Y-92202000D01*
X101744236Y-91920691D01*
X101662182Y-91650192D01*
X101528932Y-91400899D01*
X101349608Y-91182392D01*
X101131101Y-91003068D01*
X100998142Y-90932000D01*
X101131101Y-90860932D01*
X101349608Y-90681608D01*
X101528932Y-90463101D01*
X101662182Y-90213808D01*
X101744236Y-89943309D01*
X101771943Y-89662000D01*
X101744236Y-89380691D01*
X101662182Y-89110192D01*
X101528932Y-88860899D01*
X101349608Y-88642392D01*
X101131101Y-88463068D01*
X100998142Y-88392000D01*
X101131101Y-88320932D01*
X101349608Y-88141608D01*
X101528932Y-87923101D01*
X101662182Y-87673808D01*
X101744236Y-87403309D01*
X101771943Y-87122000D01*
X101744236Y-86840691D01*
X101662182Y-86570192D01*
X101528932Y-86320899D01*
X101349608Y-86102392D01*
X101131101Y-85923068D01*
X100998142Y-85852000D01*
X101131101Y-85780932D01*
X101349608Y-85601608D01*
X101528932Y-85383101D01*
X101662182Y-85133808D01*
X101744236Y-84863309D01*
X101771943Y-84582000D01*
X101744236Y-84300691D01*
X101662182Y-84030192D01*
X101528932Y-83780899D01*
X101349608Y-83562392D01*
X101131101Y-83383068D01*
X100998142Y-83312000D01*
X101131101Y-83240932D01*
X101349608Y-83061608D01*
X101528932Y-82843101D01*
X101662182Y-82593808D01*
X101744236Y-82323309D01*
X101771943Y-82042000D01*
X101744236Y-81760691D01*
X101662182Y-81490192D01*
X101528932Y-81240899D01*
X101349608Y-81022392D01*
X101131101Y-80843068D01*
X100998142Y-80772000D01*
X101131101Y-80700932D01*
X101349608Y-80521608D01*
X101528932Y-80303101D01*
X101662182Y-80053808D01*
X101744236Y-79783309D01*
X101771943Y-79502000D01*
X101744236Y-79220691D01*
X101662182Y-78950192D01*
X101528932Y-78700899D01*
X101349608Y-78482392D01*
X101131101Y-78303068D01*
X100998142Y-78232000D01*
X101131101Y-78160932D01*
X101349608Y-77981608D01*
X101528932Y-77763101D01*
X101662182Y-77513808D01*
X101744236Y-77243309D01*
X101771943Y-76962000D01*
X101744236Y-76680691D01*
X101662182Y-76410192D01*
X101528932Y-76160899D01*
X101349608Y-75942392D01*
X101131101Y-75763068D01*
X100993318Y-75689421D01*
X101185131Y-75574385D01*
X101393519Y-75385414D01*
X101561037Y-75159420D01*
X101681246Y-74905087D01*
X101721904Y-74771039D01*
X101599915Y-74549000D01*
X100457000Y-74549000D01*
X100457000Y-74569000D01*
X100203000Y-74569000D01*
X100203000Y-74549000D01*
X99060085Y-74549000D01*
X98938096Y-74771039D01*
X98978754Y-74905087D01*
X99098963Y-75159420D01*
X99266481Y-75385414D01*
X99474869Y-75574385D01*
X99666682Y-75689421D01*
X99528899Y-75763068D01*
X99310392Y-75942392D01*
X99131068Y-76160899D01*
X98997818Y-76410192D01*
X98915764Y-76680691D01*
X98888057Y-76962000D01*
X80670000Y-76962000D01*
X80670000Y-73315475D01*
X83710000Y-73315475D01*
X83710000Y-73834525D01*
X83811261Y-74343601D01*
X84009893Y-74823141D01*
X84298262Y-75254715D01*
X84665285Y-75621738D01*
X85096859Y-75910107D01*
X85576399Y-76108739D01*
X86085475Y-76210000D01*
X86604525Y-76210000D01*
X87113601Y-76108739D01*
X87593141Y-75910107D01*
X88024715Y-75621738D01*
X88391738Y-75254715D01*
X88680107Y-74823141D01*
X88878739Y-74343601D01*
X88980000Y-73834525D01*
X88980000Y-73315475D01*
X88878739Y-72806399D01*
X88850855Y-72739080D01*
X92460525Y-72739080D01*
X92544208Y-72993261D01*
X92816775Y-73124158D01*
X93109642Y-73199365D01*
X93411553Y-73215991D01*
X93710907Y-73173397D01*
X93996199Y-73073222D01*
X94145792Y-72993261D01*
X94229475Y-72739080D01*
X93345000Y-71854605D01*
X92460525Y-72739080D01*
X88850855Y-72739080D01*
X88680107Y-72326859D01*
X88391738Y-71895285D01*
X88238006Y-71741553D01*
X91804009Y-71741553D01*
X91846603Y-72040907D01*
X91946778Y-72326199D01*
X92026739Y-72475792D01*
X92280920Y-72559475D01*
X93165395Y-71675000D01*
X93524605Y-71675000D01*
X94409080Y-72559475D01*
X94663261Y-72475792D01*
X94794158Y-72203225D01*
X94869365Y-71910358D01*
X94885991Y-71608447D01*
X94843397Y-71309093D01*
X94743222Y-71023801D01*
X94663261Y-70874208D01*
X94409080Y-70790525D01*
X93524605Y-71675000D01*
X93165395Y-71675000D01*
X92280920Y-70790525D01*
X92026739Y-70874208D01*
X91895842Y-71146775D01*
X91820635Y-71439642D01*
X91804009Y-71741553D01*
X88238006Y-71741553D01*
X88024715Y-71528262D01*
X87593141Y-71239893D01*
X87113601Y-71041261D01*
X86604525Y-70940000D01*
X86085475Y-70940000D01*
X85576399Y-71041261D01*
X85096859Y-71239893D01*
X84665285Y-71528262D01*
X84298262Y-71895285D01*
X84009893Y-72326859D01*
X83811261Y-72806399D01*
X83710000Y-73315475D01*
X80670000Y-73315475D01*
X80670000Y-64515475D01*
X83710000Y-64515475D01*
X83710000Y-65034525D01*
X83811261Y-65543601D01*
X84009893Y-66023141D01*
X84298262Y-66454715D01*
X84665285Y-66821738D01*
X85096859Y-67110107D01*
X85576399Y-67308739D01*
X86085475Y-67410000D01*
X86604525Y-67410000D01*
X87113601Y-67308739D01*
X87593141Y-67110107D01*
X88024715Y-66821738D01*
X88322637Y-66523816D01*
X91810000Y-66523816D01*
X91810000Y-66826184D01*
X91868989Y-67122743D01*
X91984701Y-67402095D01*
X92152688Y-67653505D01*
X92366495Y-67867312D01*
X92452831Y-67925000D01*
X92366495Y-67982688D01*
X92152688Y-68196495D01*
X91984701Y-68447905D01*
X91868989Y-68727257D01*
X91810000Y-69023816D01*
X91810000Y-69326184D01*
X91868989Y-69622743D01*
X91984701Y-69902095D01*
X92152688Y-70153505D01*
X92366495Y-70367312D01*
X92509310Y-70462738D01*
X92460525Y-70610920D01*
X93345000Y-71495395D01*
X94229475Y-70610920D01*
X94180690Y-70462738D01*
X94323505Y-70367312D01*
X94537312Y-70153505D01*
X94705299Y-69902095D01*
X94821011Y-69622743D01*
X94876854Y-69342000D01*
X98888057Y-69342000D01*
X98915764Y-69623309D01*
X98997818Y-69893808D01*
X99131068Y-70143101D01*
X99310392Y-70361608D01*
X99528899Y-70540932D01*
X99661858Y-70612000D01*
X99528899Y-70683068D01*
X99310392Y-70862392D01*
X99131068Y-71080899D01*
X98997818Y-71330192D01*
X98915764Y-71600691D01*
X98888057Y-71882000D01*
X98915764Y-72163309D01*
X98997818Y-72433808D01*
X99131068Y-72683101D01*
X99310392Y-72901608D01*
X99528899Y-73080932D01*
X99666682Y-73154579D01*
X99474869Y-73269615D01*
X99266481Y-73458586D01*
X99098963Y-73684580D01*
X98978754Y-73938913D01*
X98938096Y-74072961D01*
X99060085Y-74295000D01*
X100203000Y-74295000D01*
X100203000Y-74275000D01*
X100457000Y-74275000D01*
X100457000Y-74295000D01*
X101599915Y-74295000D01*
X101721904Y-74072961D01*
X101681246Y-73938913D01*
X101561037Y-73684580D01*
X101393519Y-73458586D01*
X101185131Y-73269615D01*
X100993318Y-73154579D01*
X101131101Y-73080932D01*
X101349608Y-72901608D01*
X101528932Y-72683101D01*
X101662182Y-72433808D01*
X101744236Y-72163309D01*
X101771943Y-71882000D01*
X114128057Y-71882000D01*
X114155764Y-72163309D01*
X114237818Y-72433808D01*
X114371068Y-72683101D01*
X114550392Y-72901608D01*
X114768899Y-73080932D01*
X114901858Y-73152000D01*
X114768899Y-73223068D01*
X114550392Y-73402392D01*
X114371068Y-73620899D01*
X114237818Y-73870192D01*
X114155764Y-74140691D01*
X114128057Y-74422000D01*
X114155764Y-74703309D01*
X114237818Y-74973808D01*
X114371068Y-75223101D01*
X114550392Y-75441608D01*
X114768899Y-75620932D01*
X114901858Y-75692000D01*
X114768899Y-75763068D01*
X114550392Y-75942392D01*
X114371068Y-76160899D01*
X114237818Y-76410192D01*
X114155764Y-76680691D01*
X114128057Y-76962000D01*
X114155764Y-77243309D01*
X114237818Y-77513808D01*
X114371068Y-77763101D01*
X114550392Y-77981608D01*
X114768899Y-78160932D01*
X114901858Y-78232000D01*
X114768899Y-78303068D01*
X114550392Y-78482392D01*
X114371068Y-78700899D01*
X114237818Y-78950192D01*
X114155764Y-79220691D01*
X114128057Y-79502000D01*
X114155764Y-79783309D01*
X114237818Y-80053808D01*
X114371068Y-80303101D01*
X114550392Y-80521608D01*
X114768899Y-80700932D01*
X114901858Y-80772000D01*
X114768899Y-80843068D01*
X114550392Y-81022392D01*
X114371068Y-81240899D01*
X114237818Y-81490192D01*
X114155764Y-81760691D01*
X114128057Y-82042000D01*
X114155764Y-82323309D01*
X114237818Y-82593808D01*
X114371068Y-82843101D01*
X114550392Y-83061608D01*
X114768899Y-83240932D01*
X114901858Y-83312000D01*
X114768899Y-83383068D01*
X114550392Y-83562392D01*
X114371068Y-83780899D01*
X114237818Y-84030192D01*
X114155764Y-84300691D01*
X114128057Y-84582000D01*
X114155764Y-84863309D01*
X114237818Y-85133808D01*
X114371068Y-85383101D01*
X114550392Y-85601608D01*
X114768899Y-85780932D01*
X114901858Y-85852000D01*
X114768899Y-85923068D01*
X114550392Y-86102392D01*
X114371068Y-86320899D01*
X114237818Y-86570192D01*
X114155764Y-86840691D01*
X114128057Y-87122000D01*
X114155764Y-87403309D01*
X114237818Y-87673808D01*
X114371068Y-87923101D01*
X114550392Y-88141608D01*
X114768899Y-88320932D01*
X114901858Y-88392000D01*
X114768899Y-88463068D01*
X114550392Y-88642392D01*
X114371068Y-88860899D01*
X114237818Y-89110192D01*
X114155764Y-89380691D01*
X114128057Y-89662000D01*
X114155764Y-89943309D01*
X114237818Y-90213808D01*
X114371068Y-90463101D01*
X114550392Y-90681608D01*
X114768899Y-90860932D01*
X114901858Y-90932000D01*
X114768899Y-91003068D01*
X114550392Y-91182392D01*
X114371068Y-91400899D01*
X114237818Y-91650192D01*
X114155764Y-91920691D01*
X114128057Y-92202000D01*
X114155764Y-92483309D01*
X114237818Y-92753808D01*
X114371068Y-93003101D01*
X114550392Y-93221608D01*
X114768899Y-93400932D01*
X114901858Y-93472000D01*
X114768899Y-93543068D01*
X114550392Y-93722392D01*
X114371068Y-93940899D01*
X114237818Y-94190192D01*
X114155764Y-94460691D01*
X114128057Y-94742000D01*
X114155764Y-95023309D01*
X114237818Y-95293808D01*
X114371068Y-95543101D01*
X114550392Y-95761608D01*
X114768899Y-95940932D01*
X114901858Y-96012000D01*
X114768899Y-96083068D01*
X114550392Y-96262392D01*
X114371068Y-96480899D01*
X114237818Y-96730192D01*
X114155764Y-97000691D01*
X114128057Y-97282000D01*
X114155764Y-97563309D01*
X114237818Y-97833808D01*
X114371068Y-98083101D01*
X114550392Y-98301608D01*
X114768899Y-98480932D01*
X114901858Y-98552000D01*
X114768899Y-98623068D01*
X114550392Y-98802392D01*
X114371068Y-99020899D01*
X114237818Y-99270192D01*
X114155764Y-99540691D01*
X114128057Y-99822000D01*
X114155764Y-100103309D01*
X114237818Y-100373808D01*
X114371068Y-100623101D01*
X114550392Y-100841608D01*
X114768899Y-101020932D01*
X114901858Y-101092000D01*
X114768899Y-101163068D01*
X114550392Y-101342392D01*
X114371068Y-101560899D01*
X114237818Y-101810192D01*
X114155764Y-102080691D01*
X114128057Y-102362000D01*
X114155764Y-102643309D01*
X114237818Y-102913808D01*
X114371068Y-103163101D01*
X114550392Y-103381608D01*
X114768899Y-103560932D01*
X115018192Y-103694182D01*
X115288691Y-103776236D01*
X115499508Y-103797000D01*
X115640492Y-103797000D01*
X115851309Y-103776236D01*
X116121808Y-103694182D01*
X116371101Y-103560932D01*
X116589608Y-103381608D01*
X116768932Y-103163101D01*
X116902182Y-102913808D01*
X116984236Y-102643309D01*
X117011943Y-102362000D01*
X116984236Y-102080691D01*
X116902182Y-101810192D01*
X116768932Y-101560899D01*
X116589608Y-101342392D01*
X116371101Y-101163068D01*
X116238142Y-101092000D01*
X116371101Y-101020932D01*
X116589608Y-100841608D01*
X116768932Y-100623101D01*
X116902182Y-100373808D01*
X116984236Y-100103309D01*
X117011943Y-99822000D01*
X116984236Y-99540691D01*
X116902182Y-99270192D01*
X116768932Y-99020899D01*
X116669713Y-98900000D01*
X131732815Y-98900000D01*
X131761487Y-99191111D01*
X131846401Y-99471034D01*
X131984294Y-99729014D01*
X132169866Y-99955134D01*
X132395986Y-100140706D01*
X132421722Y-100154462D01*
X132215571Y-100310951D01*
X132022504Y-100528807D01*
X131875648Y-100780142D01*
X131783524Y-101043110D01*
X131904845Y-101273000D01*
X133223000Y-101273000D01*
X133223000Y-101253000D01*
X133477000Y-101253000D01*
X133477000Y-101273000D01*
X134795155Y-101273000D01*
X134916476Y-101043110D01*
X134824352Y-100780142D01*
X134677496Y-100528807D01*
X134484429Y-100310951D01*
X134278278Y-100154462D01*
X134304014Y-100140706D01*
X134530134Y-99955134D01*
X134715706Y-99729014D01*
X134853599Y-99471034D01*
X134938513Y-99191111D01*
X134967185Y-98900000D01*
X134966599Y-98894042D01*
X139285000Y-98894042D01*
X139285000Y-99225958D01*
X139349754Y-99551496D01*
X139476772Y-99858147D01*
X139661175Y-100134125D01*
X139895875Y-100368825D01*
X139980009Y-100425042D01*
X139978539Y-100428934D01*
X140970000Y-101420395D01*
X141961461Y-100428934D01*
X141959991Y-100425042D01*
X142044125Y-100368825D01*
X142278825Y-100134125D01*
X142463228Y-99858147D01*
X142590246Y-99551496D01*
X142655000Y-99225958D01*
X142655000Y-98894042D01*
X142590246Y-98568504D01*
X142463228Y-98261853D01*
X142278825Y-97985875D01*
X142044125Y-97751175D01*
X141959991Y-97694958D01*
X141961461Y-97691066D01*
X140970000Y-96699605D01*
X139978539Y-97691066D01*
X139980009Y-97694958D01*
X139895875Y-97751175D01*
X139661175Y-97985875D01*
X139476772Y-98261853D01*
X139349754Y-98568504D01*
X139285000Y-98894042D01*
X134966599Y-98894042D01*
X134938513Y-98608889D01*
X134853599Y-98328966D01*
X134715706Y-98070986D01*
X134530134Y-97844866D01*
X134304014Y-97659294D01*
X134278278Y-97645538D01*
X134484429Y-97489049D01*
X134677496Y-97271193D01*
X134824352Y-97019858D01*
X134916476Y-96756890D01*
X134823451Y-96580617D01*
X139277934Y-96580617D01*
X139322272Y-96909557D01*
X139429931Y-97223527D01*
X139529421Y-97409661D01*
X139798934Y-97511461D01*
X140790395Y-96520000D01*
X141149605Y-96520000D01*
X142141066Y-97511461D01*
X142410579Y-97409661D01*
X142556463Y-97111523D01*
X142641380Y-96790654D01*
X142662066Y-96459383D01*
X142617728Y-96130443D01*
X142510069Y-95816473D01*
X142410579Y-95630339D01*
X142141066Y-95528539D01*
X141149605Y-96520000D01*
X140790395Y-96520000D01*
X139798934Y-95528539D01*
X139529421Y-95630339D01*
X139383537Y-95928477D01*
X139298620Y-96249346D01*
X139277934Y-96580617D01*
X134823451Y-96580617D01*
X134795155Y-96527000D01*
X133477000Y-96527000D01*
X133477000Y-96547000D01*
X133223000Y-96547000D01*
X133223000Y-96527000D01*
X131904845Y-96527000D01*
X131783524Y-96756890D01*
X131875648Y-97019858D01*
X132022504Y-97271193D01*
X132215571Y-97489049D01*
X132421722Y-97645538D01*
X132395986Y-97659294D01*
X132169866Y-97844866D01*
X131984294Y-98070986D01*
X131846401Y-98328966D01*
X131761487Y-98608889D01*
X131732815Y-98900000D01*
X116669713Y-98900000D01*
X116589608Y-98802392D01*
X116371101Y-98623068D01*
X116238142Y-98552000D01*
X116371101Y-98480932D01*
X116589608Y-98301608D01*
X116768932Y-98083101D01*
X116902182Y-97833808D01*
X116984236Y-97563309D01*
X117011943Y-97282000D01*
X116984236Y-97000691D01*
X116902182Y-96730192D01*
X116768932Y-96480899D01*
X116589608Y-96262392D01*
X116371101Y-96083068D01*
X116238142Y-96012000D01*
X116371101Y-95940932D01*
X116589608Y-95761608D01*
X116768932Y-95543101D01*
X116902182Y-95293808D01*
X116984236Y-95023309D01*
X117011943Y-94742000D01*
X116984236Y-94460691D01*
X116902182Y-94190192D01*
X116768932Y-93940899D01*
X116735368Y-93900000D01*
X131732815Y-93900000D01*
X131761487Y-94191111D01*
X131846401Y-94471034D01*
X131984294Y-94729014D01*
X132169866Y-94955134D01*
X132395986Y-95140706D01*
X132421722Y-95154462D01*
X132215571Y-95310951D01*
X132022504Y-95528807D01*
X131875648Y-95780142D01*
X131783524Y-96043110D01*
X131904845Y-96273000D01*
X133223000Y-96273000D01*
X133223000Y-96253000D01*
X133477000Y-96253000D01*
X133477000Y-96273000D01*
X134795155Y-96273000D01*
X134916476Y-96043110D01*
X134824352Y-95780142D01*
X134677496Y-95528807D01*
X134484429Y-95310951D01*
X134278278Y-95154462D01*
X134304014Y-95140706D01*
X134530134Y-94955134D01*
X134715706Y-94729014D01*
X134853599Y-94471034D01*
X134938513Y-94191111D01*
X134967185Y-93900000D01*
X134958719Y-93814042D01*
X139285000Y-93814042D01*
X139285000Y-94145958D01*
X139349754Y-94471496D01*
X139476772Y-94778147D01*
X139661175Y-95054125D01*
X139895875Y-95288825D01*
X139980009Y-95345042D01*
X139978539Y-95348934D01*
X140970000Y-96340395D01*
X141961461Y-95348934D01*
X141959991Y-95345042D01*
X142044125Y-95288825D01*
X142278825Y-95054125D01*
X142463228Y-94778147D01*
X142590246Y-94471496D01*
X142655000Y-94145958D01*
X142655000Y-93814042D01*
X142590246Y-93488504D01*
X142463228Y-93181853D01*
X142278825Y-92905875D01*
X142044125Y-92671175D01*
X141959991Y-92614958D01*
X141961461Y-92611066D01*
X140970000Y-91619605D01*
X139978539Y-92611066D01*
X139980009Y-92614958D01*
X139895875Y-92671175D01*
X139661175Y-92905875D01*
X139476772Y-93181853D01*
X139349754Y-93488504D01*
X139285000Y-93814042D01*
X134958719Y-93814042D01*
X134938513Y-93608889D01*
X134853599Y-93328966D01*
X134715706Y-93070986D01*
X134530134Y-92844866D01*
X134304014Y-92659294D01*
X134278278Y-92645538D01*
X134484429Y-92489049D01*
X134677496Y-92271193D01*
X134824352Y-92019858D01*
X134916476Y-91756890D01*
X134795155Y-91527000D01*
X133477000Y-91527000D01*
X133477000Y-91547000D01*
X133223000Y-91547000D01*
X133223000Y-91527000D01*
X131904845Y-91527000D01*
X131783524Y-91756890D01*
X131875648Y-92019858D01*
X132022504Y-92271193D01*
X132215571Y-92489049D01*
X132421722Y-92645538D01*
X132395986Y-92659294D01*
X132169866Y-92844866D01*
X131984294Y-93070986D01*
X131846401Y-93328966D01*
X131761487Y-93608889D01*
X131732815Y-93900000D01*
X116735368Y-93900000D01*
X116589608Y-93722392D01*
X116371101Y-93543068D01*
X116238142Y-93472000D01*
X116371101Y-93400932D01*
X116589608Y-93221608D01*
X116768932Y-93003101D01*
X116902182Y-92753808D01*
X116984236Y-92483309D01*
X117011943Y-92202000D01*
X116984236Y-91920691D01*
X116902182Y-91650192D01*
X116822233Y-91500617D01*
X139277934Y-91500617D01*
X139322272Y-91829557D01*
X139429931Y-92143527D01*
X139529421Y-92329661D01*
X139798934Y-92431461D01*
X140790395Y-91440000D01*
X140776253Y-91425858D01*
X140955858Y-91246253D01*
X140970000Y-91260395D01*
X140984143Y-91246253D01*
X141163748Y-91425858D01*
X141149605Y-91440000D01*
X142141066Y-92431461D01*
X142410579Y-92329661D01*
X142556463Y-92031523D01*
X142641380Y-91710654D01*
X142662066Y-91379383D01*
X142617728Y-91050443D01*
X142510069Y-90736473D01*
X142410579Y-90550339D01*
X142312918Y-90513451D01*
X142374494Y-90480537D01*
X142471185Y-90401185D01*
X142550537Y-90304494D01*
X142609502Y-90194180D01*
X142645812Y-90074482D01*
X142658072Y-89950000D01*
X142658072Y-87850000D01*
X142645812Y-87725518D01*
X142609502Y-87605820D01*
X142550537Y-87495506D01*
X142471185Y-87398815D01*
X142374494Y-87319463D01*
X142264180Y-87260498D01*
X142144482Y-87224188D01*
X142020000Y-87211928D01*
X139920000Y-87211928D01*
X139795518Y-87224188D01*
X139675820Y-87260498D01*
X139565506Y-87319463D01*
X139468815Y-87398815D01*
X139389463Y-87495506D01*
X139330498Y-87605820D01*
X139294188Y-87725518D01*
X139281928Y-87850000D01*
X139281928Y-89950000D01*
X139294188Y-90074482D01*
X139330498Y-90194180D01*
X139389463Y-90304494D01*
X139468815Y-90401185D01*
X139565506Y-90480537D01*
X139627082Y-90513451D01*
X139529421Y-90550339D01*
X139383537Y-90848477D01*
X139298620Y-91169346D01*
X139277934Y-91500617D01*
X116822233Y-91500617D01*
X116768932Y-91400899D01*
X116589608Y-91182392D01*
X116371101Y-91003068D01*
X116238142Y-90932000D01*
X116371101Y-90860932D01*
X116589608Y-90681608D01*
X116768932Y-90463101D01*
X116902182Y-90213808D01*
X116984236Y-89943309D01*
X117011943Y-89662000D01*
X116984236Y-89380691D01*
X116902182Y-89110192D01*
X116768932Y-88860899D01*
X116589608Y-88642392D01*
X116371101Y-88463068D01*
X116238142Y-88392000D01*
X116371101Y-88320932D01*
X116396606Y-88300000D01*
X131736928Y-88300000D01*
X131736928Y-89500000D01*
X131753992Y-89673254D01*
X131804528Y-89839850D01*
X131886595Y-89993386D01*
X131997038Y-90127962D01*
X132131614Y-90238405D01*
X132236961Y-90294714D01*
X132215571Y-90310951D01*
X132022504Y-90528807D01*
X131875648Y-90780142D01*
X131783524Y-91043110D01*
X131904845Y-91273000D01*
X133223000Y-91273000D01*
X133223000Y-91253000D01*
X133477000Y-91253000D01*
X133477000Y-91273000D01*
X134795155Y-91273000D01*
X134916476Y-91043110D01*
X134824352Y-90780142D01*
X134677496Y-90528807D01*
X134484429Y-90310951D01*
X134463039Y-90294714D01*
X134568386Y-90238405D01*
X134702962Y-90127962D01*
X134813405Y-89993386D01*
X134895472Y-89839850D01*
X134946008Y-89673254D01*
X134963072Y-89500000D01*
X134963072Y-88300000D01*
X134946008Y-88126746D01*
X134895472Y-87960150D01*
X134813405Y-87806614D01*
X134702962Y-87672038D01*
X134568386Y-87561595D01*
X134414850Y-87479528D01*
X134248254Y-87428992D01*
X134075000Y-87411928D01*
X132625000Y-87411928D01*
X132451746Y-87428992D01*
X132285150Y-87479528D01*
X132131614Y-87561595D01*
X131997038Y-87672038D01*
X131886595Y-87806614D01*
X131804528Y-87960150D01*
X131753992Y-88126746D01*
X131736928Y-88300000D01*
X116396606Y-88300000D01*
X116589608Y-88141608D01*
X116768932Y-87923101D01*
X116902182Y-87673808D01*
X116984236Y-87403309D01*
X117011943Y-87122000D01*
X116984236Y-86840691D01*
X116902182Y-86570192D01*
X116768932Y-86320899D01*
X116589608Y-86102392D01*
X116371101Y-85923068D01*
X116238142Y-85852000D01*
X116371101Y-85780932D01*
X116589608Y-85601608D01*
X116768932Y-85383101D01*
X116902182Y-85133808D01*
X116984236Y-84863309D01*
X117011943Y-84582000D01*
X116984236Y-84300691D01*
X116902182Y-84030192D01*
X116768932Y-83780899D01*
X116589608Y-83562392D01*
X116371101Y-83383068D01*
X116238142Y-83312000D01*
X116371101Y-83240932D01*
X116589608Y-83061608D01*
X116768932Y-82843101D01*
X116798977Y-82786890D01*
X131783524Y-82786890D01*
X131875648Y-83049858D01*
X132022504Y-83301193D01*
X132215571Y-83519049D01*
X132447430Y-83695053D01*
X132709170Y-83822442D01*
X132990733Y-83896320D01*
X133223000Y-83756165D01*
X133223000Y-82557000D01*
X133477000Y-82557000D01*
X133477000Y-83756165D01*
X133709267Y-83896320D01*
X133990830Y-83822442D01*
X134199122Y-83721066D01*
X139978539Y-83721066D01*
X140080339Y-83990579D01*
X140378477Y-84136463D01*
X140699346Y-84221380D01*
X141030617Y-84242066D01*
X141359557Y-84197728D01*
X141673527Y-84090069D01*
X141859661Y-83990579D01*
X141961461Y-83721066D01*
X140970000Y-82729605D01*
X139978539Y-83721066D01*
X134199122Y-83721066D01*
X134252570Y-83695053D01*
X134484429Y-83519049D01*
X134677496Y-83301193D01*
X134824352Y-83049858D01*
X134916476Y-82786890D01*
X134823451Y-82610617D01*
X139277934Y-82610617D01*
X139322272Y-82939557D01*
X139429931Y-83253527D01*
X139529421Y-83439661D01*
X139798934Y-83541461D01*
X140790395Y-82550000D01*
X141149605Y-82550000D01*
X142141066Y-83541461D01*
X142410579Y-83439661D01*
X142556463Y-83141523D01*
X142641380Y-82820654D01*
X142662066Y-82489383D01*
X142617728Y-82160443D01*
X142510069Y-81846473D01*
X142410579Y-81660339D01*
X142141066Y-81558539D01*
X141149605Y-82550000D01*
X140790395Y-82550000D01*
X139798934Y-81558539D01*
X139529421Y-81660339D01*
X139383537Y-81958477D01*
X139298620Y-82279346D01*
X139277934Y-82610617D01*
X134823451Y-82610617D01*
X134795155Y-82557000D01*
X133477000Y-82557000D01*
X133223000Y-82557000D01*
X131904845Y-82557000D01*
X131783524Y-82786890D01*
X116798977Y-82786890D01*
X116902182Y-82593808D01*
X116984236Y-82323309D01*
X117011943Y-82042000D01*
X116984236Y-81760691D01*
X116902182Y-81490192D01*
X116768932Y-81240899D01*
X116589608Y-81022392D01*
X116371101Y-80843068D01*
X116238142Y-80772000D01*
X116371101Y-80700932D01*
X116589608Y-80521608D01*
X116768932Y-80303101D01*
X116902182Y-80053808D01*
X116984236Y-79783309D01*
X117011943Y-79502000D01*
X116984236Y-79220691D01*
X116902182Y-78950192D01*
X116768932Y-78700899D01*
X116589608Y-78482392D01*
X116371101Y-78303068D01*
X116238142Y-78232000D01*
X116371101Y-78160932D01*
X116589608Y-77981608D01*
X116768932Y-77763101D01*
X116902182Y-77513808D01*
X116927604Y-77430000D01*
X131732815Y-77430000D01*
X131761487Y-77721111D01*
X131846401Y-78001034D01*
X131984294Y-78259014D01*
X132169866Y-78485134D01*
X132395986Y-78670706D01*
X132413374Y-78680000D01*
X132395986Y-78689294D01*
X132169866Y-78874866D01*
X131984294Y-79100986D01*
X131846401Y-79358966D01*
X131761487Y-79638889D01*
X131732815Y-79930000D01*
X131761487Y-80221111D01*
X131846401Y-80501034D01*
X131984294Y-80759014D01*
X132169866Y-80985134D01*
X132395986Y-81170706D01*
X132421722Y-81184462D01*
X132215571Y-81340951D01*
X132022504Y-81558807D01*
X131875648Y-81810142D01*
X131783524Y-82073110D01*
X131904845Y-82303000D01*
X133223000Y-82303000D01*
X133223000Y-82283000D01*
X133477000Y-82283000D01*
X133477000Y-82303000D01*
X134795155Y-82303000D01*
X134916476Y-82073110D01*
X134824352Y-81810142D01*
X134677496Y-81558807D01*
X134484429Y-81340951D01*
X134278278Y-81184462D01*
X134304014Y-81170706D01*
X134530134Y-80985134D01*
X134715706Y-80759014D01*
X134853599Y-80501034D01*
X134938513Y-80221111D01*
X134967185Y-79930000D01*
X134938513Y-79638889D01*
X134853599Y-79358966D01*
X134715706Y-79100986D01*
X134530134Y-78874866D01*
X134304014Y-78689294D01*
X134286626Y-78680000D01*
X134304014Y-78670706D01*
X134530134Y-78485134D01*
X134715706Y-78259014D01*
X134853599Y-78001034D01*
X134938513Y-77721111D01*
X134967185Y-77430000D01*
X134938513Y-77138889D01*
X134853599Y-76858966D01*
X134715706Y-76600986D01*
X134530134Y-76374866D01*
X134466663Y-76322777D01*
X134568386Y-76268405D01*
X134702962Y-76157962D01*
X134813405Y-76023386D01*
X134895472Y-75869850D01*
X134946008Y-75703254D01*
X134963072Y-75530000D01*
X134963072Y-74330000D01*
X134946008Y-74156746D01*
X134895472Y-73990150D01*
X134836596Y-73880000D01*
X139281928Y-73880000D01*
X139281928Y-75980000D01*
X139294188Y-76104482D01*
X139330498Y-76224180D01*
X139389463Y-76334494D01*
X139468815Y-76431185D01*
X139565506Y-76510537D01*
X139579546Y-76518042D01*
X139476772Y-76671853D01*
X139349754Y-76978504D01*
X139285000Y-77304042D01*
X139285000Y-77635958D01*
X139349754Y-77961496D01*
X139476772Y-78268147D01*
X139661175Y-78544125D01*
X139857050Y-78740000D01*
X139661175Y-78935875D01*
X139476772Y-79211853D01*
X139349754Y-79518504D01*
X139285000Y-79844042D01*
X139285000Y-80175958D01*
X139349754Y-80501496D01*
X139476772Y-80808147D01*
X139661175Y-81084125D01*
X139895875Y-81318825D01*
X139980009Y-81375042D01*
X139978539Y-81378934D01*
X140970000Y-82370395D01*
X141961461Y-81378934D01*
X141959991Y-81375042D01*
X142044125Y-81318825D01*
X142278825Y-81084125D01*
X142463228Y-80808147D01*
X142590246Y-80501496D01*
X142655000Y-80175958D01*
X142655000Y-79844042D01*
X142590246Y-79518504D01*
X142463228Y-79211853D01*
X142278825Y-78935875D01*
X142082950Y-78740000D01*
X142278825Y-78544125D01*
X142463228Y-78268147D01*
X142590246Y-77961496D01*
X142655000Y-77635958D01*
X142655000Y-77304042D01*
X142590246Y-76978504D01*
X142463228Y-76671853D01*
X142360454Y-76518042D01*
X142374494Y-76510537D01*
X142471185Y-76431185D01*
X142550537Y-76334494D01*
X142609502Y-76224180D01*
X142645812Y-76104482D01*
X142658072Y-75980000D01*
X142658072Y-73880000D01*
X142645812Y-73755518D01*
X142609502Y-73635820D01*
X142550537Y-73525506D01*
X142471185Y-73428815D01*
X142374494Y-73349463D01*
X142264180Y-73290498D01*
X142144482Y-73254188D01*
X142020000Y-73241928D01*
X139920000Y-73241928D01*
X139795518Y-73254188D01*
X139675820Y-73290498D01*
X139565506Y-73349463D01*
X139468815Y-73428815D01*
X139389463Y-73525506D01*
X139330498Y-73635820D01*
X139294188Y-73755518D01*
X139281928Y-73880000D01*
X134836596Y-73880000D01*
X134813405Y-73836614D01*
X134702962Y-73702038D01*
X134568386Y-73591595D01*
X134414850Y-73509528D01*
X134248254Y-73458992D01*
X134075000Y-73441928D01*
X132625000Y-73441928D01*
X132451746Y-73458992D01*
X132285150Y-73509528D01*
X132131614Y-73591595D01*
X131997038Y-73702038D01*
X131886595Y-73836614D01*
X131804528Y-73990150D01*
X131753992Y-74156746D01*
X131736928Y-74330000D01*
X131736928Y-75530000D01*
X131753992Y-75703254D01*
X131804528Y-75869850D01*
X131886595Y-76023386D01*
X131997038Y-76157962D01*
X132131614Y-76268405D01*
X132233337Y-76322777D01*
X132169866Y-76374866D01*
X131984294Y-76600986D01*
X131846401Y-76858966D01*
X131761487Y-77138889D01*
X131732815Y-77430000D01*
X116927604Y-77430000D01*
X116984236Y-77243309D01*
X117011943Y-76962000D01*
X116984236Y-76680691D01*
X116902182Y-76410192D01*
X116768932Y-76160899D01*
X116589608Y-75942392D01*
X116371101Y-75763068D01*
X116238142Y-75692000D01*
X116371101Y-75620932D01*
X116589608Y-75441608D01*
X116768932Y-75223101D01*
X116902182Y-74973808D01*
X116984236Y-74703309D01*
X117011943Y-74422000D01*
X116984236Y-74140691D01*
X116902182Y-73870192D01*
X116768932Y-73620899D01*
X116589608Y-73402392D01*
X116371101Y-73223068D01*
X116238142Y-73152000D01*
X116371101Y-73080932D01*
X116589608Y-72901608D01*
X116768932Y-72683101D01*
X116902182Y-72433808D01*
X116984236Y-72163309D01*
X117011943Y-71882000D01*
X116984236Y-71600691D01*
X116902182Y-71330192D01*
X116768932Y-71080899D01*
X116589608Y-70862392D01*
X116371101Y-70683068D01*
X116233318Y-70609421D01*
X116425131Y-70494385D01*
X116633519Y-70305414D01*
X116801037Y-70079420D01*
X116921246Y-69825087D01*
X116961904Y-69691039D01*
X116839915Y-69469000D01*
X115697000Y-69469000D01*
X115697000Y-69489000D01*
X115443000Y-69489000D01*
X115443000Y-69469000D01*
X114300085Y-69469000D01*
X114178096Y-69691039D01*
X114218754Y-69825087D01*
X114338963Y-70079420D01*
X114506481Y-70305414D01*
X114714869Y-70494385D01*
X114906682Y-70609421D01*
X114768899Y-70683068D01*
X114550392Y-70862392D01*
X114371068Y-71080899D01*
X114237818Y-71330192D01*
X114155764Y-71600691D01*
X114128057Y-71882000D01*
X101771943Y-71882000D01*
X101744236Y-71600691D01*
X101662182Y-71330192D01*
X101528932Y-71080899D01*
X101349608Y-70862392D01*
X101131101Y-70683068D01*
X100998142Y-70612000D01*
X101131101Y-70540932D01*
X101349608Y-70361608D01*
X101528932Y-70143101D01*
X101662182Y-69893808D01*
X101744236Y-69623309D01*
X101771943Y-69342000D01*
X101744236Y-69060691D01*
X101662182Y-68790192D01*
X101528932Y-68540899D01*
X101349608Y-68322392D01*
X101236518Y-68229581D01*
X101254482Y-68227812D01*
X101374180Y-68191502D01*
X101484494Y-68132537D01*
X101581185Y-68053185D01*
X101660537Y-67956494D01*
X101719502Y-67846180D01*
X101755812Y-67726482D01*
X101768072Y-67602000D01*
X101768072Y-66802000D01*
X114128057Y-66802000D01*
X114155764Y-67083309D01*
X114237818Y-67353808D01*
X114371068Y-67603101D01*
X114550392Y-67821608D01*
X114768899Y-68000932D01*
X114906682Y-68074579D01*
X114714869Y-68189615D01*
X114506481Y-68378586D01*
X114338963Y-68604580D01*
X114218754Y-68858913D01*
X114178096Y-68992961D01*
X114300085Y-69215000D01*
X115443000Y-69215000D01*
X115443000Y-69195000D01*
X115697000Y-69195000D01*
X115697000Y-69215000D01*
X116839915Y-69215000D01*
X116961904Y-68992961D01*
X116921246Y-68858913D01*
X116920674Y-68857702D01*
X119582903Y-68857702D01*
X119654486Y-69101671D01*
X119909996Y-69222571D01*
X120184184Y-69291300D01*
X120466512Y-69305217D01*
X120746130Y-69263787D01*
X121012292Y-69168603D01*
X121137514Y-69101671D01*
X121209097Y-68857702D01*
X120396000Y-68044605D01*
X119582903Y-68857702D01*
X116920674Y-68857702D01*
X116801037Y-68604580D01*
X116633519Y-68378586D01*
X116425131Y-68189615D01*
X116233318Y-68074579D01*
X116371101Y-68000932D01*
X116450815Y-67935512D01*
X118955783Y-67935512D01*
X118997213Y-68215130D01*
X119092397Y-68481292D01*
X119159329Y-68606514D01*
X119403298Y-68678097D01*
X120216395Y-67865000D01*
X120575605Y-67865000D01*
X121388702Y-68678097D01*
X121632671Y-68606514D01*
X121753571Y-68351004D01*
X121822300Y-68076816D01*
X121826446Y-67992702D01*
X126186903Y-67992702D01*
X126258486Y-68236671D01*
X126513996Y-68357571D01*
X126788184Y-68426300D01*
X127070512Y-68440217D01*
X127350130Y-68398787D01*
X127599131Y-68309740D01*
X137943964Y-68309740D01*
X137968245Y-68415087D01*
X138088138Y-68692204D01*
X138259790Y-68940606D01*
X138476604Y-69150748D01*
X138730249Y-69314554D01*
X139010977Y-69425729D01*
X139308000Y-69480000D01*
X140208000Y-69480000D01*
X140208000Y-68072000D01*
X140462000Y-68072000D01*
X140462000Y-69480000D01*
X141362000Y-69480000D01*
X141659023Y-69425729D01*
X141939751Y-69314554D01*
X142193396Y-69150748D01*
X142410210Y-68940606D01*
X142581862Y-68692204D01*
X142701755Y-68415087D01*
X142726036Y-68309740D01*
X142605378Y-68072000D01*
X140462000Y-68072000D01*
X140208000Y-68072000D01*
X138064622Y-68072000D01*
X137943964Y-68309740D01*
X127599131Y-68309740D01*
X127616292Y-68303603D01*
X127741514Y-68236671D01*
X127813097Y-67992702D01*
X127000000Y-67179605D01*
X126186903Y-67992702D01*
X121826446Y-67992702D01*
X121836217Y-67794488D01*
X121794787Y-67514870D01*
X121699603Y-67248708D01*
X121632671Y-67123486D01*
X121452126Y-67070512D01*
X125559783Y-67070512D01*
X125601213Y-67350130D01*
X125696397Y-67616292D01*
X125763329Y-67741514D01*
X126007298Y-67813097D01*
X126820395Y-67000000D01*
X127179605Y-67000000D01*
X127992702Y-67813097D01*
X128236671Y-67741514D01*
X128312971Y-67580260D01*
X137943964Y-67580260D01*
X138064622Y-67818000D01*
X140208000Y-67818000D01*
X140208000Y-67798000D01*
X140462000Y-67798000D01*
X140462000Y-67818000D01*
X142605378Y-67818000D01*
X142726036Y-67580260D01*
X142701755Y-67474913D01*
X142581862Y-67197796D01*
X142410210Y-66949394D01*
X142193396Y-66739252D01*
X141939751Y-66575446D01*
X141659023Y-66464271D01*
X141362000Y-66410000D01*
X139308000Y-66410000D01*
X139010977Y-66464271D01*
X138730249Y-66575446D01*
X138476604Y-66739252D01*
X138259790Y-66949394D01*
X138088138Y-67197796D01*
X137968245Y-67474913D01*
X137943964Y-67580260D01*
X128312971Y-67580260D01*
X128357571Y-67486004D01*
X128426300Y-67211816D01*
X128440217Y-66929488D01*
X128398787Y-66649870D01*
X128303603Y-66383708D01*
X128236671Y-66258486D01*
X127992702Y-66186903D01*
X127179605Y-67000000D01*
X126820395Y-67000000D01*
X126007298Y-66186903D01*
X125763329Y-66258486D01*
X125642429Y-66513996D01*
X125573700Y-66788184D01*
X125559783Y-67070512D01*
X121452126Y-67070512D01*
X121388702Y-67051903D01*
X120575605Y-67865000D01*
X120216395Y-67865000D01*
X119403298Y-67051903D01*
X119159329Y-67123486D01*
X119038429Y-67378996D01*
X118969700Y-67653184D01*
X118955783Y-67935512D01*
X116450815Y-67935512D01*
X116589608Y-67821608D01*
X116768932Y-67603101D01*
X116902182Y-67353808D01*
X116984236Y-67083309D01*
X117005019Y-66872298D01*
X119582903Y-66872298D01*
X120396000Y-67685395D01*
X121209097Y-66872298D01*
X121137514Y-66628329D01*
X120882004Y-66507429D01*
X120607816Y-66438700D01*
X120325488Y-66424783D01*
X120045870Y-66466213D01*
X119779708Y-66561397D01*
X119654486Y-66628329D01*
X119582903Y-66872298D01*
X117005019Y-66872298D01*
X117011943Y-66802000D01*
X116984236Y-66520691D01*
X116902182Y-66250192D01*
X116772353Y-66007298D01*
X126186903Y-66007298D01*
X127000000Y-66820395D01*
X127813097Y-66007298D01*
X127741514Y-65763329D01*
X127486004Y-65642429D01*
X127211816Y-65573700D01*
X126929488Y-65559783D01*
X126649870Y-65601213D01*
X126383708Y-65696397D01*
X126258486Y-65763329D01*
X126186903Y-66007298D01*
X116772353Y-66007298D01*
X116768932Y-66000899D01*
X116589608Y-65782392D01*
X116371101Y-65603068D01*
X116121808Y-65469818D01*
X115851309Y-65387764D01*
X115640492Y-65367000D01*
X115499508Y-65367000D01*
X115288691Y-65387764D01*
X115018192Y-65469818D01*
X114768899Y-65603068D01*
X114550392Y-65782392D01*
X114371068Y-66000899D01*
X114237818Y-66250192D01*
X114155764Y-66520691D01*
X114128057Y-66802000D01*
X101768072Y-66802000D01*
X101768072Y-66002000D01*
X101755812Y-65877518D01*
X101719502Y-65757820D01*
X101660537Y-65647506D01*
X101581185Y-65550815D01*
X101484494Y-65471463D01*
X101374180Y-65412498D01*
X101254482Y-65376188D01*
X101130000Y-65363928D01*
X99530000Y-65363928D01*
X99405518Y-65376188D01*
X99285820Y-65412498D01*
X99175506Y-65471463D01*
X99078815Y-65550815D01*
X98999463Y-65647506D01*
X98940498Y-65757820D01*
X98904188Y-65877518D01*
X98891928Y-66002000D01*
X98891928Y-67602000D01*
X98904188Y-67726482D01*
X98940498Y-67846180D01*
X98999463Y-67956494D01*
X99078815Y-68053185D01*
X99175506Y-68132537D01*
X99285820Y-68191502D01*
X99405518Y-68227812D01*
X99423482Y-68229581D01*
X99310392Y-68322392D01*
X99131068Y-68540899D01*
X98997818Y-68790192D01*
X98915764Y-69060691D01*
X98888057Y-69342000D01*
X94876854Y-69342000D01*
X94880000Y-69326184D01*
X94880000Y-69023816D01*
X94821011Y-68727257D01*
X94705299Y-68447905D01*
X94537312Y-68196495D01*
X94323505Y-67982688D01*
X94237169Y-67925000D01*
X94323505Y-67867312D01*
X94537312Y-67653505D01*
X94705299Y-67402095D01*
X94821011Y-67122743D01*
X94880000Y-66826184D01*
X94880000Y-66523816D01*
X94821011Y-66227257D01*
X94705299Y-65947905D01*
X94537312Y-65696495D01*
X94323505Y-65482688D01*
X94072095Y-65314701D01*
X93792743Y-65198989D01*
X93496184Y-65140000D01*
X93193816Y-65140000D01*
X92897257Y-65198989D01*
X92617905Y-65314701D01*
X92366495Y-65482688D01*
X92152688Y-65696495D01*
X91984701Y-65947905D01*
X91868989Y-66227257D01*
X91810000Y-66523816D01*
X88322637Y-66523816D01*
X88391738Y-66454715D01*
X88680107Y-66023141D01*
X88878739Y-65543601D01*
X88980000Y-65034525D01*
X88980000Y-64515475D01*
X88878739Y-64006399D01*
X88680107Y-63526859D01*
X88391738Y-63095285D01*
X88024715Y-62728262D01*
X88017836Y-62723665D01*
X118961000Y-62723665D01*
X118961000Y-63006335D01*
X119016147Y-63283574D01*
X119124320Y-63544727D01*
X119281363Y-63779759D01*
X119481241Y-63979637D01*
X119716273Y-64136680D01*
X119977426Y-64244853D01*
X120254665Y-64300000D01*
X120537335Y-64300000D01*
X120814574Y-64244853D01*
X121075727Y-64136680D01*
X121310759Y-63979637D01*
X121510637Y-63779759D01*
X121667680Y-63544727D01*
X121744749Y-63358665D01*
X125565000Y-63358665D01*
X125565000Y-63641335D01*
X125620147Y-63918574D01*
X125728320Y-64179727D01*
X125885363Y-64414759D01*
X126085241Y-64614637D01*
X126320273Y-64771680D01*
X126581426Y-64879853D01*
X126858665Y-64935000D01*
X127141335Y-64935000D01*
X127418574Y-64879853D01*
X127679727Y-64771680D01*
X127914759Y-64614637D01*
X128114637Y-64414759D01*
X128271680Y-64179727D01*
X128379853Y-63918574D01*
X128435000Y-63641335D01*
X128435000Y-63358665D01*
X128379853Y-63081426D01*
X128271680Y-62820273D01*
X128114637Y-62585241D01*
X127914759Y-62385363D01*
X127679727Y-62228320D01*
X127647570Y-62215000D01*
X137896928Y-62215000D01*
X137896928Y-63515000D01*
X137913992Y-63688254D01*
X137964528Y-63854850D01*
X138046595Y-64008386D01*
X138157038Y-64142962D01*
X138291614Y-64253405D01*
X138445150Y-64335472D01*
X138611746Y-64386008D01*
X138785000Y-64403072D01*
X141885000Y-64403072D01*
X142058254Y-64386008D01*
X142224850Y-64335472D01*
X142378386Y-64253405D01*
X142512962Y-64142962D01*
X142623405Y-64008386D01*
X142705472Y-63854850D01*
X142756008Y-63688254D01*
X142773072Y-63515000D01*
X142773072Y-62215000D01*
X142756008Y-62041746D01*
X142705472Y-61875150D01*
X142623405Y-61721614D01*
X142512962Y-61587038D01*
X142378386Y-61476595D01*
X142224850Y-61394528D01*
X142058254Y-61343992D01*
X141885000Y-61326928D01*
X138785000Y-61326928D01*
X138611746Y-61343992D01*
X138445150Y-61394528D01*
X138291614Y-61476595D01*
X138157038Y-61587038D01*
X138046595Y-61721614D01*
X137964528Y-61875150D01*
X137913992Y-62041746D01*
X137896928Y-62215000D01*
X127647570Y-62215000D01*
X127418574Y-62120147D01*
X127141335Y-62065000D01*
X126858665Y-62065000D01*
X126581426Y-62120147D01*
X126320273Y-62228320D01*
X126085241Y-62385363D01*
X125885363Y-62585241D01*
X125728320Y-62820273D01*
X125620147Y-63081426D01*
X125565000Y-63358665D01*
X121744749Y-63358665D01*
X121775853Y-63283574D01*
X121831000Y-63006335D01*
X121831000Y-62723665D01*
X121775853Y-62446426D01*
X121667680Y-62185273D01*
X121510637Y-61950241D01*
X121310759Y-61750363D01*
X121075727Y-61593320D01*
X120814574Y-61485147D01*
X120537335Y-61430000D01*
X120254665Y-61430000D01*
X119977426Y-61485147D01*
X119716273Y-61593320D01*
X119481241Y-61750363D01*
X119281363Y-61950241D01*
X119124320Y-62185273D01*
X119016147Y-62446426D01*
X118961000Y-62723665D01*
X88017836Y-62723665D01*
X87593141Y-62439893D01*
X87113601Y-62241261D01*
X86604525Y-62140000D01*
X86085475Y-62140000D01*
X85576399Y-62241261D01*
X85096859Y-62439893D01*
X84665285Y-62728262D01*
X84298262Y-63095285D01*
X84009893Y-63526859D01*
X83811261Y-64006399D01*
X83710000Y-64515475D01*
X80670000Y-64515475D01*
X80670000Y-55277279D01*
X80694748Y-55024872D01*
X81585000Y-55024872D01*
X81585000Y-55465128D01*
X81670890Y-55896925D01*
X81839369Y-56303669D01*
X82083962Y-56669729D01*
X82395271Y-56981038D01*
X82761331Y-57225631D01*
X83168075Y-57394110D01*
X83599872Y-57480000D01*
X84040128Y-57480000D01*
X84471925Y-57394110D01*
X84878669Y-57225631D01*
X85244729Y-56981038D01*
X85556038Y-56669729D01*
X85800631Y-56303669D01*
X85969110Y-55896925D01*
X86055000Y-55465128D01*
X86055000Y-55024872D01*
X139370000Y-55024872D01*
X139370000Y-55465128D01*
X139455890Y-55896925D01*
X139624369Y-56303669D01*
X139868962Y-56669729D01*
X140180271Y-56981038D01*
X140546331Y-57225631D01*
X140953075Y-57394110D01*
X141384872Y-57480000D01*
X141825128Y-57480000D01*
X142256925Y-57394110D01*
X142663669Y-57225631D01*
X143029729Y-56981038D01*
X143341038Y-56669729D01*
X143585631Y-56303669D01*
X143754110Y-55896925D01*
X143840000Y-55465128D01*
X143840000Y-55024872D01*
X143754110Y-54593075D01*
X143585631Y-54186331D01*
X143341038Y-53820271D01*
X143029729Y-53508962D01*
X142663669Y-53264369D01*
X142256925Y-53095890D01*
X141825128Y-53010000D01*
X141384872Y-53010000D01*
X140953075Y-53095890D01*
X140546331Y-53264369D01*
X140180271Y-53508962D01*
X139868962Y-53820271D01*
X139624369Y-54186331D01*
X139455890Y-54593075D01*
X139370000Y-55024872D01*
X86055000Y-55024872D01*
X85969110Y-54593075D01*
X85800631Y-54186331D01*
X85556038Y-53820271D01*
X85244729Y-53508962D01*
X84878669Y-53264369D01*
X84471925Y-53095890D01*
X84040128Y-53010000D01*
X83599872Y-53010000D01*
X83168075Y-53095890D01*
X82761331Y-53264369D01*
X82395271Y-53508962D01*
X82083962Y-53820271D01*
X81839369Y-54186331D01*
X81670890Y-54593075D01*
X81585000Y-55024872D01*
X80694748Y-55024872D01*
X80733096Y-54633778D01*
X80910606Y-54045836D01*
X81198937Y-53503564D01*
X81587094Y-53027636D01*
X82060314Y-52636155D01*
X82600552Y-52344049D01*
X83187244Y-52162437D01*
X83828879Y-52095000D01*
X141572721Y-52095000D01*
X142216222Y-52158096D01*
X142216222Y-52158096D01*
G37*
X142216222Y-52158096D02*
X142804164Y-52335606D01*
X143346436Y-52623937D01*
X143822364Y-53012094D01*
X144213845Y-53485314D01*
X144505951Y-54025552D01*
X144687563Y-54612244D01*
X144755000Y-55253879D01*
X144755001Y-113632711D01*
X144691904Y-114276221D01*
X144514394Y-114864164D01*
X144226063Y-115406436D01*
X143837906Y-115882364D01*
X143364686Y-116273845D01*
X142824449Y-116565950D01*
X142237756Y-116747563D01*
X141596130Y-116815000D01*
X83852279Y-116815000D01*
X83208779Y-116751904D01*
X82620836Y-116574394D01*
X82078564Y-116286063D01*
X81602636Y-115897906D01*
X81211155Y-115424686D01*
X80919050Y-114884449D01*
X80737437Y-114297756D01*
X80670000Y-113656130D01*
X80670000Y-113444872D01*
X81585000Y-113444872D01*
X81585000Y-113885128D01*
X81670890Y-114316925D01*
X81839369Y-114723669D01*
X82083962Y-115089729D01*
X82395271Y-115401038D01*
X82761331Y-115645631D01*
X83168075Y-115814110D01*
X83599872Y-115900000D01*
X84040128Y-115900000D01*
X84471925Y-115814110D01*
X84878669Y-115645631D01*
X85244729Y-115401038D01*
X85556038Y-115089729D01*
X85800631Y-114723669D01*
X85969110Y-114316925D01*
X86055000Y-113885128D01*
X86055000Y-113444872D01*
X139370000Y-113444872D01*
X139370000Y-113885128D01*
X139455890Y-114316925D01*
X139624369Y-114723669D01*
X139868962Y-115089729D01*
X140180271Y-115401038D01*
X140546331Y-115645631D01*
X140953075Y-115814110D01*
X141384872Y-115900000D01*
X141825128Y-115900000D01*
X142256925Y-115814110D01*
X142663669Y-115645631D01*
X143029729Y-115401038D01*
X143341038Y-115089729D01*
X143585631Y-114723669D01*
X143754110Y-114316925D01*
X143840000Y-113885128D01*
X143840000Y-113444872D01*
X143754110Y-113013075D01*
X143585631Y-112606331D01*
X143341038Y-112240271D01*
X143029729Y-111928962D01*
X142663669Y-111684369D01*
X142256925Y-111515890D01*
X141825128Y-111430000D01*
X141384872Y-111430000D01*
X140953075Y-111515890D01*
X140546331Y-111684369D01*
X140180271Y-111928962D01*
X139868962Y-112240271D01*
X139624369Y-112606331D01*
X139455890Y-113013075D01*
X139370000Y-113444872D01*
X86055000Y-113444872D01*
X85969110Y-113013075D01*
X85800631Y-112606331D01*
X85556038Y-112240271D01*
X85244729Y-111928962D01*
X84878669Y-111684369D01*
X84471925Y-111515890D01*
X84040128Y-111430000D01*
X83599872Y-111430000D01*
X83168075Y-111515890D01*
X82761331Y-111684369D01*
X82395271Y-111928962D01*
X82083962Y-112240271D01*
X81839369Y-112606331D01*
X81670890Y-113013075D01*
X81585000Y-113444872D01*
X80670000Y-113444872D01*
X80670000Y-108165000D01*
X89951928Y-108165000D01*
X89964188Y-108289482D01*
X90000498Y-108409180D01*
X90059463Y-108519494D01*
X90138815Y-108616185D01*
X90235506Y-108695537D01*
X90345820Y-108754502D01*
X90465518Y-108790812D01*
X90590000Y-108803072D01*
X91154250Y-108800000D01*
X91313000Y-108641250D01*
X91313000Y-107442000D01*
X91567000Y-107442000D01*
X91567000Y-108641250D01*
X91725750Y-108800000D01*
X92290000Y-108803072D01*
X92414482Y-108790812D01*
X92534180Y-108754502D01*
X92644494Y-108695537D01*
X92741185Y-108616185D01*
X92820537Y-108519494D01*
X92879502Y-108409180D01*
X92915812Y-108289482D01*
X92928072Y-108165000D01*
X92925000Y-107600750D01*
X92766250Y-107442000D01*
X91567000Y-107442000D01*
X91313000Y-107442000D01*
X90113750Y-107442000D01*
X89955000Y-107600750D01*
X89951928Y-108165000D01*
X80670000Y-108165000D01*
X80670000Y-102235000D01*
X89947815Y-102235000D01*
X89976487Y-102526111D01*
X90061401Y-102806034D01*
X90199294Y-103064014D01*
X90384866Y-103290134D01*
X90610986Y-103475706D01*
X90665791Y-103505000D01*
X90610986Y-103534294D01*
X90384866Y-103719866D01*
X90199294Y-103945986D01*
X90061401Y-104203966D01*
X89976487Y-104483889D01*
X89947815Y-104775000D01*
X89976487Y-105066111D01*
X90061401Y-105346034D01*
X90199294Y-105604014D01*
X90384866Y-105830134D01*
X90414687Y-105854607D01*
X90345820Y-105875498D01*
X90235506Y-105934463D01*
X90138815Y-106013815D01*
X90059463Y-106110506D01*
X90000498Y-106220820D01*
X89964188Y-106340518D01*
X89951928Y-106465000D01*
X89955000Y-107029250D01*
X90113750Y-107188000D01*
X91313000Y-107188000D01*
X91313000Y-107168000D01*
X91567000Y-107168000D01*
X91567000Y-107188000D01*
X92766250Y-107188000D01*
X92925000Y-107029250D01*
X92926482Y-106756890D01*
X131783524Y-106756890D01*
X131875648Y-107019858D01*
X132022504Y-107271193D01*
X132215571Y-107489049D01*
X132447430Y-107665053D01*
X132709170Y-107792442D01*
X132990733Y-107866320D01*
X133223000Y-107726165D01*
X133223000Y-106527000D01*
X133477000Y-106527000D01*
X133477000Y-107726165D01*
X133709267Y-107866320D01*
X133767402Y-107851066D01*
X139978539Y-107851066D01*
X140080339Y-108120579D01*
X140378477Y-108266463D01*
X140699346Y-108351380D01*
X141030617Y-108372066D01*
X141359557Y-108327728D01*
X141673527Y-108220069D01*
X141859661Y-108120579D01*
X141961461Y-107851066D01*
X140970000Y-106859605D01*
X139978539Y-107851066D01*
X133767402Y-107851066D01*
X133990830Y-107792442D01*
X134252570Y-107665053D01*
X134484429Y-107489049D01*
X134677496Y-107271193D01*
X134824352Y-107019858D01*
X134916476Y-106756890D01*
X134907889Y-106740617D01*
X139277934Y-106740617D01*
X139322272Y-107069557D01*
X139429931Y-107383527D01*
X139529421Y-107569661D01*
X139798934Y-107671461D01*
X140790395Y-106680000D01*
X141149605Y-106680000D01*
X142141066Y-107671461D01*
X142410579Y-107569661D01*
X142556463Y-107271523D01*
X142641380Y-106950654D01*
X142662066Y-106619383D01*
X142617728Y-106290443D01*
X142510069Y-105976473D01*
X142410579Y-105790339D01*
X142141066Y-105688539D01*
X141149605Y-106680000D01*
X140790395Y-106680000D01*
X139798934Y-105688539D01*
X139529421Y-105790339D01*
X139383537Y-106088477D01*
X139298620Y-106409346D01*
X139277934Y-106740617D01*
X134907889Y-106740617D01*
X134795155Y-106527000D01*
X133477000Y-106527000D01*
X133223000Y-106527000D01*
X131904845Y-106527000D01*
X131783524Y-106756890D01*
X92926482Y-106756890D01*
X92928072Y-106465000D01*
X92915812Y-106340518D01*
X92879502Y-106220820D01*
X92820537Y-106110506D01*
X92741185Y-106013815D01*
X92644494Y-105934463D01*
X92534180Y-105875498D01*
X92465313Y-105854607D01*
X92495134Y-105830134D01*
X92680706Y-105604014D01*
X92818599Y-105346034D01*
X92903513Y-105066111D01*
X92932185Y-104775000D01*
X92903513Y-104483889D01*
X92818599Y-104203966D01*
X92680706Y-103945986D01*
X92642967Y-103900000D01*
X131732815Y-103900000D01*
X131761487Y-104191111D01*
X131846401Y-104471034D01*
X131984294Y-104729014D01*
X132169866Y-104955134D01*
X132395986Y-105140706D01*
X132421722Y-105154462D01*
X132215571Y-105310951D01*
X132022504Y-105528807D01*
X131875648Y-105780142D01*
X131783524Y-106043110D01*
X131904845Y-106273000D01*
X133223000Y-106273000D01*
X133223000Y-106253000D01*
X133477000Y-106253000D01*
X133477000Y-106273000D01*
X134795155Y-106273000D01*
X134916476Y-106043110D01*
X134824352Y-105780142D01*
X134677496Y-105528807D01*
X134484429Y-105310951D01*
X134278278Y-105154462D01*
X134304014Y-105140706D01*
X134530134Y-104955134D01*
X134715706Y-104729014D01*
X134853599Y-104471034D01*
X134938513Y-104191111D01*
X134959892Y-103974042D01*
X139285000Y-103974042D01*
X139285000Y-104305958D01*
X139349754Y-104631496D01*
X139476772Y-104938147D01*
X139661175Y-105214125D01*
X139895875Y-105448825D01*
X139980009Y-105505042D01*
X139978539Y-105508934D01*
X140970000Y-106500395D01*
X141961461Y-105508934D01*
X141959991Y-105505042D01*
X142044125Y-105448825D01*
X142278825Y-105214125D01*
X142463228Y-104938147D01*
X142590246Y-104631496D01*
X142655000Y-104305958D01*
X142655000Y-103974042D01*
X142590246Y-103648504D01*
X142463228Y-103341853D01*
X142278825Y-103065875D01*
X142044125Y-102831175D01*
X141959991Y-102774958D01*
X141961461Y-102771066D01*
X140970000Y-101779605D01*
X139978539Y-102771066D01*
X139980009Y-102774958D01*
X139895875Y-102831175D01*
X139661175Y-103065875D01*
X139476772Y-103341853D01*
X139349754Y-103648504D01*
X139285000Y-103974042D01*
X134959892Y-103974042D01*
X134967185Y-103900000D01*
X134938513Y-103608889D01*
X134853599Y-103328966D01*
X134715706Y-103070986D01*
X134530134Y-102844866D01*
X134304014Y-102659294D01*
X134278278Y-102645538D01*
X134484429Y-102489049D01*
X134677496Y-102271193D01*
X134824352Y-102019858D01*
X134916476Y-101756890D01*
X134865670Y-101660617D01*
X139277934Y-101660617D01*
X139322272Y-101989557D01*
X139429931Y-102303527D01*
X139529421Y-102489661D01*
X139798934Y-102591461D01*
X140790395Y-101600000D01*
X141149605Y-101600000D01*
X142141066Y-102591461D01*
X142410579Y-102489661D01*
X142556463Y-102191523D01*
X142641380Y-101870654D01*
X142662066Y-101539383D01*
X142617728Y-101210443D01*
X142510069Y-100896473D01*
X142410579Y-100710339D01*
X142141066Y-100608539D01*
X141149605Y-101600000D01*
X140790395Y-101600000D01*
X139798934Y-100608539D01*
X139529421Y-100710339D01*
X139383537Y-101008477D01*
X139298620Y-101329346D01*
X139277934Y-101660617D01*
X134865670Y-101660617D01*
X134795155Y-101527000D01*
X133477000Y-101527000D01*
X133477000Y-101547000D01*
X133223000Y-101547000D01*
X133223000Y-101527000D01*
X131904845Y-101527000D01*
X131783524Y-101756890D01*
X131875648Y-102019858D01*
X132022504Y-102271193D01*
X132215571Y-102489049D01*
X132421722Y-102645538D01*
X132395986Y-102659294D01*
X132169866Y-102844866D01*
X131984294Y-103070986D01*
X131846401Y-103328966D01*
X131761487Y-103608889D01*
X131732815Y-103900000D01*
X92642967Y-103900000D01*
X92495134Y-103719866D01*
X92269014Y-103534294D01*
X92214209Y-103505000D01*
X92269014Y-103475706D01*
X92495134Y-103290134D01*
X92680706Y-103064014D01*
X92818599Y-102806034D01*
X92903513Y-102526111D01*
X92932185Y-102235000D01*
X92903513Y-101943889D01*
X92818599Y-101663966D01*
X92680706Y-101405986D01*
X92495134Y-101179866D01*
X92269014Y-100994294D01*
X92011034Y-100856401D01*
X91731111Y-100771487D01*
X91512950Y-100750000D01*
X91367050Y-100750000D01*
X91148889Y-100771487D01*
X90868966Y-100856401D01*
X90610986Y-100994294D01*
X90384866Y-101179866D01*
X90199294Y-101405986D01*
X90061401Y-101663966D01*
X89976487Y-101943889D01*
X89947815Y-102235000D01*
X80670000Y-102235000D01*
X80670000Y-99275000D01*
X89951928Y-99275000D01*
X89964188Y-99399482D01*
X90000498Y-99519180D01*
X90059463Y-99629494D01*
X90138815Y-99726185D01*
X90235506Y-99805537D01*
X90345820Y-99864502D01*
X90465518Y-99900812D01*
X90590000Y-99913072D01*
X91154250Y-99910000D01*
X91313000Y-99751250D01*
X91313000Y-98552000D01*
X91567000Y-98552000D01*
X91567000Y-99751250D01*
X91725750Y-99910000D01*
X92290000Y-99913072D01*
X92414482Y-99900812D01*
X92534180Y-99864502D01*
X92644494Y-99805537D01*
X92741185Y-99726185D01*
X92820537Y-99629494D01*
X92879502Y-99519180D01*
X92915812Y-99399482D01*
X92928072Y-99275000D01*
X92925000Y-98710750D01*
X92766250Y-98552000D01*
X91567000Y-98552000D01*
X91313000Y-98552000D01*
X90113750Y-98552000D01*
X89955000Y-98710750D01*
X89951928Y-99275000D01*
X80670000Y-99275000D01*
X80670000Y-93345000D01*
X89947815Y-93345000D01*
X89976487Y-93636111D01*
X90061401Y-93916034D01*
X90199294Y-94174014D01*
X90384866Y-94400134D01*
X90610986Y-94585706D01*
X90665791Y-94615000D01*
X90610986Y-94644294D01*
X90384866Y-94829866D01*
X90199294Y-95055986D01*
X90061401Y-95313966D01*
X89976487Y-95593889D01*
X89947815Y-95885000D01*
X89976487Y-96176111D01*
X90061401Y-96456034D01*
X90199294Y-96714014D01*
X90384866Y-96940134D01*
X90414687Y-96964607D01*
X90345820Y-96985498D01*
X90235506Y-97044463D01*
X90138815Y-97123815D01*
X90059463Y-97220506D01*
X90000498Y-97330820D01*
X89964188Y-97450518D01*
X89951928Y-97575000D01*
X89955000Y-98139250D01*
X90113750Y-98298000D01*
X91313000Y-98298000D01*
X91313000Y-98278000D01*
X91567000Y-98278000D01*
X91567000Y-98298000D01*
X92766250Y-98298000D01*
X92925000Y-98139250D01*
X92928072Y-97575000D01*
X92915812Y-97450518D01*
X92879502Y-97330820D01*
X92820537Y-97220506D01*
X92741185Y-97123815D01*
X92644494Y-97044463D01*
X92534180Y-96985498D01*
X92465313Y-96964607D01*
X92495134Y-96940134D01*
X92680706Y-96714014D01*
X92818599Y-96456034D01*
X92903513Y-96176111D01*
X92932185Y-95885000D01*
X92903513Y-95593889D01*
X92818599Y-95313966D01*
X92680706Y-95055986D01*
X92495134Y-94829866D01*
X92269014Y-94644294D01*
X92214209Y-94615000D01*
X92269014Y-94585706D01*
X92495134Y-94400134D01*
X92680706Y-94174014D01*
X92818599Y-93916034D01*
X92903513Y-93636111D01*
X92932185Y-93345000D01*
X92903513Y-93053889D01*
X92818599Y-92773966D01*
X92680706Y-92515986D01*
X92495134Y-92289866D01*
X92269014Y-92104294D01*
X92011034Y-91966401D01*
X91731111Y-91881487D01*
X91512950Y-91860000D01*
X91367050Y-91860000D01*
X91148889Y-91881487D01*
X90868966Y-91966401D01*
X90610986Y-92104294D01*
X90384866Y-92289866D01*
X90199294Y-92515986D01*
X90061401Y-92773966D01*
X89976487Y-93053889D01*
X89947815Y-93345000D01*
X80670000Y-93345000D01*
X80670000Y-88337878D01*
X80683963Y-88367420D01*
X80851481Y-88593414D01*
X81059869Y-88782385D01*
X81301119Y-88927070D01*
X81565960Y-89021909D01*
X81788000Y-88900624D01*
X81788000Y-87757000D01*
X82042000Y-87757000D01*
X82042000Y-88900624D01*
X82264040Y-89021909D01*
X82528881Y-88927070D01*
X82770131Y-88782385D01*
X82978519Y-88593414D01*
X83146037Y-88367420D01*
X83266246Y-88113087D01*
X83306904Y-87979039D01*
X83184915Y-87757000D01*
X82042000Y-87757000D01*
X81788000Y-87757000D01*
X81768000Y-87757000D01*
X81768000Y-87503000D01*
X81788000Y-87503000D01*
X81788000Y-85217000D01*
X82042000Y-85217000D01*
X82042000Y-87503000D01*
X83184915Y-87503000D01*
X83306904Y-87280961D01*
X83266246Y-87146913D01*
X83146037Y-86892580D01*
X82978519Y-86666586D01*
X82770131Y-86477615D01*
X82574018Y-86360000D01*
X82770131Y-86242385D01*
X82978519Y-86053414D01*
X83146037Y-85827420D01*
X83266246Y-85573087D01*
X83306904Y-85439039D01*
X83184915Y-85217000D01*
X82042000Y-85217000D01*
X81788000Y-85217000D01*
X81768000Y-85217000D01*
X81768000Y-84963000D01*
X81788000Y-84963000D01*
X81788000Y-82677000D01*
X82042000Y-82677000D01*
X82042000Y-84963000D01*
X83184915Y-84963000D01*
X83306904Y-84740961D01*
X83266246Y-84606913D01*
X83146037Y-84352580D01*
X82978519Y-84126586D01*
X82770131Y-83937615D01*
X82574018Y-83820000D01*
X82770131Y-83702385D01*
X82978519Y-83513414D01*
X83146037Y-83287420D01*
X83266246Y-83033087D01*
X83306904Y-82899039D01*
X83184915Y-82677000D01*
X82042000Y-82677000D01*
X81788000Y-82677000D01*
X81768000Y-82677000D01*
X81768000Y-82423000D01*
X81788000Y-82423000D01*
X81788000Y-80137000D01*
X81768000Y-80137000D01*
X81768000Y-79883000D01*
X81788000Y-79883000D01*
X81788000Y-78733750D01*
X82042000Y-78733750D01*
X82042000Y-79883000D01*
X82062000Y-79883000D01*
X82062000Y-80137000D01*
X82042000Y-80137000D01*
X82042000Y-82423000D01*
X83184915Y-82423000D01*
X83306904Y-82200961D01*
X83266246Y-82066913D01*
X83146037Y-81812580D01*
X82978519Y-81586586D01*
X82814920Y-81438231D01*
X82839482Y-81435812D01*
X82959180Y-81399502D01*
X83069494Y-81340537D01*
X83166185Y-81261185D01*
X83245537Y-81164494D01*
X83304502Y-81054180D01*
X83340812Y-80934482D01*
X83353072Y-80810000D01*
X83350000Y-80295750D01*
X83191252Y-80137002D01*
X83350000Y-80137002D01*
X83350000Y-80010000D01*
X88093057Y-80010000D01*
X88120764Y-80291309D01*
X88202818Y-80561808D01*
X88336068Y-80811101D01*
X88515392Y-81029608D01*
X88733899Y-81208932D01*
X88866858Y-81280000D01*
X88733899Y-81351068D01*
X88515392Y-81530392D01*
X88336068Y-81748899D01*
X88202818Y-81998192D01*
X88120764Y-82268691D01*
X88093057Y-82550000D01*
X88120764Y-82831309D01*
X88202818Y-83101808D01*
X88336068Y-83351101D01*
X88515392Y-83569608D01*
X88733899Y-83748932D01*
X88866858Y-83820000D01*
X88733899Y-83891068D01*
X88515392Y-84070392D01*
X88336068Y-84288899D01*
X88202818Y-84538192D01*
X88120764Y-84808691D01*
X88093057Y-85090000D01*
X88120764Y-85371309D01*
X88202818Y-85641808D01*
X88336068Y-85891101D01*
X88515392Y-86109608D01*
X88733899Y-86288932D01*
X88866858Y-86360000D01*
X88733899Y-86431068D01*
X88515392Y-86610392D01*
X88336068Y-86828899D01*
X88202818Y-87078192D01*
X88120764Y-87348691D01*
X88093057Y-87630000D01*
X88120764Y-87911309D01*
X88202818Y-88181808D01*
X88336068Y-88431101D01*
X88515392Y-88649608D01*
X88733899Y-88828932D01*
X88983192Y-88962182D01*
X89253691Y-89044236D01*
X89464508Y-89065000D01*
X89605492Y-89065000D01*
X89816309Y-89044236D01*
X90086808Y-88962182D01*
X90336101Y-88828932D01*
X90554608Y-88649608D01*
X90733932Y-88431101D01*
X90867182Y-88181808D01*
X90949236Y-87911309D01*
X90976943Y-87630000D01*
X90949236Y-87348691D01*
X90867182Y-87078192D01*
X90733932Y-86828899D01*
X90554608Y-86610392D01*
X90336101Y-86431068D01*
X90203142Y-86360000D01*
X90336101Y-86288932D01*
X90554608Y-86109608D01*
X90733932Y-85891101D01*
X90867182Y-85641808D01*
X90949236Y-85371309D01*
X90976943Y-85090000D01*
X90949236Y-84808691D01*
X90867182Y-84538192D01*
X90733932Y-84288899D01*
X90554608Y-84070392D01*
X90336101Y-83891068D01*
X90203142Y-83820000D01*
X90336101Y-83748932D01*
X90554608Y-83569608D01*
X90733932Y-83351101D01*
X90867182Y-83101808D01*
X90949236Y-82831309D01*
X90976943Y-82550000D01*
X90949236Y-82268691D01*
X90867182Y-81998192D01*
X90733932Y-81748899D01*
X90554608Y-81530392D01*
X90336101Y-81351068D01*
X90203142Y-81280000D01*
X90336101Y-81208932D01*
X90554608Y-81029608D01*
X90733932Y-80811101D01*
X90867182Y-80561808D01*
X90949236Y-80291309D01*
X90976943Y-80010000D01*
X90949236Y-79728691D01*
X90867182Y-79458192D01*
X90733932Y-79208899D01*
X90554608Y-78990392D01*
X90336101Y-78811068D01*
X90086808Y-78677818D01*
X89816309Y-78595764D01*
X89605492Y-78575000D01*
X89464508Y-78575000D01*
X89253691Y-78595764D01*
X88983192Y-78677818D01*
X88733899Y-78811068D01*
X88515392Y-78990392D01*
X88336068Y-79208899D01*
X88202818Y-79458192D01*
X88120764Y-79728691D01*
X88093057Y-80010000D01*
X83350000Y-80010000D01*
X83350000Y-79882998D01*
X83191252Y-79882998D01*
X83350000Y-79724250D01*
X83353072Y-79210000D01*
X83340812Y-79085518D01*
X83304502Y-78965820D01*
X83245537Y-78855506D01*
X83166185Y-78758815D01*
X83069494Y-78679463D01*
X82959180Y-78620498D01*
X82839482Y-78584188D01*
X82715000Y-78571928D01*
X82200750Y-78575000D01*
X82042000Y-78733750D01*
X81788000Y-78733750D01*
X81629250Y-78575000D01*
X81115000Y-78571928D01*
X80990518Y-78584188D01*
X80870820Y-78620498D01*
X80760506Y-78679463D01*
X80670000Y-78753739D01*
X80670000Y-76962000D01*
X98888057Y-76962000D01*
X98915764Y-77243309D01*
X98997818Y-77513808D01*
X99131068Y-77763101D01*
X99310392Y-77981608D01*
X99528899Y-78160932D01*
X99661858Y-78232000D01*
X99528899Y-78303068D01*
X99310392Y-78482392D01*
X99131068Y-78700899D01*
X98997818Y-78950192D01*
X98915764Y-79220691D01*
X98888057Y-79502000D01*
X98915764Y-79783309D01*
X98997818Y-80053808D01*
X99131068Y-80303101D01*
X99310392Y-80521608D01*
X99528899Y-80700932D01*
X99661858Y-80772000D01*
X99528899Y-80843068D01*
X99310392Y-81022392D01*
X99131068Y-81240899D01*
X98997818Y-81490192D01*
X98915764Y-81760691D01*
X98888057Y-82042000D01*
X98915764Y-82323309D01*
X98997818Y-82593808D01*
X99131068Y-82843101D01*
X99310392Y-83061608D01*
X99528899Y-83240932D01*
X99661858Y-83312000D01*
X99528899Y-83383068D01*
X99310392Y-83562392D01*
X99131068Y-83780899D01*
X98997818Y-84030192D01*
X98915764Y-84300691D01*
X98888057Y-84582000D01*
X98915764Y-84863309D01*
X98997818Y-85133808D01*
X99131068Y-85383101D01*
X99310392Y-85601608D01*
X99528899Y-85780932D01*
X99661858Y-85852000D01*
X99528899Y-85923068D01*
X99310392Y-86102392D01*
X99131068Y-86320899D01*
X98997818Y-86570192D01*
X98915764Y-86840691D01*
X98888057Y-87122000D01*
X98915764Y-87403309D01*
X98997818Y-87673808D01*
X99131068Y-87923101D01*
X99310392Y-88141608D01*
X99528899Y-88320932D01*
X99661858Y-88392000D01*
X99528899Y-88463068D01*
X99310392Y-88642392D01*
X99131068Y-88860899D01*
X98997818Y-89110192D01*
X98915764Y-89380691D01*
X98888057Y-89662000D01*
X98915764Y-89943309D01*
X98997818Y-90213808D01*
X99131068Y-90463101D01*
X99310392Y-90681608D01*
X99528899Y-90860932D01*
X99661858Y-90932000D01*
X99528899Y-91003068D01*
X99310392Y-91182392D01*
X99131068Y-91400899D01*
X98997818Y-91650192D01*
X98915764Y-91920691D01*
X98888057Y-92202000D01*
X98915764Y-92483309D01*
X98997818Y-92753808D01*
X99131068Y-93003101D01*
X99310392Y-93221608D01*
X99528899Y-93400932D01*
X99661858Y-93472000D01*
X99528899Y-93543068D01*
X99310392Y-93722392D01*
X99131068Y-93940899D01*
X98997818Y-94190192D01*
X98915764Y-94460691D01*
X98888057Y-94742000D01*
X98915764Y-95023309D01*
X98997818Y-95293808D01*
X99131068Y-95543101D01*
X99310392Y-95761608D01*
X99528899Y-95940932D01*
X99661858Y-96012000D01*
X99528899Y-96083068D01*
X99310392Y-96262392D01*
X99131068Y-96480899D01*
X98997818Y-96730192D01*
X98915764Y-97000691D01*
X98888057Y-97282000D01*
X98915764Y-97563309D01*
X98997818Y-97833808D01*
X99131068Y-98083101D01*
X99310392Y-98301608D01*
X99528899Y-98480932D01*
X99661858Y-98552000D01*
X99528899Y-98623068D01*
X99310392Y-98802392D01*
X99131068Y-99020899D01*
X98997818Y-99270192D01*
X98915764Y-99540691D01*
X98888057Y-99822000D01*
X98915764Y-100103309D01*
X98997818Y-100373808D01*
X99131068Y-100623101D01*
X99310392Y-100841608D01*
X99528899Y-101020932D01*
X99661858Y-101092000D01*
X99528899Y-101163068D01*
X99310392Y-101342392D01*
X99131068Y-101560899D01*
X98997818Y-101810192D01*
X98915764Y-102080691D01*
X98888057Y-102362000D01*
X98915764Y-102643309D01*
X98997818Y-102913808D01*
X99131068Y-103163101D01*
X99310392Y-103381608D01*
X99528899Y-103560932D01*
X99778192Y-103694182D01*
X100048691Y-103776236D01*
X100259508Y-103797000D01*
X100400492Y-103797000D01*
X100611309Y-103776236D01*
X100881808Y-103694182D01*
X101131101Y-103560932D01*
X101349608Y-103381608D01*
X101528932Y-103163101D01*
X101662182Y-102913808D01*
X101744236Y-102643309D01*
X101771943Y-102362000D01*
X101744236Y-102080691D01*
X101662182Y-101810192D01*
X101528932Y-101560899D01*
X101349608Y-101342392D01*
X101131101Y-101163068D01*
X100998142Y-101092000D01*
X101131101Y-101020932D01*
X101349608Y-100841608D01*
X101528932Y-100623101D01*
X101662182Y-100373808D01*
X101744236Y-100103309D01*
X101771943Y-99822000D01*
X101744236Y-99540691D01*
X101662182Y-99270192D01*
X101528932Y-99020899D01*
X101349608Y-98802392D01*
X101131101Y-98623068D01*
X100998142Y-98552000D01*
X101131101Y-98480932D01*
X101349608Y-98301608D01*
X101528932Y-98083101D01*
X101662182Y-97833808D01*
X101744236Y-97563309D01*
X101771943Y-97282000D01*
X101744236Y-97000691D01*
X101662182Y-96730192D01*
X101528932Y-96480899D01*
X101349608Y-96262392D01*
X101131101Y-96083068D01*
X100998142Y-96012000D01*
X101131101Y-95940932D01*
X101349608Y-95761608D01*
X101528932Y-95543101D01*
X101662182Y-95293808D01*
X101744236Y-95023309D01*
X101771943Y-94742000D01*
X101744236Y-94460691D01*
X101662182Y-94190192D01*
X101528932Y-93940899D01*
X101349608Y-93722392D01*
X101131101Y-93543068D01*
X100998142Y-93472000D01*
X101131101Y-93400932D01*
X101349608Y-93221608D01*
X101528932Y-93003101D01*
X101662182Y-92753808D01*
X101744236Y-92483309D01*
X101771943Y-92202000D01*
X101744236Y-91920691D01*
X101662182Y-91650192D01*
X101528932Y-91400899D01*
X101349608Y-91182392D01*
X101131101Y-91003068D01*
X100998142Y-90932000D01*
X101131101Y-90860932D01*
X101349608Y-90681608D01*
X101528932Y-90463101D01*
X101662182Y-90213808D01*
X101744236Y-89943309D01*
X101771943Y-89662000D01*
X101744236Y-89380691D01*
X101662182Y-89110192D01*
X101528932Y-88860899D01*
X101349608Y-88642392D01*
X101131101Y-88463068D01*
X100998142Y-88392000D01*
X101131101Y-88320932D01*
X101349608Y-88141608D01*
X101528932Y-87923101D01*
X101662182Y-87673808D01*
X101744236Y-87403309D01*
X101771943Y-87122000D01*
X101744236Y-86840691D01*
X101662182Y-86570192D01*
X101528932Y-86320899D01*
X101349608Y-86102392D01*
X101131101Y-85923068D01*
X100998142Y-85852000D01*
X101131101Y-85780932D01*
X101349608Y-85601608D01*
X101528932Y-85383101D01*
X101662182Y-85133808D01*
X101744236Y-84863309D01*
X101771943Y-84582000D01*
X101744236Y-84300691D01*
X101662182Y-84030192D01*
X101528932Y-83780899D01*
X101349608Y-83562392D01*
X101131101Y-83383068D01*
X100998142Y-83312000D01*
X101131101Y-83240932D01*
X101349608Y-83061608D01*
X101528932Y-82843101D01*
X101662182Y-82593808D01*
X101744236Y-82323309D01*
X101771943Y-82042000D01*
X101744236Y-81760691D01*
X101662182Y-81490192D01*
X101528932Y-81240899D01*
X101349608Y-81022392D01*
X101131101Y-80843068D01*
X100998142Y-80772000D01*
X101131101Y-80700932D01*
X101349608Y-80521608D01*
X101528932Y-80303101D01*
X101662182Y-80053808D01*
X101744236Y-79783309D01*
X101771943Y-79502000D01*
X101744236Y-79220691D01*
X101662182Y-78950192D01*
X101528932Y-78700899D01*
X101349608Y-78482392D01*
X101131101Y-78303068D01*
X100998142Y-78232000D01*
X101131101Y-78160932D01*
X101349608Y-77981608D01*
X101528932Y-77763101D01*
X101662182Y-77513808D01*
X101744236Y-77243309D01*
X101771943Y-76962000D01*
X101744236Y-76680691D01*
X101662182Y-76410192D01*
X101528932Y-76160899D01*
X101349608Y-75942392D01*
X101131101Y-75763068D01*
X100993318Y-75689421D01*
X101185131Y-75574385D01*
X101393519Y-75385414D01*
X101561037Y-75159420D01*
X101681246Y-74905087D01*
X101721904Y-74771039D01*
X101599915Y-74549000D01*
X100457000Y-74549000D01*
X100457000Y-74569000D01*
X100203000Y-74569000D01*
X100203000Y-74549000D01*
X99060085Y-74549000D01*
X98938096Y-74771039D01*
X98978754Y-74905087D01*
X99098963Y-75159420D01*
X99266481Y-75385414D01*
X99474869Y-75574385D01*
X99666682Y-75689421D01*
X99528899Y-75763068D01*
X99310392Y-75942392D01*
X99131068Y-76160899D01*
X98997818Y-76410192D01*
X98915764Y-76680691D01*
X98888057Y-76962000D01*
X80670000Y-76962000D01*
X80670000Y-73315475D01*
X83710000Y-73315475D01*
X83710000Y-73834525D01*
X83811261Y-74343601D01*
X84009893Y-74823141D01*
X84298262Y-75254715D01*
X84665285Y-75621738D01*
X85096859Y-75910107D01*
X85576399Y-76108739D01*
X86085475Y-76210000D01*
X86604525Y-76210000D01*
X87113601Y-76108739D01*
X87593141Y-75910107D01*
X88024715Y-75621738D01*
X88391738Y-75254715D01*
X88680107Y-74823141D01*
X88878739Y-74343601D01*
X88980000Y-73834525D01*
X88980000Y-73315475D01*
X88878739Y-72806399D01*
X88850855Y-72739080D01*
X92460525Y-72739080D01*
X92544208Y-72993261D01*
X92816775Y-73124158D01*
X93109642Y-73199365D01*
X93411553Y-73215991D01*
X93710907Y-73173397D01*
X93996199Y-73073222D01*
X94145792Y-72993261D01*
X94229475Y-72739080D01*
X93345000Y-71854605D01*
X92460525Y-72739080D01*
X88850855Y-72739080D01*
X88680107Y-72326859D01*
X88391738Y-71895285D01*
X88238006Y-71741553D01*
X91804009Y-71741553D01*
X91846603Y-72040907D01*
X91946778Y-72326199D01*
X92026739Y-72475792D01*
X92280920Y-72559475D01*
X93165395Y-71675000D01*
X93524605Y-71675000D01*
X94409080Y-72559475D01*
X94663261Y-72475792D01*
X94794158Y-72203225D01*
X94869365Y-71910358D01*
X94885991Y-71608447D01*
X94843397Y-71309093D01*
X94743222Y-71023801D01*
X94663261Y-70874208D01*
X94409080Y-70790525D01*
X93524605Y-71675000D01*
X93165395Y-71675000D01*
X92280920Y-70790525D01*
X92026739Y-70874208D01*
X91895842Y-71146775D01*
X91820635Y-71439642D01*
X91804009Y-71741553D01*
X88238006Y-71741553D01*
X88024715Y-71528262D01*
X87593141Y-71239893D01*
X87113601Y-71041261D01*
X86604525Y-70940000D01*
X86085475Y-70940000D01*
X85576399Y-71041261D01*
X85096859Y-71239893D01*
X84665285Y-71528262D01*
X84298262Y-71895285D01*
X84009893Y-72326859D01*
X83811261Y-72806399D01*
X83710000Y-73315475D01*
X80670000Y-73315475D01*
X80670000Y-64515475D01*
X83710000Y-64515475D01*
X83710000Y-65034525D01*
X83811261Y-65543601D01*
X84009893Y-66023141D01*
X84298262Y-66454715D01*
X84665285Y-66821738D01*
X85096859Y-67110107D01*
X85576399Y-67308739D01*
X86085475Y-67410000D01*
X86604525Y-67410000D01*
X87113601Y-67308739D01*
X87593141Y-67110107D01*
X88024715Y-66821738D01*
X88322637Y-66523816D01*
X91810000Y-66523816D01*
X91810000Y-66826184D01*
X91868989Y-67122743D01*
X91984701Y-67402095D01*
X92152688Y-67653505D01*
X92366495Y-67867312D01*
X92452831Y-67925000D01*
X92366495Y-67982688D01*
X92152688Y-68196495D01*
X91984701Y-68447905D01*
X91868989Y-68727257D01*
X91810000Y-69023816D01*
X91810000Y-69326184D01*
X91868989Y-69622743D01*
X91984701Y-69902095D01*
X92152688Y-70153505D01*
X92366495Y-70367312D01*
X92509310Y-70462738D01*
X92460525Y-70610920D01*
X93345000Y-71495395D01*
X94229475Y-70610920D01*
X94180690Y-70462738D01*
X94323505Y-70367312D01*
X94537312Y-70153505D01*
X94705299Y-69902095D01*
X94821011Y-69622743D01*
X94876854Y-69342000D01*
X98888057Y-69342000D01*
X98915764Y-69623309D01*
X98997818Y-69893808D01*
X99131068Y-70143101D01*
X99310392Y-70361608D01*
X99528899Y-70540932D01*
X99661858Y-70612000D01*
X99528899Y-70683068D01*
X99310392Y-70862392D01*
X99131068Y-71080899D01*
X98997818Y-71330192D01*
X98915764Y-71600691D01*
X98888057Y-71882000D01*
X98915764Y-72163309D01*
X98997818Y-72433808D01*
X99131068Y-72683101D01*
X99310392Y-72901608D01*
X99528899Y-73080932D01*
X99666682Y-73154579D01*
X99474869Y-73269615D01*
X99266481Y-73458586D01*
X99098963Y-73684580D01*
X98978754Y-73938913D01*
X98938096Y-74072961D01*
X99060085Y-74295000D01*
X100203000Y-74295000D01*
X100203000Y-74275000D01*
X100457000Y-74275000D01*
X100457000Y-74295000D01*
X101599915Y-74295000D01*
X101721904Y-74072961D01*
X101681246Y-73938913D01*
X101561037Y-73684580D01*
X101393519Y-73458586D01*
X101185131Y-73269615D01*
X100993318Y-73154579D01*
X101131101Y-73080932D01*
X101349608Y-72901608D01*
X101528932Y-72683101D01*
X101662182Y-72433808D01*
X101744236Y-72163309D01*
X101771943Y-71882000D01*
X114128057Y-71882000D01*
X114155764Y-72163309D01*
X114237818Y-72433808D01*
X114371068Y-72683101D01*
X114550392Y-72901608D01*
X114768899Y-73080932D01*
X114901858Y-73152000D01*
X114768899Y-73223068D01*
X114550392Y-73402392D01*
X114371068Y-73620899D01*
X114237818Y-73870192D01*
X114155764Y-74140691D01*
X114128057Y-74422000D01*
X114155764Y-74703309D01*
X114237818Y-74973808D01*
X114371068Y-75223101D01*
X114550392Y-75441608D01*
X114768899Y-75620932D01*
X114901858Y-75692000D01*
X114768899Y-75763068D01*
X114550392Y-75942392D01*
X114371068Y-76160899D01*
X114237818Y-76410192D01*
X114155764Y-76680691D01*
X114128057Y-76962000D01*
X114155764Y-77243309D01*
X114237818Y-77513808D01*
X114371068Y-77763101D01*
X114550392Y-77981608D01*
X114768899Y-78160932D01*
X114901858Y-78232000D01*
X114768899Y-78303068D01*
X114550392Y-78482392D01*
X114371068Y-78700899D01*
X114237818Y-78950192D01*
X114155764Y-79220691D01*
X114128057Y-79502000D01*
X114155764Y-79783309D01*
X114237818Y-80053808D01*
X114371068Y-80303101D01*
X114550392Y-80521608D01*
X114768899Y-80700932D01*
X114901858Y-80772000D01*
X114768899Y-80843068D01*
X114550392Y-81022392D01*
X114371068Y-81240899D01*
X114237818Y-81490192D01*
X114155764Y-81760691D01*
X114128057Y-82042000D01*
X114155764Y-82323309D01*
X114237818Y-82593808D01*
X114371068Y-82843101D01*
X114550392Y-83061608D01*
X114768899Y-83240932D01*
X114901858Y-83312000D01*
X114768899Y-83383068D01*
X114550392Y-83562392D01*
X114371068Y-83780899D01*
X114237818Y-84030192D01*
X114155764Y-84300691D01*
X114128057Y-84582000D01*
X114155764Y-84863309D01*
X114237818Y-85133808D01*
X114371068Y-85383101D01*
X114550392Y-85601608D01*
X114768899Y-85780932D01*
X114901858Y-85852000D01*
X114768899Y-85923068D01*
X114550392Y-86102392D01*
X114371068Y-86320899D01*
X114237818Y-86570192D01*
X114155764Y-86840691D01*
X114128057Y-87122000D01*
X114155764Y-87403309D01*
X114237818Y-87673808D01*
X114371068Y-87923101D01*
X114550392Y-88141608D01*
X114768899Y-88320932D01*
X114901858Y-88392000D01*
X114768899Y-88463068D01*
X114550392Y-88642392D01*
X114371068Y-88860899D01*
X114237818Y-89110192D01*
X114155764Y-89380691D01*
X114128057Y-89662000D01*
X114155764Y-89943309D01*
X114237818Y-90213808D01*
X114371068Y-90463101D01*
X114550392Y-90681608D01*
X114768899Y-90860932D01*
X114901858Y-90932000D01*
X114768899Y-91003068D01*
X114550392Y-91182392D01*
X114371068Y-91400899D01*
X114237818Y-91650192D01*
X114155764Y-91920691D01*
X114128057Y-92202000D01*
X114155764Y-92483309D01*
X114237818Y-92753808D01*
X114371068Y-93003101D01*
X114550392Y-93221608D01*
X114768899Y-93400932D01*
X114901858Y-93472000D01*
X114768899Y-93543068D01*
X114550392Y-93722392D01*
X114371068Y-93940899D01*
X114237818Y-94190192D01*
X114155764Y-94460691D01*
X114128057Y-94742000D01*
X114155764Y-95023309D01*
X114237818Y-95293808D01*
X114371068Y-95543101D01*
X114550392Y-95761608D01*
X114768899Y-95940932D01*
X114901858Y-96012000D01*
X114768899Y-96083068D01*
X114550392Y-96262392D01*
X114371068Y-96480899D01*
X114237818Y-96730192D01*
X114155764Y-97000691D01*
X114128057Y-97282000D01*
X114155764Y-97563309D01*
X114237818Y-97833808D01*
X114371068Y-98083101D01*
X114550392Y-98301608D01*
X114768899Y-98480932D01*
X114901858Y-98552000D01*
X114768899Y-98623068D01*
X114550392Y-98802392D01*
X114371068Y-99020899D01*
X114237818Y-99270192D01*
X114155764Y-99540691D01*
X114128057Y-99822000D01*
X114155764Y-100103309D01*
X114237818Y-100373808D01*
X114371068Y-100623101D01*
X114550392Y-100841608D01*
X114768899Y-101020932D01*
X114901858Y-101092000D01*
X114768899Y-101163068D01*
X114550392Y-101342392D01*
X114371068Y-101560899D01*
X114237818Y-101810192D01*
X114155764Y-102080691D01*
X114128057Y-102362000D01*
X114155764Y-102643309D01*
X114237818Y-102913808D01*
X114371068Y-103163101D01*
X114550392Y-103381608D01*
X114768899Y-103560932D01*
X115018192Y-103694182D01*
X115288691Y-103776236D01*
X115499508Y-103797000D01*
X115640492Y-103797000D01*
X115851309Y-103776236D01*
X116121808Y-103694182D01*
X116371101Y-103560932D01*
X116589608Y-103381608D01*
X116768932Y-103163101D01*
X116902182Y-102913808D01*
X116984236Y-102643309D01*
X117011943Y-102362000D01*
X116984236Y-102080691D01*
X116902182Y-101810192D01*
X116768932Y-101560899D01*
X116589608Y-101342392D01*
X116371101Y-101163068D01*
X116238142Y-101092000D01*
X116371101Y-101020932D01*
X116589608Y-100841608D01*
X116768932Y-100623101D01*
X116902182Y-100373808D01*
X116984236Y-100103309D01*
X117011943Y-99822000D01*
X116984236Y-99540691D01*
X116902182Y-99270192D01*
X116768932Y-99020899D01*
X116669713Y-98900000D01*
X131732815Y-98900000D01*
X131761487Y-99191111D01*
X131846401Y-99471034D01*
X131984294Y-99729014D01*
X132169866Y-99955134D01*
X132395986Y-100140706D01*
X132421722Y-100154462D01*
X132215571Y-100310951D01*
X132022504Y-100528807D01*
X131875648Y-100780142D01*
X131783524Y-101043110D01*
X131904845Y-101273000D01*
X133223000Y-101273000D01*
X133223000Y-101253000D01*
X133477000Y-101253000D01*
X133477000Y-101273000D01*
X134795155Y-101273000D01*
X134916476Y-101043110D01*
X134824352Y-100780142D01*
X134677496Y-100528807D01*
X134484429Y-100310951D01*
X134278278Y-100154462D01*
X134304014Y-100140706D01*
X134530134Y-99955134D01*
X134715706Y-99729014D01*
X134853599Y-99471034D01*
X134938513Y-99191111D01*
X134967185Y-98900000D01*
X134966599Y-98894042D01*
X139285000Y-98894042D01*
X139285000Y-99225958D01*
X139349754Y-99551496D01*
X139476772Y-99858147D01*
X139661175Y-100134125D01*
X139895875Y-100368825D01*
X139980009Y-100425042D01*
X139978539Y-100428934D01*
X140970000Y-101420395D01*
X141961461Y-100428934D01*
X141959991Y-100425042D01*
X142044125Y-100368825D01*
X142278825Y-100134125D01*
X142463228Y-99858147D01*
X142590246Y-99551496D01*
X142655000Y-99225958D01*
X142655000Y-98894042D01*
X142590246Y-98568504D01*
X142463228Y-98261853D01*
X142278825Y-97985875D01*
X142044125Y-97751175D01*
X141959991Y-97694958D01*
X141961461Y-97691066D01*
X140970000Y-96699605D01*
X139978539Y-97691066D01*
X139980009Y-97694958D01*
X139895875Y-97751175D01*
X139661175Y-97985875D01*
X139476772Y-98261853D01*
X139349754Y-98568504D01*
X139285000Y-98894042D01*
X134966599Y-98894042D01*
X134938513Y-98608889D01*
X134853599Y-98328966D01*
X134715706Y-98070986D01*
X134530134Y-97844866D01*
X134304014Y-97659294D01*
X134278278Y-97645538D01*
X134484429Y-97489049D01*
X134677496Y-97271193D01*
X134824352Y-97019858D01*
X134916476Y-96756890D01*
X134823451Y-96580617D01*
X139277934Y-96580617D01*
X139322272Y-96909557D01*
X139429931Y-97223527D01*
X139529421Y-97409661D01*
X139798934Y-97511461D01*
X140790395Y-96520000D01*
X141149605Y-96520000D01*
X142141066Y-97511461D01*
X142410579Y-97409661D01*
X142556463Y-97111523D01*
X142641380Y-96790654D01*
X142662066Y-96459383D01*
X142617728Y-96130443D01*
X142510069Y-95816473D01*
X142410579Y-95630339D01*
X142141066Y-95528539D01*
X141149605Y-96520000D01*
X140790395Y-96520000D01*
X139798934Y-95528539D01*
X139529421Y-95630339D01*
X139383537Y-95928477D01*
X139298620Y-96249346D01*
X139277934Y-96580617D01*
X134823451Y-96580617D01*
X134795155Y-96527000D01*
X133477000Y-96527000D01*
X133477000Y-96547000D01*
X133223000Y-96547000D01*
X133223000Y-96527000D01*
X131904845Y-96527000D01*
X131783524Y-96756890D01*
X131875648Y-97019858D01*
X132022504Y-97271193D01*
X132215571Y-97489049D01*
X132421722Y-97645538D01*
X132395986Y-97659294D01*
X132169866Y-97844866D01*
X131984294Y-98070986D01*
X131846401Y-98328966D01*
X131761487Y-98608889D01*
X131732815Y-98900000D01*
X116669713Y-98900000D01*
X116589608Y-98802392D01*
X116371101Y-98623068D01*
X116238142Y-98552000D01*
X116371101Y-98480932D01*
X116589608Y-98301608D01*
X116768932Y-98083101D01*
X116902182Y-97833808D01*
X116984236Y-97563309D01*
X117011943Y-97282000D01*
X116984236Y-97000691D01*
X116902182Y-96730192D01*
X116768932Y-96480899D01*
X116589608Y-96262392D01*
X116371101Y-96083068D01*
X116238142Y-96012000D01*
X116371101Y-95940932D01*
X116589608Y-95761608D01*
X116768932Y-95543101D01*
X116902182Y-95293808D01*
X116984236Y-95023309D01*
X117011943Y-94742000D01*
X116984236Y-94460691D01*
X116902182Y-94190192D01*
X116768932Y-93940899D01*
X116735368Y-93900000D01*
X131732815Y-93900000D01*
X131761487Y-94191111D01*
X131846401Y-94471034D01*
X131984294Y-94729014D01*
X132169866Y-94955134D01*
X132395986Y-95140706D01*
X132421722Y-95154462D01*
X132215571Y-95310951D01*
X132022504Y-95528807D01*
X131875648Y-95780142D01*
X131783524Y-96043110D01*
X131904845Y-96273000D01*
X133223000Y-96273000D01*
X133223000Y-96253000D01*
X133477000Y-96253000D01*
X133477000Y-96273000D01*
X134795155Y-96273000D01*
X134916476Y-96043110D01*
X134824352Y-95780142D01*
X134677496Y-95528807D01*
X134484429Y-95310951D01*
X134278278Y-95154462D01*
X134304014Y-95140706D01*
X134530134Y-94955134D01*
X134715706Y-94729014D01*
X134853599Y-94471034D01*
X134938513Y-94191111D01*
X134967185Y-93900000D01*
X134958719Y-93814042D01*
X139285000Y-93814042D01*
X139285000Y-94145958D01*
X139349754Y-94471496D01*
X139476772Y-94778147D01*
X139661175Y-95054125D01*
X139895875Y-95288825D01*
X139980009Y-95345042D01*
X139978539Y-95348934D01*
X140970000Y-96340395D01*
X141961461Y-95348934D01*
X141959991Y-95345042D01*
X142044125Y-95288825D01*
X142278825Y-95054125D01*
X142463228Y-94778147D01*
X142590246Y-94471496D01*
X142655000Y-94145958D01*
X142655000Y-93814042D01*
X142590246Y-93488504D01*
X142463228Y-93181853D01*
X142278825Y-92905875D01*
X142044125Y-92671175D01*
X141959991Y-92614958D01*
X141961461Y-92611066D01*
X140970000Y-91619605D01*
X139978539Y-92611066D01*
X139980009Y-92614958D01*
X139895875Y-92671175D01*
X139661175Y-92905875D01*
X139476772Y-93181853D01*
X139349754Y-93488504D01*
X139285000Y-93814042D01*
X134958719Y-93814042D01*
X134938513Y-93608889D01*
X134853599Y-93328966D01*
X134715706Y-93070986D01*
X134530134Y-92844866D01*
X134304014Y-92659294D01*
X134278278Y-92645538D01*
X134484429Y-92489049D01*
X134677496Y-92271193D01*
X134824352Y-92019858D01*
X134916476Y-91756890D01*
X134795155Y-91527000D01*
X133477000Y-91527000D01*
X133477000Y-91547000D01*
X133223000Y-91547000D01*
X133223000Y-91527000D01*
X131904845Y-91527000D01*
X131783524Y-91756890D01*
X131875648Y-92019858D01*
X132022504Y-92271193D01*
X132215571Y-92489049D01*
X132421722Y-92645538D01*
X132395986Y-92659294D01*
X132169866Y-92844866D01*
X131984294Y-93070986D01*
X131846401Y-93328966D01*
X131761487Y-93608889D01*
X131732815Y-93900000D01*
X116735368Y-93900000D01*
X116589608Y-93722392D01*
X116371101Y-93543068D01*
X116238142Y-93472000D01*
X116371101Y-93400932D01*
X116589608Y-93221608D01*
X116768932Y-93003101D01*
X116902182Y-92753808D01*
X116984236Y-92483309D01*
X117011943Y-92202000D01*
X116984236Y-91920691D01*
X116902182Y-91650192D01*
X116822233Y-91500617D01*
X139277934Y-91500617D01*
X139322272Y-91829557D01*
X139429931Y-92143527D01*
X139529421Y-92329661D01*
X139798934Y-92431461D01*
X140790395Y-91440000D01*
X140776253Y-91425858D01*
X140955858Y-91246253D01*
X140970000Y-91260395D01*
X140984143Y-91246253D01*
X141163748Y-91425858D01*
X141149605Y-91440000D01*
X142141066Y-92431461D01*
X142410579Y-92329661D01*
X142556463Y-92031523D01*
X142641380Y-91710654D01*
X142662066Y-91379383D01*
X142617728Y-91050443D01*
X142510069Y-90736473D01*
X142410579Y-90550339D01*
X142312918Y-90513451D01*
X142374494Y-90480537D01*
X142471185Y-90401185D01*
X142550537Y-90304494D01*
X142609502Y-90194180D01*
X142645812Y-90074482D01*
X142658072Y-89950000D01*
X142658072Y-87850000D01*
X142645812Y-87725518D01*
X142609502Y-87605820D01*
X142550537Y-87495506D01*
X142471185Y-87398815D01*
X142374494Y-87319463D01*
X142264180Y-87260498D01*
X142144482Y-87224188D01*
X142020000Y-87211928D01*
X139920000Y-87211928D01*
X139795518Y-87224188D01*
X139675820Y-87260498D01*
X139565506Y-87319463D01*
X139468815Y-87398815D01*
X139389463Y-87495506D01*
X139330498Y-87605820D01*
X139294188Y-87725518D01*
X139281928Y-87850000D01*
X139281928Y-89950000D01*
X139294188Y-90074482D01*
X139330498Y-90194180D01*
X139389463Y-90304494D01*
X139468815Y-90401185D01*
X139565506Y-90480537D01*
X139627082Y-90513451D01*
X139529421Y-90550339D01*
X139383537Y-90848477D01*
X139298620Y-91169346D01*
X139277934Y-91500617D01*
X116822233Y-91500617D01*
X116768932Y-91400899D01*
X116589608Y-91182392D01*
X116371101Y-91003068D01*
X116238142Y-90932000D01*
X116371101Y-90860932D01*
X116589608Y-90681608D01*
X116768932Y-90463101D01*
X116902182Y-90213808D01*
X116984236Y-89943309D01*
X117011943Y-89662000D01*
X116984236Y-89380691D01*
X116902182Y-89110192D01*
X116768932Y-88860899D01*
X116589608Y-88642392D01*
X116371101Y-88463068D01*
X116238142Y-88392000D01*
X116371101Y-88320932D01*
X116396606Y-88300000D01*
X131736928Y-88300000D01*
X131736928Y-89500000D01*
X131753992Y-89673254D01*
X131804528Y-89839850D01*
X131886595Y-89993386D01*
X131997038Y-90127962D01*
X132131614Y-90238405D01*
X132236961Y-90294714D01*
X132215571Y-90310951D01*
X132022504Y-90528807D01*
X131875648Y-90780142D01*
X131783524Y-91043110D01*
X131904845Y-91273000D01*
X133223000Y-91273000D01*
X133223000Y-91253000D01*
X133477000Y-91253000D01*
X133477000Y-91273000D01*
X134795155Y-91273000D01*
X134916476Y-91043110D01*
X134824352Y-90780142D01*
X134677496Y-90528807D01*
X134484429Y-90310951D01*
X134463039Y-90294714D01*
X134568386Y-90238405D01*
X134702962Y-90127962D01*
X134813405Y-89993386D01*
X134895472Y-89839850D01*
X134946008Y-89673254D01*
X134963072Y-89500000D01*
X134963072Y-88300000D01*
X134946008Y-88126746D01*
X134895472Y-87960150D01*
X134813405Y-87806614D01*
X134702962Y-87672038D01*
X134568386Y-87561595D01*
X134414850Y-87479528D01*
X134248254Y-87428992D01*
X134075000Y-87411928D01*
X132625000Y-87411928D01*
X132451746Y-87428992D01*
X132285150Y-87479528D01*
X132131614Y-87561595D01*
X131997038Y-87672038D01*
X131886595Y-87806614D01*
X131804528Y-87960150D01*
X131753992Y-88126746D01*
X131736928Y-88300000D01*
X116396606Y-88300000D01*
X116589608Y-88141608D01*
X116768932Y-87923101D01*
X116902182Y-87673808D01*
X116984236Y-87403309D01*
X117011943Y-87122000D01*
X116984236Y-86840691D01*
X116902182Y-86570192D01*
X116768932Y-86320899D01*
X116589608Y-86102392D01*
X116371101Y-85923068D01*
X116238142Y-85852000D01*
X116371101Y-85780932D01*
X116589608Y-85601608D01*
X116768932Y-85383101D01*
X116902182Y-85133808D01*
X116984236Y-84863309D01*
X117011943Y-84582000D01*
X116984236Y-84300691D01*
X116902182Y-84030192D01*
X116768932Y-83780899D01*
X116589608Y-83562392D01*
X116371101Y-83383068D01*
X116238142Y-83312000D01*
X116371101Y-83240932D01*
X116589608Y-83061608D01*
X116768932Y-82843101D01*
X116798977Y-82786890D01*
X131783524Y-82786890D01*
X131875648Y-83049858D01*
X132022504Y-83301193D01*
X132215571Y-83519049D01*
X132447430Y-83695053D01*
X132709170Y-83822442D01*
X132990733Y-83896320D01*
X133223000Y-83756165D01*
X133223000Y-82557000D01*
X133477000Y-82557000D01*
X133477000Y-83756165D01*
X133709267Y-83896320D01*
X133990830Y-83822442D01*
X134199122Y-83721066D01*
X139978539Y-83721066D01*
X140080339Y-83990579D01*
X140378477Y-84136463D01*
X140699346Y-84221380D01*
X141030617Y-84242066D01*
X141359557Y-84197728D01*
X141673527Y-84090069D01*
X141859661Y-83990579D01*
X141961461Y-83721066D01*
X140970000Y-82729605D01*
X139978539Y-83721066D01*
X134199122Y-83721066D01*
X134252570Y-83695053D01*
X134484429Y-83519049D01*
X134677496Y-83301193D01*
X134824352Y-83049858D01*
X134916476Y-82786890D01*
X134823451Y-82610617D01*
X139277934Y-82610617D01*
X139322272Y-82939557D01*
X139429931Y-83253527D01*
X139529421Y-83439661D01*
X139798934Y-83541461D01*
X140790395Y-82550000D01*
X141149605Y-82550000D01*
X142141066Y-83541461D01*
X142410579Y-83439661D01*
X142556463Y-83141523D01*
X142641380Y-82820654D01*
X142662066Y-82489383D01*
X142617728Y-82160443D01*
X142510069Y-81846473D01*
X142410579Y-81660339D01*
X142141066Y-81558539D01*
X141149605Y-82550000D01*
X140790395Y-82550000D01*
X139798934Y-81558539D01*
X139529421Y-81660339D01*
X139383537Y-81958477D01*
X139298620Y-82279346D01*
X139277934Y-82610617D01*
X134823451Y-82610617D01*
X134795155Y-82557000D01*
X133477000Y-82557000D01*
X133223000Y-82557000D01*
X131904845Y-82557000D01*
X131783524Y-82786890D01*
X116798977Y-82786890D01*
X116902182Y-82593808D01*
X116984236Y-82323309D01*
X117011943Y-82042000D01*
X116984236Y-81760691D01*
X116902182Y-81490192D01*
X116768932Y-81240899D01*
X116589608Y-81022392D01*
X116371101Y-80843068D01*
X116238142Y-80772000D01*
X116371101Y-80700932D01*
X116589608Y-80521608D01*
X116768932Y-80303101D01*
X116902182Y-80053808D01*
X116984236Y-79783309D01*
X117011943Y-79502000D01*
X116984236Y-79220691D01*
X116902182Y-78950192D01*
X116768932Y-78700899D01*
X116589608Y-78482392D01*
X116371101Y-78303068D01*
X116238142Y-78232000D01*
X116371101Y-78160932D01*
X116589608Y-77981608D01*
X116768932Y-77763101D01*
X116902182Y-77513808D01*
X116927604Y-77430000D01*
X131732815Y-77430000D01*
X131761487Y-77721111D01*
X131846401Y-78001034D01*
X131984294Y-78259014D01*
X132169866Y-78485134D01*
X132395986Y-78670706D01*
X132413374Y-78680000D01*
X132395986Y-78689294D01*
X132169866Y-78874866D01*
X131984294Y-79100986D01*
X131846401Y-79358966D01*
X131761487Y-79638889D01*
X131732815Y-79930000D01*
X131761487Y-80221111D01*
X131846401Y-80501034D01*
X131984294Y-80759014D01*
X132169866Y-80985134D01*
X132395986Y-81170706D01*
X132421722Y-81184462D01*
X132215571Y-81340951D01*
X132022504Y-81558807D01*
X131875648Y-81810142D01*
X131783524Y-82073110D01*
X131904845Y-82303000D01*
X133223000Y-82303000D01*
X133223000Y-82283000D01*
X133477000Y-82283000D01*
X133477000Y-82303000D01*
X134795155Y-82303000D01*
X134916476Y-82073110D01*
X134824352Y-81810142D01*
X134677496Y-81558807D01*
X134484429Y-81340951D01*
X134278278Y-81184462D01*
X134304014Y-81170706D01*
X134530134Y-80985134D01*
X134715706Y-80759014D01*
X134853599Y-80501034D01*
X134938513Y-80221111D01*
X134967185Y-79930000D01*
X134938513Y-79638889D01*
X134853599Y-79358966D01*
X134715706Y-79100986D01*
X134530134Y-78874866D01*
X134304014Y-78689294D01*
X134286626Y-78680000D01*
X134304014Y-78670706D01*
X134530134Y-78485134D01*
X134715706Y-78259014D01*
X134853599Y-78001034D01*
X134938513Y-77721111D01*
X134967185Y-77430000D01*
X134938513Y-77138889D01*
X134853599Y-76858966D01*
X134715706Y-76600986D01*
X134530134Y-76374866D01*
X134466663Y-76322777D01*
X134568386Y-76268405D01*
X134702962Y-76157962D01*
X134813405Y-76023386D01*
X134895472Y-75869850D01*
X134946008Y-75703254D01*
X134963072Y-75530000D01*
X134963072Y-74330000D01*
X134946008Y-74156746D01*
X134895472Y-73990150D01*
X134836596Y-73880000D01*
X139281928Y-73880000D01*
X139281928Y-75980000D01*
X139294188Y-76104482D01*
X139330498Y-76224180D01*
X139389463Y-76334494D01*
X139468815Y-76431185D01*
X139565506Y-76510537D01*
X139579546Y-76518042D01*
X139476772Y-76671853D01*
X139349754Y-76978504D01*
X139285000Y-77304042D01*
X139285000Y-77635958D01*
X139349754Y-77961496D01*
X139476772Y-78268147D01*
X139661175Y-78544125D01*
X139857050Y-78740000D01*
X139661175Y-78935875D01*
X139476772Y-79211853D01*
X139349754Y-79518504D01*
X139285000Y-79844042D01*
X139285000Y-80175958D01*
X139349754Y-80501496D01*
X139476772Y-80808147D01*
X139661175Y-81084125D01*
X139895875Y-81318825D01*
X139980009Y-81375042D01*
X139978539Y-81378934D01*
X140970000Y-82370395D01*
X141961461Y-81378934D01*
X141959991Y-81375042D01*
X142044125Y-81318825D01*
X142278825Y-81084125D01*
X142463228Y-80808147D01*
X142590246Y-80501496D01*
X142655000Y-80175958D01*
X142655000Y-79844042D01*
X142590246Y-79518504D01*
X142463228Y-79211853D01*
X142278825Y-78935875D01*
X142082950Y-78740000D01*
X142278825Y-78544125D01*
X142463228Y-78268147D01*
X142590246Y-77961496D01*
X142655000Y-77635958D01*
X142655000Y-77304042D01*
X142590246Y-76978504D01*
X142463228Y-76671853D01*
X142360454Y-76518042D01*
X142374494Y-76510537D01*
X142471185Y-76431185D01*
X142550537Y-76334494D01*
X142609502Y-76224180D01*
X142645812Y-76104482D01*
X142658072Y-75980000D01*
X142658072Y-73880000D01*
X142645812Y-73755518D01*
X142609502Y-73635820D01*
X142550537Y-73525506D01*
X142471185Y-73428815D01*
X142374494Y-73349463D01*
X142264180Y-73290498D01*
X142144482Y-73254188D01*
X142020000Y-73241928D01*
X139920000Y-73241928D01*
X139795518Y-73254188D01*
X139675820Y-73290498D01*
X139565506Y-73349463D01*
X139468815Y-73428815D01*
X139389463Y-73525506D01*
X139330498Y-73635820D01*
X139294188Y-73755518D01*
X139281928Y-73880000D01*
X134836596Y-73880000D01*
X134813405Y-73836614D01*
X134702962Y-73702038D01*
X134568386Y-73591595D01*
X134414850Y-73509528D01*
X134248254Y-73458992D01*
X134075000Y-73441928D01*
X132625000Y-73441928D01*
X132451746Y-73458992D01*
X132285150Y-73509528D01*
X132131614Y-73591595D01*
X131997038Y-73702038D01*
X131886595Y-73836614D01*
X131804528Y-73990150D01*
X131753992Y-74156746D01*
X131736928Y-74330000D01*
X131736928Y-75530000D01*
X131753992Y-75703254D01*
X131804528Y-75869850D01*
X131886595Y-76023386D01*
X131997038Y-76157962D01*
X132131614Y-76268405D01*
X132233337Y-76322777D01*
X132169866Y-76374866D01*
X131984294Y-76600986D01*
X131846401Y-76858966D01*
X131761487Y-77138889D01*
X131732815Y-77430000D01*
X116927604Y-77430000D01*
X116984236Y-77243309D01*
X117011943Y-76962000D01*
X116984236Y-76680691D01*
X116902182Y-76410192D01*
X116768932Y-76160899D01*
X116589608Y-75942392D01*
X116371101Y-75763068D01*
X116238142Y-75692000D01*
X116371101Y-75620932D01*
X116589608Y-75441608D01*
X116768932Y-75223101D01*
X116902182Y-74973808D01*
X116984236Y-74703309D01*
X117011943Y-74422000D01*
X116984236Y-74140691D01*
X116902182Y-73870192D01*
X116768932Y-73620899D01*
X116589608Y-73402392D01*
X116371101Y-73223068D01*
X116238142Y-73152000D01*
X116371101Y-73080932D01*
X116589608Y-72901608D01*
X116768932Y-72683101D01*
X116902182Y-72433808D01*
X116984236Y-72163309D01*
X117011943Y-71882000D01*
X116984236Y-71600691D01*
X116902182Y-71330192D01*
X116768932Y-71080899D01*
X116589608Y-70862392D01*
X116371101Y-70683068D01*
X116233318Y-70609421D01*
X116425131Y-70494385D01*
X116633519Y-70305414D01*
X116801037Y-70079420D01*
X116921246Y-69825087D01*
X116961904Y-69691039D01*
X116839915Y-69469000D01*
X115697000Y-69469000D01*
X115697000Y-69489000D01*
X115443000Y-69489000D01*
X115443000Y-69469000D01*
X114300085Y-69469000D01*
X114178096Y-69691039D01*
X114218754Y-69825087D01*
X114338963Y-70079420D01*
X114506481Y-70305414D01*
X114714869Y-70494385D01*
X114906682Y-70609421D01*
X114768899Y-70683068D01*
X114550392Y-70862392D01*
X114371068Y-71080899D01*
X114237818Y-71330192D01*
X114155764Y-71600691D01*
X114128057Y-71882000D01*
X101771943Y-71882000D01*
X101744236Y-71600691D01*
X101662182Y-71330192D01*
X101528932Y-71080899D01*
X101349608Y-70862392D01*
X101131101Y-70683068D01*
X100998142Y-70612000D01*
X101131101Y-70540932D01*
X101349608Y-70361608D01*
X101528932Y-70143101D01*
X101662182Y-69893808D01*
X101744236Y-69623309D01*
X101771943Y-69342000D01*
X101744236Y-69060691D01*
X101662182Y-68790192D01*
X101528932Y-68540899D01*
X101349608Y-68322392D01*
X101236518Y-68229581D01*
X101254482Y-68227812D01*
X101374180Y-68191502D01*
X101484494Y-68132537D01*
X101581185Y-68053185D01*
X101660537Y-67956494D01*
X101719502Y-67846180D01*
X101755812Y-67726482D01*
X101768072Y-67602000D01*
X101768072Y-66802000D01*
X114128057Y-66802000D01*
X114155764Y-67083309D01*
X114237818Y-67353808D01*
X114371068Y-67603101D01*
X114550392Y-67821608D01*
X114768899Y-68000932D01*
X114906682Y-68074579D01*
X114714869Y-68189615D01*
X114506481Y-68378586D01*
X114338963Y-68604580D01*
X114218754Y-68858913D01*
X114178096Y-68992961D01*
X114300085Y-69215000D01*
X115443000Y-69215000D01*
X115443000Y-69195000D01*
X115697000Y-69195000D01*
X115697000Y-69215000D01*
X116839915Y-69215000D01*
X116961904Y-68992961D01*
X116921246Y-68858913D01*
X116920674Y-68857702D01*
X119582903Y-68857702D01*
X119654486Y-69101671D01*
X119909996Y-69222571D01*
X120184184Y-69291300D01*
X120466512Y-69305217D01*
X120746130Y-69263787D01*
X121012292Y-69168603D01*
X121137514Y-69101671D01*
X121209097Y-68857702D01*
X120396000Y-68044605D01*
X119582903Y-68857702D01*
X116920674Y-68857702D01*
X116801037Y-68604580D01*
X116633519Y-68378586D01*
X116425131Y-68189615D01*
X116233318Y-68074579D01*
X116371101Y-68000932D01*
X116450815Y-67935512D01*
X118955783Y-67935512D01*
X118997213Y-68215130D01*
X119092397Y-68481292D01*
X119159329Y-68606514D01*
X119403298Y-68678097D01*
X120216395Y-67865000D01*
X120575605Y-67865000D01*
X121388702Y-68678097D01*
X121632671Y-68606514D01*
X121753571Y-68351004D01*
X121822300Y-68076816D01*
X121826446Y-67992702D01*
X126186903Y-67992702D01*
X126258486Y-68236671D01*
X126513996Y-68357571D01*
X126788184Y-68426300D01*
X127070512Y-68440217D01*
X127350130Y-68398787D01*
X127599131Y-68309740D01*
X137943964Y-68309740D01*
X137968245Y-68415087D01*
X138088138Y-68692204D01*
X138259790Y-68940606D01*
X138476604Y-69150748D01*
X138730249Y-69314554D01*
X139010977Y-69425729D01*
X139308000Y-69480000D01*
X140208000Y-69480000D01*
X140208000Y-68072000D01*
X140462000Y-68072000D01*
X140462000Y-69480000D01*
X141362000Y-69480000D01*
X141659023Y-69425729D01*
X141939751Y-69314554D01*
X142193396Y-69150748D01*
X142410210Y-68940606D01*
X142581862Y-68692204D01*
X142701755Y-68415087D01*
X142726036Y-68309740D01*
X142605378Y-68072000D01*
X140462000Y-68072000D01*
X140208000Y-68072000D01*
X138064622Y-68072000D01*
X137943964Y-68309740D01*
X127599131Y-68309740D01*
X127616292Y-68303603D01*
X127741514Y-68236671D01*
X127813097Y-67992702D01*
X127000000Y-67179605D01*
X126186903Y-67992702D01*
X121826446Y-67992702D01*
X121836217Y-67794488D01*
X121794787Y-67514870D01*
X121699603Y-67248708D01*
X121632671Y-67123486D01*
X121452126Y-67070512D01*
X125559783Y-67070512D01*
X125601213Y-67350130D01*
X125696397Y-67616292D01*
X125763329Y-67741514D01*
X126007298Y-67813097D01*
X126820395Y-67000000D01*
X127179605Y-67000000D01*
X127992702Y-67813097D01*
X128236671Y-67741514D01*
X128312971Y-67580260D01*
X137943964Y-67580260D01*
X138064622Y-67818000D01*
X140208000Y-67818000D01*
X140208000Y-67798000D01*
X140462000Y-67798000D01*
X140462000Y-67818000D01*
X142605378Y-67818000D01*
X142726036Y-67580260D01*
X142701755Y-67474913D01*
X142581862Y-67197796D01*
X142410210Y-66949394D01*
X142193396Y-66739252D01*
X141939751Y-66575446D01*
X141659023Y-66464271D01*
X141362000Y-66410000D01*
X139308000Y-66410000D01*
X139010977Y-66464271D01*
X138730249Y-66575446D01*
X138476604Y-66739252D01*
X138259790Y-66949394D01*
X138088138Y-67197796D01*
X137968245Y-67474913D01*
X137943964Y-67580260D01*
X128312971Y-67580260D01*
X128357571Y-67486004D01*
X128426300Y-67211816D01*
X128440217Y-66929488D01*
X128398787Y-66649870D01*
X128303603Y-66383708D01*
X128236671Y-66258486D01*
X127992702Y-66186903D01*
X127179605Y-67000000D01*
X126820395Y-67000000D01*
X126007298Y-66186903D01*
X125763329Y-66258486D01*
X125642429Y-66513996D01*
X125573700Y-66788184D01*
X125559783Y-67070512D01*
X121452126Y-67070512D01*
X121388702Y-67051903D01*
X120575605Y-67865000D01*
X120216395Y-67865000D01*
X119403298Y-67051903D01*
X119159329Y-67123486D01*
X119038429Y-67378996D01*
X118969700Y-67653184D01*
X118955783Y-67935512D01*
X116450815Y-67935512D01*
X116589608Y-67821608D01*
X116768932Y-67603101D01*
X116902182Y-67353808D01*
X116984236Y-67083309D01*
X117005019Y-66872298D01*
X119582903Y-66872298D01*
X120396000Y-67685395D01*
X121209097Y-66872298D01*
X121137514Y-66628329D01*
X120882004Y-66507429D01*
X120607816Y-66438700D01*
X120325488Y-66424783D01*
X120045870Y-66466213D01*
X119779708Y-66561397D01*
X119654486Y-66628329D01*
X119582903Y-66872298D01*
X117005019Y-66872298D01*
X117011943Y-66802000D01*
X116984236Y-66520691D01*
X116902182Y-66250192D01*
X116772353Y-66007298D01*
X126186903Y-66007298D01*
X127000000Y-66820395D01*
X127813097Y-66007298D01*
X127741514Y-65763329D01*
X127486004Y-65642429D01*
X127211816Y-65573700D01*
X126929488Y-65559783D01*
X126649870Y-65601213D01*
X126383708Y-65696397D01*
X126258486Y-65763329D01*
X126186903Y-66007298D01*
X116772353Y-66007298D01*
X116768932Y-66000899D01*
X116589608Y-65782392D01*
X116371101Y-65603068D01*
X116121808Y-65469818D01*
X115851309Y-65387764D01*
X115640492Y-65367000D01*
X115499508Y-65367000D01*
X115288691Y-65387764D01*
X115018192Y-65469818D01*
X114768899Y-65603068D01*
X114550392Y-65782392D01*
X114371068Y-66000899D01*
X114237818Y-66250192D01*
X114155764Y-66520691D01*
X114128057Y-66802000D01*
X101768072Y-66802000D01*
X101768072Y-66002000D01*
X101755812Y-65877518D01*
X101719502Y-65757820D01*
X101660537Y-65647506D01*
X101581185Y-65550815D01*
X101484494Y-65471463D01*
X101374180Y-65412498D01*
X101254482Y-65376188D01*
X101130000Y-65363928D01*
X99530000Y-65363928D01*
X99405518Y-65376188D01*
X99285820Y-65412498D01*
X99175506Y-65471463D01*
X99078815Y-65550815D01*
X98999463Y-65647506D01*
X98940498Y-65757820D01*
X98904188Y-65877518D01*
X98891928Y-66002000D01*
X98891928Y-67602000D01*
X98904188Y-67726482D01*
X98940498Y-67846180D01*
X98999463Y-67956494D01*
X99078815Y-68053185D01*
X99175506Y-68132537D01*
X99285820Y-68191502D01*
X99405518Y-68227812D01*
X99423482Y-68229581D01*
X99310392Y-68322392D01*
X99131068Y-68540899D01*
X98997818Y-68790192D01*
X98915764Y-69060691D01*
X98888057Y-69342000D01*
X94876854Y-69342000D01*
X94880000Y-69326184D01*
X94880000Y-69023816D01*
X94821011Y-68727257D01*
X94705299Y-68447905D01*
X94537312Y-68196495D01*
X94323505Y-67982688D01*
X94237169Y-67925000D01*
X94323505Y-67867312D01*
X94537312Y-67653505D01*
X94705299Y-67402095D01*
X94821011Y-67122743D01*
X94880000Y-66826184D01*
X94880000Y-66523816D01*
X94821011Y-66227257D01*
X94705299Y-65947905D01*
X94537312Y-65696495D01*
X94323505Y-65482688D01*
X94072095Y-65314701D01*
X93792743Y-65198989D01*
X93496184Y-65140000D01*
X93193816Y-65140000D01*
X92897257Y-65198989D01*
X92617905Y-65314701D01*
X92366495Y-65482688D01*
X92152688Y-65696495D01*
X91984701Y-65947905D01*
X91868989Y-66227257D01*
X91810000Y-66523816D01*
X88322637Y-66523816D01*
X88391738Y-66454715D01*
X88680107Y-66023141D01*
X88878739Y-65543601D01*
X88980000Y-65034525D01*
X88980000Y-64515475D01*
X88878739Y-64006399D01*
X88680107Y-63526859D01*
X88391738Y-63095285D01*
X88024715Y-62728262D01*
X88017836Y-62723665D01*
X118961000Y-62723665D01*
X118961000Y-63006335D01*
X119016147Y-63283574D01*
X119124320Y-63544727D01*
X119281363Y-63779759D01*
X119481241Y-63979637D01*
X119716273Y-64136680D01*
X119977426Y-64244853D01*
X120254665Y-64300000D01*
X120537335Y-64300000D01*
X120814574Y-64244853D01*
X121075727Y-64136680D01*
X121310759Y-63979637D01*
X121510637Y-63779759D01*
X121667680Y-63544727D01*
X121744749Y-63358665D01*
X125565000Y-63358665D01*
X125565000Y-63641335D01*
X125620147Y-63918574D01*
X125728320Y-64179727D01*
X125885363Y-64414759D01*
X126085241Y-64614637D01*
X126320273Y-64771680D01*
X126581426Y-64879853D01*
X126858665Y-64935000D01*
X127141335Y-64935000D01*
X127418574Y-64879853D01*
X127679727Y-64771680D01*
X127914759Y-64614637D01*
X128114637Y-64414759D01*
X128271680Y-64179727D01*
X128379853Y-63918574D01*
X128435000Y-63641335D01*
X128435000Y-63358665D01*
X128379853Y-63081426D01*
X128271680Y-62820273D01*
X128114637Y-62585241D01*
X127914759Y-62385363D01*
X127679727Y-62228320D01*
X127647570Y-62215000D01*
X137896928Y-62215000D01*
X137896928Y-63515000D01*
X137913992Y-63688254D01*
X137964528Y-63854850D01*
X138046595Y-64008386D01*
X138157038Y-64142962D01*
X138291614Y-64253405D01*
X138445150Y-64335472D01*
X138611746Y-64386008D01*
X138785000Y-64403072D01*
X141885000Y-64403072D01*
X142058254Y-64386008D01*
X142224850Y-64335472D01*
X142378386Y-64253405D01*
X142512962Y-64142962D01*
X142623405Y-64008386D01*
X142705472Y-63854850D01*
X142756008Y-63688254D01*
X142773072Y-63515000D01*
X142773072Y-62215000D01*
X142756008Y-62041746D01*
X142705472Y-61875150D01*
X142623405Y-61721614D01*
X142512962Y-61587038D01*
X142378386Y-61476595D01*
X142224850Y-61394528D01*
X142058254Y-61343992D01*
X141885000Y-61326928D01*
X138785000Y-61326928D01*
X138611746Y-61343992D01*
X138445150Y-61394528D01*
X138291614Y-61476595D01*
X138157038Y-61587038D01*
X138046595Y-61721614D01*
X137964528Y-61875150D01*
X137913992Y-62041746D01*
X137896928Y-62215000D01*
X127647570Y-62215000D01*
X127418574Y-62120147D01*
X127141335Y-62065000D01*
X126858665Y-62065000D01*
X126581426Y-62120147D01*
X126320273Y-62228320D01*
X126085241Y-62385363D01*
X125885363Y-62585241D01*
X125728320Y-62820273D01*
X125620147Y-63081426D01*
X125565000Y-63358665D01*
X121744749Y-63358665D01*
X121775853Y-63283574D01*
X121831000Y-63006335D01*
X121831000Y-62723665D01*
X121775853Y-62446426D01*
X121667680Y-62185273D01*
X121510637Y-61950241D01*
X121310759Y-61750363D01*
X121075727Y-61593320D01*
X120814574Y-61485147D01*
X120537335Y-61430000D01*
X120254665Y-61430000D01*
X119977426Y-61485147D01*
X119716273Y-61593320D01*
X119481241Y-61750363D01*
X119281363Y-61950241D01*
X119124320Y-62185273D01*
X119016147Y-62446426D01*
X118961000Y-62723665D01*
X88017836Y-62723665D01*
X87593141Y-62439893D01*
X87113601Y-62241261D01*
X86604525Y-62140000D01*
X86085475Y-62140000D01*
X85576399Y-62241261D01*
X85096859Y-62439893D01*
X84665285Y-62728262D01*
X84298262Y-63095285D01*
X84009893Y-63526859D01*
X83811261Y-64006399D01*
X83710000Y-64515475D01*
X80670000Y-64515475D01*
X80670000Y-55277279D01*
X80694748Y-55024872D01*
X81585000Y-55024872D01*
X81585000Y-55465128D01*
X81670890Y-55896925D01*
X81839369Y-56303669D01*
X82083962Y-56669729D01*
X82395271Y-56981038D01*
X82761331Y-57225631D01*
X83168075Y-57394110D01*
X83599872Y-57480000D01*
X84040128Y-57480000D01*
X84471925Y-57394110D01*
X84878669Y-57225631D01*
X85244729Y-56981038D01*
X85556038Y-56669729D01*
X85800631Y-56303669D01*
X85969110Y-55896925D01*
X86055000Y-55465128D01*
X86055000Y-55024872D01*
X139370000Y-55024872D01*
X139370000Y-55465128D01*
X139455890Y-55896925D01*
X139624369Y-56303669D01*
X139868962Y-56669729D01*
X140180271Y-56981038D01*
X140546331Y-57225631D01*
X140953075Y-57394110D01*
X141384872Y-57480000D01*
X141825128Y-57480000D01*
X142256925Y-57394110D01*
X142663669Y-57225631D01*
X143029729Y-56981038D01*
X143341038Y-56669729D01*
X143585631Y-56303669D01*
X143754110Y-55896925D01*
X143840000Y-55465128D01*
X143840000Y-55024872D01*
X143754110Y-54593075D01*
X143585631Y-54186331D01*
X143341038Y-53820271D01*
X143029729Y-53508962D01*
X142663669Y-53264369D01*
X142256925Y-53095890D01*
X141825128Y-53010000D01*
X141384872Y-53010000D01*
X140953075Y-53095890D01*
X140546331Y-53264369D01*
X140180271Y-53508962D01*
X139868962Y-53820271D01*
X139624369Y-54186331D01*
X139455890Y-54593075D01*
X139370000Y-55024872D01*
X86055000Y-55024872D01*
X85969110Y-54593075D01*
X85800631Y-54186331D01*
X85556038Y-53820271D01*
X85244729Y-53508962D01*
X84878669Y-53264369D01*
X84471925Y-53095890D01*
X84040128Y-53010000D01*
X83599872Y-53010000D01*
X83168075Y-53095890D01*
X82761331Y-53264369D01*
X82395271Y-53508962D01*
X82083962Y-53820271D01*
X81839369Y-54186331D01*
X81670890Y-54593075D01*
X81585000Y-55024872D01*
X80694748Y-55024872D01*
X80733096Y-54633778D01*
X80910606Y-54045836D01*
X81198937Y-53503564D01*
X81587094Y-53027636D01*
X82060314Y-52636155D01*
X82600552Y-52344049D01*
X83187244Y-52162437D01*
X83828879Y-52095000D01*
X141572721Y-52095000D01*
X142216222Y-52158096D01*
M02*
