M48
; DRILL file {KiCad (5.1.0)-1} date 5/11/2019 1:28:08 AM
; FORMAT={-:-/ absolute / inch / decimal}
; #@! TF.CreationDate,2019-05-11T01:28:08-04:00
; #@! TF.GenerationSoftware,Kicad,Pcbnew,(5.1.0)-1
; #@! TF.FileFunction,Plated,1,2,PTH
FMAT,2
INCH
T1C0.0118
T2C0.0236
T3C0.0335
T4C0.0374
T5C0.0394
T6C0.0433
T7C0.0551
T8C0.0701
%
G90
G05
T1
X3.175Y-5.02
X3.175Y-5.55
X3.18Y-5.805
X3.25Y-6.015
X3.46Y-5.09
X3.525Y-6.015
X3.655Y-5.535
X3.685Y-5.37
X3.6885Y-5.4947
X3.69Y-3.635
X3.69Y-3.885
X3.73Y-4.5
X3.74Y-4.675
X3.795Y-4.14
X3.795Y-4.675
X3.805Y-5.4947
X3.815Y-6.015
X3.835Y-3.29
X3.925Y-4.865
X3.96Y-3.9
X4.04Y-5.53
X4.05Y-4.275
X4.055Y-5.14
X4.065Y-3.52
X4.115Y-6.015
X4.16Y-3.9
X4.18Y-3.94
X4.2Y-4.925
X4.225Y-5.15
X4.254Y-3.96
X4.36Y-3.255
X4.3984Y-4.0175
X4.4068Y-5.0926
X4.41Y-6.01
X4.425Y-4.525
X4.46Y-3.9832
X4.48Y-4.235
X4.4839Y-4.2845
X4.4929Y-3.9612
X4.515Y-4.58
X4.5172Y-4.7604
X4.5178Y-4.4772
X4.52Y-5.325
X4.5296Y-4.0004
X4.53Y-3.675
X4.5334Y-4.2484
X4.54Y-3.795
X4.5418Y-4.305
X4.545Y-4.505
X4.565Y-3.68
X4.5732Y-4.7027
X4.575Y-3.255
X4.585Y-4.015
X4.5876Y-3.7982
X4.6118Y-4.5282
X4.705Y-6.01
X4.715Y-5.725
X4.73Y-3.74
X4.735Y-4.115
X4.745Y-4.745
X4.755Y-4.315
X4.76Y-4.01
X4.81Y-5.05
X4.815Y-3.76
X4.815Y-4.64
X4.815Y-4.805
X4.815Y-5.165
X4.82Y-3.115
X4.82Y-5.5
X4.825Y-3.45
X4.825Y-4.005
X4.9Y-5.27
X4.925Y-3.485
X4.925Y-4.275
X4.93Y-3.67
X4.93Y-4.44
X4.95Y-4.79
X4.9874Y-3.4683
X4.9874Y-4.2383
X4.995Y-3.985
X5.005Y-3.855
X5.005Y-4.625
X5.055Y-3.64
X5.055Y-3.7
X5.055Y-4.41
X5.055Y-4.47
X5.11Y-4.75
X5.135Y-3.67
X5.135Y-4.44
X5.16Y-3.855
X5.16Y-4.625
X5.18Y-3.34
X5.18Y-4.11
X5.205Y-3.64
X5.205Y-3.7
X5.205Y-4.41
X5.205Y-4.47
X5.2615Y-3.501
X5.2615Y-4.271
X5.31Y-3.555
X5.315Y-3.51
X5.315Y-4.28
X5.325Y-5.07
X5.325Y-5.125
X5.325Y-5.185
X5.325Y-5.24
X5.3597Y-3.8197
X5.36Y-4.58
X5.36Y-4.685
X5.365Y-3.92
X5.37Y-4.28
X5.41Y-4.63
X5.415Y-3.87
X5.42Y-4.28
X5.445Y-5.07
X5.445Y-5.125
X5.445Y-5.18
X5.445Y-5.24
X5.465Y-3.82
X5.465Y-3.92
X5.47Y-4.28
X5.47Y-4.58
X5.47Y-4.685
X5.515Y-4.28
X5.52Y-3.87
X5.52Y-4.63
X5.5646Y-3.8204
X5.565Y-3.92
X5.565Y-4.28
X5.565Y-4.58
X5.57Y-4.685
X5.64Y-4.58
X5.6817Y-3.205
X5.6868Y-3.975
X5.71Y-3.815
X5.785Y-4.99
X5.785Y-5.045
X5.785Y-5.105
X5.785Y-5.16
X5.905Y-4.99
X5.905Y-5.045
X5.905Y-5.105
X5.905Y-5.16
X6.17Y-4.285
X6.175Y-3.515
X6.195Y-3.975
X6.2Y-3.2
X6.25Y-3.17
X6.25Y-3.23
X6.25Y-3.485
X6.25Y-3.545
X6.25Y-3.94
X6.25Y-4.0
X6.25Y-4.255
X6.25Y-4.315
X6.265Y-4.99
X6.265Y-5.05
X6.265Y-5.11
X6.265Y-5.17
X6.31Y-3.15
X6.31Y-3.195
X6.31Y-3.245
X6.31Y-3.465
X6.31Y-3.51
X6.31Y-3.56
X6.31Y-3.92
X6.31Y-3.965
X6.31Y-4.015
X6.31Y-4.235
X6.31Y-4.28
X6.31Y-4.33
X6.425Y-4.99
X6.425Y-5.05
X6.425Y-5.11
X6.425Y-5.17
X6.5Y-4.7
X6.5Y-4.9
X6.5Y-5.1
X6.5Y-5.3
X6.5Y-5.5
X6.5Y-5.7
X6.6Y-4.6
X6.6Y-4.8
X6.6Y-5.0
X6.6Y-5.2
X6.6Y-5.4
X6.6Y-5.6
X6.7Y-4.55
X6.7Y-4.7
X6.7Y-4.9
X6.7Y-5.1
X6.7Y-5.3
X6.7Y-5.5
X6.7Y-5.7
T3
X3.2876Y-5.2216
X3.2876Y-5.4184
T4
X3.54Y-4.1297
X3.54Y-4.2281
X3.54Y-4.3266
X3.54Y-4.425
X3.54Y-4.6647
X3.54Y-4.7631
X3.54Y-4.8616
X3.54Y-4.96
X3.54Y-3.186
X3.54Y-3.2844
X3.54Y-3.3829
X3.54Y-3.4813
X3.54Y-3.5797
X3.54Y-3.6781
X3.54Y-3.7766
X3.54Y-3.875
T5
X5.015Y-4.91
X5.015Y-5.01
X5.015Y-5.11
X4.0161Y-5.044
X4.1146Y-5.044
X4.213Y-5.044
X4.17Y-4.245
X4.17Y-4.345
X4.17Y-4.445
X4.27Y-4.245
X4.27Y-4.345
X4.27Y-4.445
T6
X3.28Y-4.66
X3.28Y-4.76
X3.28Y-4.86
X3.28Y-4.96
X3.28Y-4.125
X3.28Y-4.225
X3.28Y-4.325
X3.28Y-4.425
X3.28Y-3.175
X3.28Y-3.275
X3.28Y-3.375
X3.28Y-3.475
X3.28Y-3.575
X3.28Y-3.675
X3.28Y-3.775
X3.28Y-3.875
T7
X5.5Y-5.8
X5.5Y-6.0
X4.845Y-5.8
X4.845Y-6.0
X6.435Y-4.13
X6.635Y-4.13
X5.175Y-5.8
X5.175Y-6.0
X6.435Y-3.4781
X6.635Y-3.4781
X6.435Y-3.7931
X6.635Y-3.7931
X6.275Y-5.8
X6.275Y-6.0
X5.825Y-5.8
X5.825Y-6.0
X6.435Y-4.43
X6.635Y-4.43
X6.595Y-5.8
X6.595Y-6.0
T8
X5.885Y-5.38
X5.885Y-5.5139
X6.2756Y-5.38
X6.2756Y-5.5139
X5.135Y-5.38
X5.135Y-5.5139
X5.5256Y-5.38
X5.5256Y-5.5139
T2
G00X3.1675Y-5.1822
M15
G01X3.1951Y-5.1822
M16
G05
G00X3.1951Y-5.4578
M15
G01X3.1675Y-5.4578
M16
G05
T0
M30
